<?xml version="1.0" encoding="UTF-8" standalone="no"?>
<svg width="228.6mm" height="125.589mm"
 viewBox="0 0 648 356"
 xmlns="http://www.w3.org/2000/svg" xmlns:xlink="http://www.w3.org/1999/xlink"  version="1.2" baseProfile="tiny">
<title>Qt SVG Document</title>
<desc>MATLAB, The MathWorks, Inc. Version 25.2.0.3123386 R2025b Update 3</desc>
<defs>
</defs>
<g fill="none" stroke="black" stroke-width="1" fill-rule="evenodd" stroke-linecap="square" stroke-linejoin="bevel" >

<g fill="#ffffff" fill-opacity="1" stroke="none" transform="matrix(0.75,0,0,0.75,-33.1,-20.625)"
font-family="MS Shell Dlg 2" font-size="8.25" font-weight="400" font-style="normal" 
>
<path vector-effect="none" fill-rule="evenodd" d="M43,26 L907,26 L907,501 L43,501 L43,26"/>
</g>

<g fill="#ffffff" fill-opacity="1" stroke="none" transform="matrix(7.5e-05,0,0,7.5e-05,-33.1,-20.625)"
font-family="MS Shell Dlg 2" font-size="8.25" font-weight="400" font-style="normal" 
>
<path vector-effect="none" fill-rule="evenodd" d="M1.3e+06,350000 L1.3e+06,4.11e+06 L9.05e+06,4.11e+06 L9.05e+06,350000 L1.3e+06,350000"/>
</g>

<g fill="#212121" fill-opacity="0.14902" stroke="#212121" stroke-opacity="0.14902" stroke-width="0.666667" stroke-linecap="butt" stroke-linejoin="round" transform="matrix(0.75,0,0,0.75,-33.1,-20.625)"
font-family="MS Shell Dlg 2" font-size="8.25" font-weight="400" font-style="normal" 
>
<polyline fill="none" vector-effect="none" points="206.116,35 206.116,411 " />
<polyline fill="none" vector-effect="none" points="361.808,35 361.808,411 " />
<polyline fill="none" vector-effect="none" points="517.5,35 517.5,411 " />
<polyline fill="none" vector-effect="none" points="673.192,35 673.192,411 " />
<polyline fill="none" vector-effect="none" points="828.884,35 828.884,411 " />
<polyline fill="none" vector-effect="none" points="130,411 905,411 " />
<polyline fill="none" vector-effect="none" points="130,348.333 905,348.333 " />
<polyline fill="none" vector-effect="none" points="130,285.667 905,285.667 " />
<polyline fill="none" vector-effect="none" points="130,223 905,223 " />
<polyline fill="none" vector-effect="none" points="130,160.333 905,160.333 " />
<polyline fill="none" vector-effect="none" points="130,97.6667 905,97.6667 " />
<polyline fill="none" vector-effect="none" points="130,35 905,35 " />
</g>

<g fill="#212121" fill-opacity="1" stroke="#212121" stroke-opacity="1" stroke-width="0.666667" stroke-linecap="butt" stroke-linejoin="round" transform="matrix(0.75,0,0,0.75,-33.1,-20.625)"
font-family="MS Shell Dlg 2" font-size="8.25" font-weight="400" font-style="normal" 
>
<polyline fill="none" vector-effect="none" points="130,411 905,411 " />
</g>

<g fill="#5286d2" fill-opacity="1" stroke="none" transform="matrix(7.5e-05,0,0,7.5e-05,-33.1,-20.625)"
font-family="MS Shell Dlg 2" font-size="8.25" font-weight="400" font-style="normal" 
>
<path vector-effect="none" fill-rule="evenodd" d="M1.57679e+06,784273 L1.57679e+06,4.11e+06 L1.85357e+06,4.11e+06 L1.85357e+06,784273 L1.57679e+06,784273"/>
</g>

<g fill="#5286d2" fill-opacity="1" stroke="none" transform="matrix(7.5e-05,0,0,7.5e-05,-33.1,-20.625)"
font-family="MS Shell Dlg 2" font-size="8.25" font-weight="400" font-style="normal" 
>
<path vector-effect="none" fill-rule="evenodd" d="M3.13371e+06,690916 L3.13371e+06,4.11e+06 L3.41049e+06,4.11e+06 L3.41049e+06,690916 L3.13371e+06,690916"/>
</g>

<g fill="#5286d2" fill-opacity="1" stroke="none" transform="matrix(7.5e-05,0,0,7.5e-05,-33.1,-20.625)"
font-family="MS Shell Dlg 2" font-size="8.25" font-weight="400" font-style="normal" 
>
<path vector-effect="none" fill-rule="evenodd" d="M4.69062e+06,636073 L4.69062e+06,4.11e+06 L4.96741e+06,4.11e+06 L4.96741e+06,636073 L4.69062e+06,636073"/>
</g>

<g fill="#5286d2" fill-opacity="1" stroke="none" transform="matrix(7.5e-05,0,0,7.5e-05,-33.1,-20.625)"
font-family="MS Shell Dlg 2" font-size="8.25" font-weight="400" font-style="normal" 
>
<path vector-effect="none" fill-rule="evenodd" d="M6.24754e+06,731019 L6.24754e+06,4.11e+06 L6.52433e+06,4.11e+06 L6.52433e+06,731019 L6.24754e+06,731019"/>
</g>

<g fill="#5286d2" fill-opacity="1" stroke="none" transform="matrix(7.5e-05,0,0,7.5e-05,-33.1,-20.625)"
font-family="MS Shell Dlg 2" font-size="8.25" font-weight="400" font-style="normal" 
>
<path vector-effect="none" fill-rule="evenodd" d="M7.80446e+06,768530 L7.80446e+06,4.11e+06 L8.08125e+06,4.11e+06 L8.08125e+06,768530 L7.80446e+06,768530"/>
</g>

<g fill="none" stroke="#212121" stroke-opacity="1" stroke-width="0.666667" stroke-linecap="butt" stroke-linejoin="miter" stroke-miterlimit="5" transform="matrix(0.75,0,0,0.75,-33.1,-20.625)"
font-family="MS Shell Dlg 2" font-size="8.25" font-weight="400" font-style="normal" 
>
<path vector-effect="none" fill-rule="evenodd" d="M157.679,411 L157.679,78.4274 L185.357,78.4274 L185.357,411 L157.679,411"/>
<path vector-effect="none" fill-rule="evenodd" d="M313.371,411 L313.371,69.0916 L341.049,69.0916 L341.049,411 L313.371,411"/>
<path vector-effect="none" fill-rule="evenodd" d="M469.062,411 L469.062,63.6073 L496.741,63.6073 L496.741,411 L469.062,411"/>
<path vector-effect="none" fill-rule="evenodd" d="M624.754,411 L624.754,73.102 L652.433,73.102 L652.433,411 L624.754,411"/>
<path vector-effect="none" fill-rule="evenodd" d="M780.446,411 L780.446,76.853 L808.125,76.853 L808.125,411 L780.446,411"/>
</g>

<g fill="#242b84" fill-opacity="1" stroke="none" transform="matrix(7.5e-05,0,0,7.5e-05,-33.1,-20.625)"
font-family="MS Shell Dlg 2" font-size="8.25" font-weight="400" font-style="normal" 
>
<path vector-effect="none" fill-rule="evenodd" d="M1.92277e+06,824391 L1.92277e+06,4.11e+06 L2.19955e+06,4.11e+06 L2.19955e+06,824391 L1.92277e+06,824391"/>
</g>

<g fill="#242b84" fill-opacity="1" stroke="none" transform="matrix(7.5e-05,0,0,7.5e-05,-33.1,-20.625)"
font-family="MS Shell Dlg 2" font-size="8.25" font-weight="400" font-style="normal" 
>
<path vector-effect="none" fill-rule="evenodd" d="M3.47969e+06,718772 L3.47969e+06,4.11e+06 L3.75647e+06,4.11e+06 L3.75647e+06,718772 L3.47969e+06,718772"/>
</g>

<g fill="#242b84" fill-opacity="1" stroke="none" transform="matrix(7.5e-05,0,0,7.5e-05,-33.1,-20.625)"
font-family="MS Shell Dlg 2" font-size="8.25" font-weight="400" font-style="normal" 
>
<path vector-effect="none" fill-rule="evenodd" d="M5.03661e+06,636873 L5.03661e+06,4.11e+06 L5.31339e+06,4.11e+06 L5.31339e+06,636873 L5.03661e+06,636873"/>
</g>

<g fill="#242b84" fill-opacity="1" stroke="none" transform="matrix(7.5e-05,0,0,7.5e-05,-33.1,-20.625)"
font-family="MS Shell Dlg 2" font-size="8.25" font-weight="400" font-style="normal" 
>
<path vector-effect="none" fill-rule="evenodd" d="M6.59353e+06,724251 L6.59353e+06,4.11e+06 L6.87031e+06,4.11e+06 L6.87031e+06,724251 L6.59353e+06,724251"/>
</g>

<g fill="#242b84" fill-opacity="1" stroke="none" transform="matrix(7.5e-05,0,0,7.5e-05,-33.1,-20.625)"
font-family="MS Shell Dlg 2" font-size="8.25" font-weight="400" font-style="normal" 
>
<path vector-effect="none" fill-rule="evenodd" d="M8.15045e+06,758687 L8.15045e+06,4.11e+06 L8.42723e+06,4.11e+06 L8.42723e+06,758687 L8.15045e+06,758687"/>
</g>

<g fill="none" stroke="#212121" stroke-opacity="1" stroke-width="0.666667" stroke-linecap="butt" stroke-linejoin="miter" stroke-miterlimit="5" transform="matrix(0.75,0,0,0.75,-33.1,-20.625)"
font-family="MS Shell Dlg 2" font-size="8.25" font-weight="400" font-style="normal" 
>
<path vector-effect="none" fill-rule="evenodd" d="M192.277,411 L192.277,82.4392 L219.955,82.4392 L219.955,411 L192.277,411"/>
<path vector-effect="none" fill-rule="evenodd" d="M347.969,411 L347.969,71.8772 L375.647,71.8772 L375.647,411 L347.969,411"/>
<path vector-effect="none" fill-rule="evenodd" d="M503.661,411 L503.661,63.6874 L531.339,63.6874 L531.339,411 L503.661,411"/>
<path vector-effect="none" fill-rule="evenodd" d="M659.353,411 L659.353,72.4251 L687.031,72.4251 L687.031,411 L659.353,411"/>
<path vector-effect="none" fill-rule="evenodd" d="M815.045,411 L815.045,75.8688 L842.723,75.8688 L842.723,411 L815.045,411"/>
</g>

<g fill="#c8781e" fill-opacity="1" stroke="none" transform="matrix(7.5e-05,0,0,7.5e-05,-33.1,-20.625)"
font-family="MS Shell Dlg 2" font-size="8.25" font-weight="400" font-style="normal" 
>
<path vector-effect="none" fill-rule="evenodd" d="M2.26875e+06,803632 L2.26875e+06,4.11e+06 L2.54554e+06,4.11e+06 L2.54554e+06,803632 L2.26875e+06,803632"/>
</g>

<g fill="#c8781e" fill-opacity="1" stroke="none" transform="matrix(7.5e-05,0,0,7.5e-05,-33.1,-20.625)"
font-family="MS Shell Dlg 2" font-size="8.25" font-weight="400" font-style="normal" 
>
<path vector-effect="none" fill-rule="evenodd" d="M3.82567e+06,710369 L3.82567e+06,4.11e+06 L4.10246e+06,4.11e+06 L4.10246e+06,710369 L3.82567e+06,710369"/>
</g>

<g fill="#c8781e" fill-opacity="1" stroke="none" transform="matrix(7.5e-05,0,0,7.5e-05,-33.1,-20.625)"
font-family="MS Shell Dlg 2" font-size="8.25" font-weight="400" font-style="normal" 
>
<path vector-effect="none" fill-rule="evenodd" d="M5.38259e+06,633734 L5.38259e+06,4.11e+06 L5.65938e+06,4.11e+06 L5.65938e+06,633734 L5.38259e+06,633734"/>
</g>

<g fill="#c8781e" fill-opacity="1" stroke="none" transform="matrix(7.5e-05,0,0,7.5e-05,-33.1,-20.625)"
font-family="MS Shell Dlg 2" font-size="8.25" font-weight="400" font-style="normal" 
>
<path vector-effect="none" fill-rule="evenodd" d="M6.93951e+06,722343 L6.93951e+06,4.11e+06 L7.21629e+06,4.11e+06 L7.21629e+06,722343 L6.93951e+06,722343"/>
</g>

<g fill="#c8781e" fill-opacity="1" stroke="none" transform="matrix(7.5e-05,0,0,7.5e-05,-33.1,-20.625)"
font-family="MS Shell Dlg 2" font-size="8.25" font-weight="400" font-style="normal" 
>
<path vector-effect="none" fill-rule="evenodd" d="M8.49643e+06,758196 L8.49643e+06,4.11e+06 L8.77321e+06,4.11e+06 L8.77321e+06,758196 L8.49643e+06,758196"/>
</g>

<g fill="none" stroke="#212121" stroke-opacity="1" stroke-width="0.666667" stroke-linecap="butt" stroke-linejoin="miter" stroke-miterlimit="5" transform="matrix(0.75,0,0,0.75,-33.1,-20.625)"
font-family="MS Shell Dlg 2" font-size="8.25" font-weight="400" font-style="normal" 
>
<path vector-effect="none" fill-rule="evenodd" d="M226.875,411 L226.875,80.3632 L254.554,80.3632 L254.554,411 L226.875,411"/>
<path vector-effect="none" fill-rule="evenodd" d="M382.567,411 L382.567,71.037 L410.246,71.037 L410.246,411 L382.567,411"/>
<path vector-effect="none" fill-rule="evenodd" d="M538.259,411 L538.259,63.3735 L565.938,63.3735 L565.938,411 L538.259,411"/>
<path vector-effect="none" fill-rule="evenodd" d="M693.951,411 L693.951,72.2344 L721.629,72.2344 L721.629,411 L693.951,411"/>
<path vector-effect="none" fill-rule="evenodd" d="M849.643,411 L849.643,75.8196 L877.321,75.8196 L877.321,411 L849.643,411"/>
</g>

<g fill="#212121" fill-opacity="1" stroke="#212121" stroke-opacity="1" stroke-width="0.666667" stroke-linecap="square" stroke-linejoin="round" transform="matrix(0.75,0,0,0.75,-33.1,-20.625)"
font-family="MS Shell Dlg 2" font-size="8.25" font-weight="400" font-style="normal" 
>
<polyline fill="none" vector-effect="none" points="130,411 905,411 " />
<polyline fill="none" vector-effect="none" points="206.116,411 206.116,403.25 " />
<polyline fill="none" vector-effect="none" points="361.808,411 361.808,403.25 " />
<polyline fill="none" vector-effect="none" points="517.5,411 517.5,403.25 " />
<polyline fill="none" vector-effect="none" points="673.192,411 673.192,403.25 " />
<polyline fill="none" vector-effect="none" points="828.884,411 828.884,403.25 " />
</g>

<g fill="#212121" fill-opacity="1" stroke="#212121" stroke-opacity="1" stroke-width="1" stroke-linecap="square" stroke-linejoin="bevel" transform="matrix(0.649519,-0.375,0.375,0.649519,77.0991,330.643)"
font-family="Arial" font-size="16" font-weight="400" font-style="normal" 
>
<text fill="#212121" fill-opacity="1" stroke="none" xml:space="preserve" x="0" y="0" font-family="Arial" font-size="16" font-weight="400" font-style="normal" 
 >2026-2030</text>
</g>

<g fill="#212121" fill-opacity="1" stroke="#212121" stroke-opacity="1" stroke-width="1" stroke-linecap="square" stroke-linejoin="bevel" transform="matrix(0.649519,-0.375,0.375,0.649519,193.868,330.643)"
font-family="Arial" font-size="16" font-weight="400" font-style="normal" 
>
<text fill="#212121" fill-opacity="1" stroke="none" xml:space="preserve" x="0" y="0" font-family="Arial" font-size="16" font-weight="400" font-style="normal" 
 >2031-2035</text>
</g>

<g fill="#212121" fill-opacity="1" stroke="#212121" stroke-opacity="1" stroke-width="1" stroke-linecap="square" stroke-linejoin="bevel" transform="matrix(0.649519,-0.375,0.375,0.649519,310.637,330.643)"
font-family="Arial" font-size="16" font-weight="400" font-style="normal" 
>
<text fill="#212121" fill-opacity="1" stroke="none" xml:space="preserve" x="0" y="0" font-family="Arial" font-size="16" font-weight="400" font-style="normal" 
 >2036-2040</text>
</g>

<g fill="#212121" fill-opacity="1" stroke="#212121" stroke-opacity="1" stroke-width="1" stroke-linecap="square" stroke-linejoin="bevel" transform="matrix(0.649519,-0.375,0.375,0.649519,427.406,330.643)"
font-family="Arial" font-size="16" font-weight="400" font-style="normal" 
>
<text fill="#212121" fill-opacity="1" stroke="none" xml:space="preserve" x="0" y="0" font-family="Arial" font-size="16" font-weight="400" font-style="normal" 
 >2041-2045</text>
</g>

<g fill="#212121" fill-opacity="1" stroke="#212121" stroke-opacity="1" stroke-width="1" stroke-linecap="square" stroke-linejoin="bevel" transform="matrix(0.649519,-0.375,0.375,0.649519,544.175,330.643)"
font-family="Arial" font-size="16" font-weight="400" font-style="normal" 
>
<text fill="#212121" fill-opacity="1" stroke="none" xml:space="preserve" x="0" y="0" font-family="Arial" font-size="16" font-weight="400" font-style="normal" 
 >2046-2050</text>
</g>

<g fill="#212121" fill-opacity="1" stroke="#212121" stroke-opacity="1" stroke-width="1" stroke-linecap="square" stroke-linejoin="bevel" transform="matrix(0,-0.75,0.75,0,10.5,260.625)"
font-family="Arial" font-size="17" font-weight="400" font-style="normal" 
>
<text fill="#212121" fill-opacity="1" stroke="none" xml:space="preserve" x="0" y="0" font-family="Arial" font-size="17" font-weight="400" font-style="normal" 
 >Government Consumption Share of GDP</text>
</g>

<g fill="#212121" fill-opacity="1" stroke="#212121" stroke-opacity="1" stroke-width="1" stroke-linecap="square" stroke-linejoin="bevel" transform="matrix(0,-0.75,0.75,0,25.5,204)"
font-family="Arial" font-size="17" font-weight="400" font-style="normal" 
>
<text fill="#212121" fill-opacity="1" stroke="none" xml:space="preserve" x="0" y="0" font-family="Arial" font-size="17" font-weight="400" font-style="normal" 
 >5-year average level</text>
</g>

<g fill="#212121" fill-opacity="1" stroke="#212121" stroke-opacity="1" stroke-width="1" stroke-linecap="square" stroke-linejoin="bevel" transform="matrix(0,-0.75,0.75,0,40.5,174.75)"
font-family="Arial" font-size="17" font-weight="400" font-style="normal" 
>
<text fill="#212121" fill-opacity="1" stroke="none" xml:space="preserve" x="0" y="0" font-family="Arial" font-size="17" font-weight="400" font-style="normal" 
 >% of GDP</text>
</g>

<g fill="#212121" fill-opacity="1" stroke="#212121" stroke-opacity="1" stroke-width="0.666667" stroke-linecap="square" stroke-linejoin="round" transform="matrix(0.75,0,0,0.75,-33.1,-20.625)"
font-family="Arial" font-size="17" font-weight="400" font-style="normal" 
>
<polyline fill="none" vector-effect="none" points="130,411 130,35 " />
<polyline fill="none" vector-effect="none" points="130,411 137.75,411 " />
<polyline fill="none" vector-effect="none" points="130,348.333 137.75,348.333 " />
<polyline fill="none" vector-effect="none" points="130,285.667 137.75,285.667 " />
<polyline fill="none" vector-effect="none" points="130,223 137.75,223 " />
<polyline fill="none" vector-effect="none" points="130,160.333 137.75,160.333 " />
<polyline fill="none" vector-effect="none" points="130,97.6667 137.75,97.6667 " />
<polyline fill="none" vector-effect="none" points="130,35 137.75,35 " />
</g>

<g fill="#212121" fill-opacity="1" stroke="#212121" stroke-opacity="1" stroke-width="1" stroke-linecap="square" stroke-linejoin="bevel" transform="matrix(0.75,0,0,0.75,53.25,291.75)"
font-family="Arial" font-size="16" font-weight="400" font-style="normal" 
>
<text fill="#212121" fill-opacity="1" stroke="none" xml:space="preserve" x="0" y="0" font-family="Arial" font-size="16" font-weight="400" font-style="normal" 
 >0</text>
</g>

<g fill="#212121" fill-opacity="1" stroke="#212121" stroke-opacity="1" stroke-width="1" stroke-linecap="square" stroke-linejoin="bevel" transform="matrix(0.75,0,0,0.75,53.25,244.75)"
font-family="Arial" font-size="16" font-weight="400" font-style="normal" 
>
<text fill="#212121" fill-opacity="1" stroke="none" xml:space="preserve" x="0" y="0" font-family="Arial" font-size="16" font-weight="400" font-style="normal" 
 >2</text>
</g>

<g fill="#212121" fill-opacity="1" stroke="#212121" stroke-opacity="1" stroke-width="1" stroke-linecap="square" stroke-linejoin="bevel" transform="matrix(0.75,0,0,0.75,53.25,197.75)"
font-family="Arial" font-size="16" font-weight="400" font-style="normal" 
>
<text fill="#212121" fill-opacity="1" stroke="none" xml:space="preserve" x="0" y="0" font-family="Arial" font-size="16" font-weight="400" font-style="normal" 
 >4</text>
</g>

<g fill="#212121" fill-opacity="1" stroke="#212121" stroke-opacity="1" stroke-width="1" stroke-linecap="square" stroke-linejoin="bevel" transform="matrix(0.75,0,0,0.75,53.25,150.75)"
font-family="Arial" font-size="16" font-weight="400" font-style="normal" 
>
<text fill="#212121" fill-opacity="1" stroke="none" xml:space="preserve" x="0" y="0" font-family="Arial" font-size="16" font-weight="400" font-style="normal" 
 >6</text>
</g>

<g fill="#212121" fill-opacity="1" stroke="#212121" stroke-opacity="1" stroke-width="1" stroke-linecap="square" stroke-linejoin="bevel" transform="matrix(0.75,0,0,0.75,53.25,103.75)"
font-family="Arial" font-size="16" font-weight="400" font-style="normal" 
>
<text fill="#212121" fill-opacity="1" stroke="none" xml:space="preserve" x="0" y="0" font-family="Arial" font-size="16" font-weight="400" font-style="normal" 
 >8</text>
</g>

<g fill="#212121" fill-opacity="1" stroke="#212121" stroke-opacity="1" stroke-width="1" stroke-linecap="square" stroke-linejoin="bevel" transform="matrix(0.75,0,0,0.75,46.5,56.75)"
font-family="Arial" font-size="16" font-weight="400" font-style="normal" 
>
<text fill="#212121" fill-opacity="1" stroke="none" xml:space="preserve" x="0" y="0" font-family="Arial" font-size="16" font-weight="400" font-style="normal" 
 >10</text>
</g>

<g fill="#212121" fill-opacity="1" stroke="#212121" stroke-opacity="1" stroke-width="1" stroke-linecap="square" stroke-linejoin="bevel" transform="matrix(0.75,0,0,0.75,46.5,9.75)"
font-family="Arial" font-size="16" font-weight="400" font-style="normal" 
>
<text fill="#212121" fill-opacity="1" stroke="none" xml:space="preserve" x="0" y="0" font-family="Arial" font-size="16" font-weight="400" font-style="normal" 
 >12</text>
</g>

<g fill="#5286d2" fill-opacity="1" stroke="none" transform="matrix(7.5e-05,0,0,7.5e-05,-33.1,-20.625)"
font-family="Arial" font-size="16" font-weight="400" font-style="normal" 
>
<path vector-effect="none" fill-rule="evenodd" d="M2.04e+06,4.85e+06 L2.04e+06,4.97e+06 L2.44e+06,4.97e+06 L2.44e+06,4.85e+06 L2.04e+06,4.85e+06"/>
</g>

<g fill="none" stroke="#212121" stroke-opacity="1" stroke-width="0.666667" stroke-linecap="butt" stroke-linejoin="miter" stroke-miterlimit="5" transform="matrix(0.75,0,0,0.75,-33.1,-20.625)"
font-family="Arial" font-size="16" font-weight="400" font-style="normal" 
>
<path vector-effect="none" fill-rule="evenodd" d="M204,497 L204,485 L244,485 L244,497 L204,497"/>
</g>

<g fill="#242b84" fill-opacity="1" stroke="none" transform="matrix(7.5e-05,0,0,7.5e-05,-33.1,-20.625)"
font-family="Arial" font-size="16" font-weight="400" font-style="normal" 
>
<path vector-effect="none" fill-rule="evenodd" d="M3.12e+06,4.85e+06 L3.12e+06,4.97e+06 L3.52e+06,4.97e+06 L3.52e+06,4.85e+06 L3.12e+06,4.85e+06"/>
</g>

<g fill="none" stroke="#212121" stroke-opacity="1" stroke-width="0.666667" stroke-linecap="butt" stroke-linejoin="miter" stroke-miterlimit="5" transform="matrix(0.75,0,0,0.75,-33.1,-20.625)"
font-family="Arial" font-size="16" font-weight="400" font-style="normal" 
>
<path vector-effect="none" fill-rule="evenodd" d="M312,497 L312,485 L352,485 L352,497 L312,497"/>
</g>

<g fill="#c8781e" fill-opacity="1" stroke="none" transform="matrix(7.5e-05,0,0,7.5e-05,-33.1,-20.625)"
font-family="Arial" font-size="16" font-weight="400" font-style="normal" 
>
<path vector-effect="none" fill-rule="evenodd" d="M5.6e+06,4.85e+06 L5.6e+06,4.97e+06 L6e+06,4.97e+06 L6e+06,4.85e+06 L5.6e+06,4.85e+06"/>
</g>

<g fill="none" stroke="#212121" stroke-opacity="1" stroke-width="0.666667" stroke-linecap="butt" stroke-linejoin="miter" stroke-miterlimit="5" transform="matrix(0.75,0,0,0.75,-33.1,-20.625)"
font-family="Arial" font-size="16" font-weight="400" font-style="normal" 
>
<path vector-effect="none" fill-rule="evenodd" d="M560,497 L560,485 L600,485 L600,497 L560,497"/>
</g>

<g fill="#212121" fill-opacity="1" stroke="#212121" stroke-opacity="1" stroke-width="1" stroke-linecap="square" stroke-linejoin="bevel" transform="matrix(0.75,0,0,0.75,152.15,351.375)"
font-family="Arial" font-size="14" font-weight="400" font-style="normal" 
>
<text fill="#212121" fill-opacity="1" stroke="none" xml:space="preserve" x="0" y="0" font-family="Arial" font-size="14" font-weight="400" font-style="normal" 
 >Net Zero</text>
</g>

<g fill="#212121" fill-opacity="1" stroke="#212121" stroke-opacity="1" stroke-width="1" stroke-linecap="square" stroke-linejoin="bevel" transform="matrix(0.75,0,0,0.75,233.15,351.375)"
font-family="Arial" font-size="14" font-weight="400" font-style="normal" 
>
<text fill="#212121" fill-opacity="1" stroke="none" xml:space="preserve" x="0" y="0" font-family="Arial" font-size="14" font-weight="400" font-style="normal" 
 >Net Zero and Directive 10 (full)</text>
</g>

<g fill="#212121" fill-opacity="1" stroke="#212121" stroke-opacity="1" stroke-width="1" stroke-linecap="square" stroke-linejoin="bevel" transform="matrix(0.75,0,0,0.75,419.15,351.375)"
font-family="Arial" font-size="14" font-weight="400" font-style="normal" 
>
<text fill="#212121" fill-opacity="1" stroke="none" xml:space="preserve" x="0" y="0" font-family="Arial" font-size="14" font-weight="400" font-style="normal" 
 >Net Zero and Directive 10 no BESS</text>
</g>
</g>
</svg>
