<?xml version="1.0" encoding="UTF-8" standalone="no"?>
<svg width="230.364mm" height="125.589mm"
 viewBox="0 0 653 356"
 xmlns="http://www.w3.org/2000/svg" xmlns:xlink="http://www.w3.org/1999/xlink"  version="1.2" baseProfile="tiny">
<title>Qt SVG Document</title>
<desc>MATLAB, The MathWorks, Inc. Version 25.2.0.3123386 R2025b Update 3</desc>
<defs>
</defs>
<g fill="none" stroke="black" stroke-width="1" fill-rule="evenodd" stroke-linecap="square" stroke-linejoin="bevel" >

<g fill="#ffffff" fill-opacity="1" stroke="none" transform="matrix(0.75,0,0,0.75,-40.5988,-22.875)"
font-family="MS Shell Dlg 2" font-size="8.25" font-weight="400" font-style="normal" 
>
<path vector-effect="none" fill-rule="evenodd" d="M53,29 L924,29 L924,505 L53,505 L53,29"/>
</g>

<g fill="#ffffff" fill-opacity="1" stroke="none" transform="matrix(7.5e-05,0,0,7.5e-05,-40.5988,-22.875)"
font-family="MS Shell Dlg 2" font-size="8.25" font-weight="400" font-style="normal" 
>
<path vector-effect="none" fill-rule="evenodd" d="M1.3e+06,380000 L1.3e+06,4.51e+06 L9.05e+06,4.51e+06 L9.05e+06,380000 L1.3e+06,380000"/>
</g>

<g fill="#212121" fill-opacity="0.14902" stroke="#212121" stroke-opacity="0.14902" stroke-width="0.666667" stroke-linecap="butt" stroke-linejoin="round" transform="matrix(0.75,0,0,0.75,-40.5988,-22.875)"
font-family="MS Shell Dlg 2" font-size="8.25" font-weight="400" font-style="normal" 
>
<polyline fill="none" vector-effect="none" points="130,38 130,451 " />
<polyline fill="none" vector-effect="none" points="285,38 285,451 " />
<polyline fill="none" vector-effect="none" points="440,38 440,451 " />
<polyline fill="none" vector-effect="none" points="595,38 595,451 " />
<polyline fill="none" vector-effect="none" points="750,38 750,451 " />
<polyline fill="none" vector-effect="none" points="905,38 905,451 " />
<polyline fill="none" vector-effect="none" points="130,451 905,451 " />
<polyline fill="none" vector-effect="none" points="130,409.7 905,409.7 " />
<polyline fill="none" vector-effect="none" points="130,368.4 905,368.4 " />
<polyline fill="none" vector-effect="none" points="130,327.1 905,327.1 " />
<polyline fill="none" vector-effect="none" points="130,285.8 905,285.8 " />
<polyline fill="none" vector-effect="none" points="130,244.5 905,244.5 " />
<polyline fill="none" vector-effect="none" points="130,203.2 905,203.2 " />
<polyline fill="none" vector-effect="none" points="130,161.9 905,161.9 " />
<polyline fill="none" vector-effect="none" points="130,120.6 905,120.6 " />
<polyline fill="none" vector-effect="none" points="130,79.3 905,79.3 " />
<polyline fill="none" vector-effect="none" points="130,38 905,38 " />
</g>

<g fill="#212121" fill-opacity="1" stroke="#212121" stroke-opacity="1" stroke-width="0.666667" stroke-linecap="square" stroke-linejoin="round" transform="matrix(0.75,0,0,0.75,-40.5988,-22.875)"
font-family="MS Shell Dlg 2" font-size="8.25" font-weight="400" font-style="normal" 
>
<polyline fill="none" vector-effect="none" points="130,451 905,451 " />
<polyline fill="none" vector-effect="none" points="130,451 130,443.25 " />
<polyline fill="none" vector-effect="none" points="285,451 285,443.25 " />
<polyline fill="none" vector-effect="none" points="440,451 440,443.25 " />
<polyline fill="none" vector-effect="none" points="595,451 595,443.25 " />
<polyline fill="none" vector-effect="none" points="750,451 750,443.25 " />
<polyline fill="none" vector-effect="none" points="905,451 905,443.25 " />
</g>

<g fill="#212121" fill-opacity="1" stroke="#212121" stroke-opacity="1" stroke-width="1" stroke-linecap="square" stroke-linejoin="bevel" transform="matrix(0.75,0,0,0.75,43.4012,331.025)"
font-family="Arial" font-size="16" font-weight="400" font-style="normal" 
>
<text fill="#212121" fill-opacity="1" stroke="none" xml:space="preserve" x="0" y="0" font-family="Arial" font-size="16" font-weight="400" font-style="normal" 
 >2025</text>
</g>

<g fill="#212121" fill-opacity="1" stroke="#212121" stroke-opacity="1" stroke-width="1" stroke-linecap="square" stroke-linejoin="bevel" transform="matrix(0.75,0,0,0.75,159.651,331.025)"
font-family="Arial" font-size="16" font-weight="400" font-style="normal" 
>
<text fill="#212121" fill-opacity="1" stroke="none" xml:space="preserve" x="0" y="0" font-family="Arial" font-size="16" font-weight="400" font-style="normal" 
 >2030</text>
</g>

<g fill="#212121" fill-opacity="1" stroke="#212121" stroke-opacity="1" stroke-width="1" stroke-linecap="square" stroke-linejoin="bevel" transform="matrix(0.75,0,0,0.75,275.901,331.025)"
font-family="Arial" font-size="16" font-weight="400" font-style="normal" 
>
<text fill="#212121" fill-opacity="1" stroke="none" xml:space="preserve" x="0" y="0" font-family="Arial" font-size="16" font-weight="400" font-style="normal" 
 >2035</text>
</g>

<g fill="#212121" fill-opacity="1" stroke="#212121" stroke-opacity="1" stroke-width="1" stroke-linecap="square" stroke-linejoin="bevel" transform="matrix(0.75,0,0,0.75,392.151,331.025)"
font-family="Arial" font-size="16" font-weight="400" font-style="normal" 
>
<text fill="#212121" fill-opacity="1" stroke="none" xml:space="preserve" x="0" y="0" font-family="Arial" font-size="16" font-weight="400" font-style="normal" 
 >2040</text>
</g>

<g fill="#212121" fill-opacity="1" stroke="#212121" stroke-opacity="1" stroke-width="1" stroke-linecap="square" stroke-linejoin="bevel" transform="matrix(0.75,0,0,0.75,508.401,331.025)"
font-family="Arial" font-size="16" font-weight="400" font-style="normal" 
>
<text fill="#212121" fill-opacity="1" stroke="none" xml:space="preserve" x="0" y="0" font-family="Arial" font-size="16" font-weight="400" font-style="normal" 
 >2045</text>
</g>

<g fill="#212121" fill-opacity="1" stroke="#212121" stroke-opacity="1" stroke-width="1" stroke-linecap="square" stroke-linejoin="bevel" transform="matrix(0.75,0,0,0.75,624.651,331.025)"
font-family="Arial" font-size="16" font-weight="400" font-style="normal" 
>
<text fill="#212121" fill-opacity="1" stroke="none" xml:space="preserve" x="0" y="0" font-family="Arial" font-size="16" font-weight="400" font-style="normal" 
 >2050</text>
</g>

<g fill="#212121" fill-opacity="1" stroke="#212121" stroke-opacity="1" stroke-width="1" stroke-linecap="square" stroke-linejoin="bevel" transform="matrix(0,-0.75,0.75,0,10.5,253.5)"
font-family="Arial" font-size="17" font-weight="400" font-style="normal" 
>
<text fill="#212121" fill-opacity="1" stroke="none" xml:space="preserve" x="0" y="0" font-family="Arial" font-size="17" font-weight="400" font-style="normal" 
 >GDP Level Deviation vs Baseline</text>
</g>

<g fill="#212121" fill-opacity="1" stroke="#212121" stroke-opacity="1" stroke-width="1" stroke-linecap="square" stroke-linejoin="bevel" transform="matrix(0,-0.75,0.75,0,25.5,193.125)"
font-family="Arial" font-size="17" font-weight="400" font-style="normal" 
>
<text fill="#212121" fill-opacity="1" stroke="none" xml:space="preserve" x="0" y="0" font-family="Arial" font-size="17" font-weight="400" font-style="normal" 
 >% deviation</text>
</g>

<g fill="#212121" fill-opacity="1" stroke="#212121" stroke-opacity="1" stroke-width="0.666667" stroke-linecap="square" stroke-linejoin="round" transform="matrix(0.75,0,0,0.75,-40.5988,-22.875)"
font-family="Arial" font-size="17" font-weight="400" font-style="normal" 
>
<polyline fill="none" vector-effect="none" points="130,451 130,38 " />
<polyline fill="none" vector-effect="none" points="130,451 137.75,451 " />
<polyline fill="none" vector-effect="none" points="130,409.7 137.75,409.7 " />
<polyline fill="none" vector-effect="none" points="130,368.4 137.75,368.4 " />
<polyline fill="none" vector-effect="none" points="130,327.1 137.75,327.1 " />
<polyline fill="none" vector-effect="none" points="130,285.8 137.75,285.8 " />
<polyline fill="none" vector-effect="none" points="130,244.5 137.75,244.5 " />
<polyline fill="none" vector-effect="none" points="130,203.2 137.75,203.2 " />
<polyline fill="none" vector-effect="none" points="130,161.9 137.75,161.9 " />
<polyline fill="none" vector-effect="none" points="130,120.6 137.75,120.6 " />
<polyline fill="none" vector-effect="none" points="130,79.3 137.75,79.3 " />
<polyline fill="none" vector-effect="none" points="130,38 137.75,38 " />
</g>

<g fill="#212121" fill-opacity="1" stroke="#212121" stroke-opacity="1" stroke-width="1" stroke-linecap="square" stroke-linejoin="bevel" transform="matrix(0.75,0,0,0.75,32.2521,319.5)"
font-family="Arial" font-size="16" font-weight="400" font-style="normal" 
>
<text fill="#212121" fill-opacity="1" stroke="none" xml:space="preserve" x="0" y="0" font-family="Arial" font-size="16" font-weight="400" font-style="normal" 
 >-2.5</text>
</g>

<g fill="#212121" fill-opacity="1" stroke="#212121" stroke-opacity="1" stroke-width="1" stroke-linecap="square" stroke-linejoin="bevel" transform="matrix(0.75,0,0,0.75,42.0021,288.525)"
font-family="Arial" font-size="16" font-weight="400" font-style="normal" 
>
<text fill="#212121" fill-opacity="1" stroke="none" xml:space="preserve" x="0" y="0" font-family="Arial" font-size="16" font-weight="400" font-style="normal" 
 >-2</text>
</g>

<g fill="#212121" fill-opacity="1" stroke="#212121" stroke-opacity="1" stroke-width="1" stroke-linecap="square" stroke-linejoin="bevel" transform="matrix(0.75,0,0,0.75,32.2521,257.55)"
font-family="Arial" font-size="16" font-weight="400" font-style="normal" 
>
<text fill="#212121" fill-opacity="1" stroke="none" xml:space="preserve" x="0" y="0" font-family="Arial" font-size="16" font-weight="400" font-style="normal" 
 >-1.5</text>
</g>

<g fill="#212121" fill-opacity="1" stroke="#212121" stroke-opacity="1" stroke-width="1" stroke-linecap="square" stroke-linejoin="bevel" transform="matrix(0.75,0,0,0.75,42.0021,226.575)"
font-family="Arial" font-size="16" font-weight="400" font-style="normal" 
>
<text fill="#212121" fill-opacity="1" stroke="none" xml:space="preserve" x="0" y="0" font-family="Arial" font-size="16" font-weight="400" font-style="normal" 
 >-1</text>
</g>

<g fill="#212121" fill-opacity="1" stroke="#212121" stroke-opacity="1" stroke-width="1" stroke-linecap="square" stroke-linejoin="bevel" transform="matrix(0.75,0,0,0.75,32.2521,195.6)"
font-family="Arial" font-size="16" font-weight="400" font-style="normal" 
>
<text fill="#212121" fill-opacity="1" stroke="none" xml:space="preserve" x="0" y="0" font-family="Arial" font-size="16" font-weight="400" font-style="normal" 
 >-0.5</text>
</g>

<g fill="#212121" fill-opacity="1" stroke="#212121" stroke-opacity="1" stroke-width="1" stroke-linecap="square" stroke-linejoin="bevel" transform="matrix(0.75,0,0,0.75,45.7521,164.625)"
font-family="Arial" font-size="16" font-weight="400" font-style="normal" 
>
<text fill="#212121" fill-opacity="1" stroke="none" xml:space="preserve" x="0" y="0" font-family="Arial" font-size="16" font-weight="400" font-style="normal" 
 >0</text>
</g>

<g fill="#212121" fill-opacity="1" stroke="#212121" stroke-opacity="1" stroke-width="1" stroke-linecap="square" stroke-linejoin="bevel" transform="matrix(0.75,0,0,0.75,36.0021,133.65)"
font-family="Arial" font-size="16" font-weight="400" font-style="normal" 
>
<text fill="#212121" fill-opacity="1" stroke="none" xml:space="preserve" x="0" y="0" font-family="Arial" font-size="16" font-weight="400" font-style="normal" 
 >0.5</text>
</g>

<g fill="#212121" fill-opacity="1" stroke="#212121" stroke-opacity="1" stroke-width="1" stroke-linecap="square" stroke-linejoin="bevel" transform="matrix(0.75,0,0,0.75,45.7521,102.675)"
font-family="Arial" font-size="16" font-weight="400" font-style="normal" 
>
<text fill="#212121" fill-opacity="1" stroke="none" xml:space="preserve" x="0" y="0" font-family="Arial" font-size="16" font-weight="400" font-style="normal" 
 >1</text>
</g>

<g fill="#212121" fill-opacity="1" stroke="#212121" stroke-opacity="1" stroke-width="1" stroke-linecap="square" stroke-linejoin="bevel" transform="matrix(0.75,0,0,0.75,36.0021,71.7)"
font-family="Arial" font-size="16" font-weight="400" font-style="normal" 
>
<text fill="#212121" fill-opacity="1" stroke="none" xml:space="preserve" x="0" y="0" font-family="Arial" font-size="16" font-weight="400" font-style="normal" 
 >1.5</text>
</g>

<g fill="#212121" fill-opacity="1" stroke="#212121" stroke-opacity="1" stroke-width="1" stroke-linecap="square" stroke-linejoin="bevel" transform="matrix(0.75,0,0,0.75,45.7521,40.725)"
font-family="Arial" font-size="16" font-weight="400" font-style="normal" 
>
<text fill="#212121" fill-opacity="1" stroke="none" xml:space="preserve" x="0" y="0" font-family="Arial" font-size="16" font-weight="400" font-style="normal" 
 >2</text>
</g>

<g fill="#212121" fill-opacity="1" stroke="#212121" stroke-opacity="1" stroke-width="1" stroke-linecap="square" stroke-linejoin="bevel" transform="matrix(0.75,0,0,0.75,36.0021,9.75)"
font-family="Arial" font-size="16" font-weight="400" font-style="normal" 
>
<text fill="#212121" fill-opacity="1" stroke="none" xml:space="preserve" x="0" y="0" font-family="Arial" font-size="16" font-weight="400" font-style="normal" 
 >2.5</text>
</g>

<g fill="none" stroke="#5286d2" stroke-opacity="1" stroke-width="2.66667" stroke-linecap="butt" stroke-linejoin="round" transform="matrix(0.75,0,0,0.75,-40.5988,-22.875)"
font-family="Arial" font-size="16" font-weight="400" font-style="normal" 
>
<polyline fill="none" vector-effect="none" points="161,207.569 192,291.972 223,275.258 254,244.863 285,198.123 316,167.61 347,285.974 378,353.783 409,384.212 440,388.277 471,396.278 502,392.21 533,378.448 564,356.692 595,328.501 626,331.422 657,330.853 688,327.65 719,322.075 750,314.148 781,303.466 812,312.901 843,326.745 874,336.816 905,333.66 " />
</g>

<g fill="none" stroke="#965a16" stroke-opacity="1" stroke-width="2.66667" stroke-linecap="butt" stroke-linejoin="round" transform="matrix(0.75,0,0,0.75,-40.5988,-22.875)"
font-family="Arial" font-size="16" font-weight="400" font-style="normal" 
>
<polyline fill="none" vector-effect="none" points="161,217.092 192,299.729 223,271.1 254,227.838 285,168.595 316,126.63 347,230.972 378,285.118 409,306.199 440,305.439 471,312.33 502,309.468 533,298.565 564,280.684 595,256.739 626,263.087 657,265.659 688,265.427 719,262.717 750,257.546 781,249.283 812,260.418 843,275.641 874,287.144 905,285.642 " />
</g>

<g fill="none" stroke="#85961a" stroke-opacity="1" stroke-width="2.66667" stroke-linecap="butt" stroke-linejoin="round" transform="matrix(0.75,0,0,0.75,-40.5988,-22.875)"
font-family="Arial" font-size="16" font-weight="400" font-style="normal" 
>
<polyline fill="none" vector-effect="none" points="161,216.7 192,305.173 223,292.897 254,266.906 285,224.747 316,199.015 347,321.566 378,391.91 409,422.973 440,426.173 471,432.11 502,425.548 533,409.189 564,384.996 595,354.723 626,355.737 657,353.597 688,349.046 719,342.313 750,333.419 781,321.967 812,330.808 843,344.09 874,353.533 905,349.683 " />
</g>

<g fill="none" stroke="#a89212" stroke-opacity="1" stroke-width="2.66667" stroke-linecap="butt" stroke-linejoin="round" transform="matrix(0.75,0,0,0.75,-40.5988,-22.875)"
font-family="Arial" font-size="16" font-weight="400" font-style="normal" 
>
<polyline fill="none" vector-effect="none" points="161,187.207 192,248.17 223,204.644 254,148.878 285,79.1449 316,45.6304 347,157.209 378,217.509 409,243.715 440,247.383 471,255.284 502,253.593 533,244.151 564,228.081 595,206.31 626,211.74 657,213.402 688,212.177 719,208.352 750,201.915 781,192.669 812,202.712 843,216.716 874,226.778 905,223.208 " />
</g>

<g fill="none" stroke="#a89212" stroke-opacity="1" stroke-width="2.66667" stroke-linecap="butt" stroke-linejoin="miter" stroke-miterlimit="5" transform="matrix(0.75,0,0,0.75,-40.5988,-22.875)"
font-family="Arial" font-size="16" font-weight="400" font-style="normal" 
>
<path vector-effect="none" fill-rule="evenodd" d="M165,187.207 C165,184.998 163.209,183.207 161,183.207 C158.791,183.207 157,184.998 157,187.207 C157,189.417 158.791,191.207 161,191.207 C163.209,191.207 165,189.417 165,187.207 "/>
<path vector-effect="none" fill-rule="evenodd" d="M196,248.17 C196,245.961 194.209,244.17 192,244.17 C189.791,244.17 188,245.961 188,248.17 C188,250.379 189.791,252.17 192,252.17 C194.209,252.17 196,250.379 196,248.17 "/>
<path vector-effect="none" fill-rule="evenodd" d="M227,204.644 C227,202.435 225.209,200.644 223,200.644 C220.791,200.644 219,202.435 219,204.644 C219,206.853 220.791,208.644 223,208.644 C225.209,208.644 227,206.853 227,204.644 "/>
<path vector-effect="none" fill-rule="evenodd" d="M258,148.878 C258,146.669 256.209,144.878 254,144.878 C251.791,144.878 250,146.669 250,148.878 C250,151.087 251.791,152.878 254,152.878 C256.209,152.878 258,151.087 258,148.878 "/>
<path vector-effect="none" fill-rule="evenodd" d="M289,79.1449 C289,76.9357 287.209,75.1449 285,75.1449 C282.791,75.1449 281,76.9357 281,79.1449 C281,81.354 282.791,83.1449 285,83.1449 C287.209,83.1449 289,81.354 289,79.1449 "/>
<path vector-effect="none" fill-rule="evenodd" d="M320,45.6304 C320,43.4212 318.209,41.6304 316,41.6304 C313.791,41.6304 312,43.4212 312,45.6304 C312,47.8395 313.791,49.6304 316,49.6304 C318.209,49.6304 320,47.8395 320,45.6304 "/>
<path vector-effect="none" fill-rule="evenodd" d="M351,157.209 C351,154.999 349.209,153.209 347,153.209 C344.791,153.209 343,154.999 343,157.209 C343,159.418 344.791,161.209 347,161.209 C349.209,161.209 351,159.418 351,157.209 "/>
<path vector-effect="none" fill-rule="evenodd" d="M382,217.509 C382,215.3 380.209,213.509 378,213.509 C375.791,213.509 374,215.3 374,217.509 C374,219.718 375.791,221.509 378,221.509 C380.209,221.509 382,219.718 382,217.509 "/>
<path vector-effect="none" fill-rule="evenodd" d="M413,243.715 C413,241.506 411.209,239.715 409,239.715 C406.791,239.715 405,241.506 405,243.715 C405,245.924 406.791,247.715 409,247.715 C411.209,247.715 413,245.924 413,243.715 "/>
<path vector-effect="none" fill-rule="evenodd" d="M444,247.383 C444,245.174 442.209,243.383 440,243.383 C437.791,243.383 436,245.174 436,247.383 C436,249.592 437.791,251.383 440,251.383 C442.209,251.383 444,249.592 444,247.383 "/>
<path vector-effect="none" fill-rule="evenodd" d="M475,255.284 C475,253.075 473.209,251.284 471,251.284 C468.791,251.284 467,253.075 467,255.284 C467,257.494 468.791,259.284 471,259.284 C473.209,259.284 475,257.494 475,255.284 "/>
<path vector-effect="none" fill-rule="evenodd" d="M506,253.593 C506,251.384 504.209,249.593 502,249.593 C499.791,249.593 498,251.384 498,253.593 C498,255.802 499.791,257.593 502,257.593 C504.209,257.593 506,255.802 506,253.593 "/>
<path vector-effect="none" fill-rule="evenodd" d="M537,244.151 C537,241.942 535.209,240.151 533,240.151 C530.791,240.151 529,241.942 529,244.151 C529,246.361 530.791,248.151 533,248.151 C535.209,248.151 537,246.361 537,244.151 "/>
<path vector-effect="none" fill-rule="evenodd" d="M568,228.081 C568,225.872 566.209,224.081 564,224.081 C561.791,224.081 560,225.872 560,228.081 C560,230.29 561.791,232.081 564,232.081 C566.209,232.081 568,230.29 568,228.081 "/>
<path vector-effect="none" fill-rule="evenodd" d="M599,206.31 C599,204.101 597.209,202.31 595,202.31 C592.791,202.31 591,204.101 591,206.31 C591,208.519 592.791,210.31 595,210.31 C597.209,210.31 599,208.519 599,206.31 "/>
<path vector-effect="none" fill-rule="evenodd" d="M630,211.74 C630,209.531 628.209,207.74 626,207.74 C623.791,207.74 622,209.531 622,211.74 C622,213.949 623.791,215.74 626,215.74 C628.209,215.74 630,213.949 630,211.74 "/>
<path vector-effect="none" fill-rule="evenodd" d="M661,213.402 C661,211.193 659.209,209.402 657,209.402 C654.791,209.402 653,211.193 653,213.402 C653,215.611 654.791,217.402 657,217.402 C659.209,217.402 661,215.611 661,213.402 "/>
<path vector-effect="none" fill-rule="evenodd" d="M692,212.177 C692,209.967 690.209,208.177 688,208.177 C685.791,208.177 684,209.967 684,212.177 C684,214.386 685.791,216.177 688,216.177 C690.209,216.177 692,214.386 692,212.177 "/>
<path vector-effect="none" fill-rule="evenodd" d="M723,208.352 C723,206.143 721.209,204.352 719,204.352 C716.791,204.352 715,206.143 715,208.352 C715,210.561 716.791,212.352 719,212.352 C721.209,212.352 723,210.561 723,208.352 "/>
<path vector-effect="none" fill-rule="evenodd" d="M754,201.915 C754,199.706 752.209,197.915 750,197.915 C747.791,197.915 746,199.706 746,201.915 C746,204.124 747.791,205.915 750,205.915 C752.209,205.915 754,204.124 754,201.915 "/>
<path vector-effect="none" fill-rule="evenodd" d="M785,192.669 C785,190.46 783.209,188.669 781,188.669 C778.791,188.669 777,190.46 777,192.669 C777,194.878 778.791,196.669 781,196.669 C783.209,196.669 785,194.878 785,192.669 "/>
<path vector-effect="none" fill-rule="evenodd" d="M816,202.712 C816,200.502 814.209,198.712 812,198.712 C809.791,198.712 808,200.502 808,202.712 C808,204.921 809.791,206.712 812,206.712 C814.209,206.712 816,204.921 816,202.712 "/>
<path vector-effect="none" fill-rule="evenodd" d="M847,216.716 C847,214.507 845.209,212.716 843,212.716 C840.791,212.716 839,214.507 839,216.716 C839,218.925 840.791,220.716 843,220.716 C845.209,220.716 847,218.925 847,216.716 "/>
<path vector-effect="none" fill-rule="evenodd" d="M878,226.778 C878,224.568 876.209,222.778 874,222.778 C871.791,222.778 870,224.568 870,226.778 C870,228.987 871.791,230.778 874,230.778 C876.209,230.778 878,228.987 878,226.778 "/>
<path vector-effect="none" fill-rule="evenodd" d="M909,223.208 C909,220.998 907.209,219.208 905,219.208 C902.791,219.208 901,220.998 901,223.208 C901,225.417 902.791,227.208 905,227.208 C907.209,227.208 909,225.417 909,223.208 "/>
</g>

<g fill="#c0c7cd" fill-opacity="0.701961" stroke="#c0c7cd" stroke-opacity="0.701961" stroke-dasharray="1,3" stroke-dashoffset="0" stroke-width="1.33333" stroke-linecap="butt" stroke-linejoin="round" transform="matrix(0.75,0,0,0.75,-40.5988,-22.875)"
font-family="Arial" font-size="16" font-weight="400" font-style="normal" 
>
<polyline fill="none" vector-effect="none" points="130,244.5 905,244.5 " />
</g>

<g fill="#5286d2" fill-opacity="1" stroke="#5286d2" stroke-opacity="1" stroke-width="2.66667" stroke-linecap="butt" stroke-linejoin="round" transform="matrix(0.75,0,0,0.75,-40.5988,-22.875)"
font-family="Arial" font-size="16" font-weight="400" font-style="normal" 
>
<polyline fill="none" vector-effect="none" points="159,495 199,495 " />
</g>

<g fill="#965a16" fill-opacity="1" stroke="#965a16" stroke-opacity="1" stroke-width="2.66667" stroke-linecap="butt" stroke-linejoin="round" transform="matrix(0.75,0,0,0.75,-40.5988,-22.875)"
font-family="Arial" font-size="16" font-weight="400" font-style="normal" 
>
<polyline fill="none" vector-effect="none" points="267,495 307,495 " />
</g>

<g fill="#85961a" fill-opacity="1" stroke="#85961a" stroke-opacity="1" stroke-width="2.66667" stroke-linecap="butt" stroke-linejoin="round" transform="matrix(0.75,0,0,0.75,-40.5988,-22.875)"
font-family="Arial" font-size="16" font-weight="400" font-style="normal" 
>
<polyline fill="none" vector-effect="none" points="427,495 467,495 " />
</g>

<g fill="#a89212" fill-opacity="1" stroke="#a89212" stroke-opacity="1" stroke-width="2.66667" stroke-linecap="butt" stroke-linejoin="round" transform="matrix(0.75,0,0,0.75,-40.5988,-22.875)"
font-family="Arial" font-size="16" font-weight="400" font-style="normal" 
>
<polyline fill="none" vector-effect="none" points="627,495 667,495 " />
</g>

<g fill="none" stroke="#a89212" stroke-opacity="1" stroke-width="2.66667" stroke-linecap="butt" stroke-linejoin="miter" stroke-miterlimit="5" transform="matrix(0.75,0,0,0.75,-40.5988,-22.875)"
font-family="Arial" font-size="16" font-weight="400" font-style="normal" 
>
<path vector-effect="none" fill-rule="evenodd" d="M651,495 C651,492.791 649.209,491 647,491 C644.791,491 643,492.791 643,495 C643,497.209 644.791,499 647,499 C649.209,499 651,497.209 651,495 "/>
</g>

<g fill="#212121" fill-opacity="1" stroke="#212121" stroke-opacity="1" stroke-width="1" stroke-linecap="square" stroke-linejoin="bevel" transform="matrix(0.75,0,0,0.75,110.901,352.125)"
font-family="Arial" font-size="14" font-weight="400" font-style="normal" 
>
<text fill="#212121" fill-opacity="1" stroke="none" xml:space="preserve" x="0" y="0" font-family="Arial" font-size="14" font-weight="400" font-style="normal" 
 >Net Zero</text>
</g>

<g fill="#212121" fill-opacity="1" stroke="#212121" stroke-opacity="1" stroke-width="1" stroke-linecap="square" stroke-linejoin="bevel" transform="matrix(0.75,0,0,0.75,191.901,352.125)"
font-family="Arial" font-size="14" font-weight="400" font-style="normal" 
>
<text fill="#212121" fill-opacity="1" stroke="none" xml:space="preserve" x="0" y="0" font-family="Arial" font-size="14" font-weight="400" font-style="normal" 
 >Net Zero subsidy</text>
</g>

<g fill="#212121" fill-opacity="1" stroke="#212121" stroke-opacity="1" stroke-width="1" stroke-linecap="square" stroke-linejoin="bevel" transform="matrix(0.75,0,0,0.75,311.901,352.125)"
font-family="Arial" font-size="14" font-weight="400" font-style="normal" 
>
<text fill="#212121" fill-opacity="1" stroke="none" xml:space="preserve" x="0" y="0" font-family="Arial" font-size="14" font-weight="400" font-style="normal" 
 >Net Zero direct subsidy</text>
</g>

<g fill="#212121" fill-opacity="1" stroke="#212121" stroke-opacity="1" stroke-width="1" stroke-linecap="square" stroke-linejoin="bevel" transform="matrix(0.75,0,0,0.75,461.901,352.125)"
font-family="Arial" font-size="14" font-weight="400" font-style="normal" 
>
<text fill="#212121" fill-opacity="1" stroke="none" xml:space="preserve" x="0" y="0" font-family="Arial" font-size="14" font-weight="400" font-style="normal" 
 >Net Zero GF C + EE + subsidies</text>
</g>
</g>
</svg>
