<?xml version="1.0" encoding="UTF-8" standalone="no"?>
<svg width="230.364mm" height="125.589mm"
 viewBox="0 0 653 356"
 xmlns="http://www.w3.org/2000/svg" xmlns:xlink="http://www.w3.org/1999/xlink"  version="1.2" baseProfile="tiny">
<title>Qt SVG Document</title>
<desc>MATLAB, The MathWorks, Inc. Version 25.2.0.3123386 R2025b Update 3</desc>
<defs>
</defs>
<g fill="none" stroke="black" stroke-width="1" fill-rule="evenodd" stroke-linecap="square" stroke-linejoin="bevel" >

<g fill="#ffffff" fill-opacity="1" stroke="none" transform="matrix(0.75,0,0,0.75,-40.5988,-22.875)"
font-family="MS Shell Dlg 2" font-size="8.25" font-weight="400" font-style="normal" 
>
<path vector-effect="none" fill-rule="evenodd" d="M53,29 L924,29 L924,505 L53,505 L53,29"/>
</g>

<g fill="#ffffff" fill-opacity="1" stroke="none" transform="matrix(7.5e-05,0,0,7.5e-05,-40.5988,-22.875)"
font-family="MS Shell Dlg 2" font-size="8.25" font-weight="400" font-style="normal" 
>
<path vector-effect="none" fill-rule="evenodd" d="M1.3e+06,380000 L1.3e+06,4.51e+06 L9.05e+06,4.51e+06 L9.05e+06,380000 L1.3e+06,380000"/>
</g>

<g fill="#212121" fill-opacity="0.14902" stroke="#212121" stroke-opacity="0.14902" stroke-width="0.666667" stroke-linecap="butt" stroke-linejoin="round" transform="matrix(0.75,0,0,0.75,-40.5988,-22.875)"
font-family="MS Shell Dlg 2" font-size="8.25" font-weight="400" font-style="normal" 
>
<polyline fill="none" vector-effect="none" points="130,38 130,451 " />
<polyline fill="none" vector-effect="none" points="285,38 285,451 " />
<polyline fill="none" vector-effect="none" points="440,38 440,451 " />
<polyline fill="none" vector-effect="none" points="595,38 595,451 " />
<polyline fill="none" vector-effect="none" points="750,38 750,451 " />
<polyline fill="none" vector-effect="none" points="905,38 905,451 " />
<polyline fill="none" vector-effect="none" points="130,451 905,451 " />
<polyline fill="none" vector-effect="none" points="130,409.7 905,409.7 " />
<polyline fill="none" vector-effect="none" points="130,368.4 905,368.4 " />
<polyline fill="none" vector-effect="none" points="130,327.1 905,327.1 " />
<polyline fill="none" vector-effect="none" points="130,285.8 905,285.8 " />
<polyline fill="none" vector-effect="none" points="130,244.5 905,244.5 " />
<polyline fill="none" vector-effect="none" points="130,203.2 905,203.2 " />
<polyline fill="none" vector-effect="none" points="130,161.9 905,161.9 " />
<polyline fill="none" vector-effect="none" points="130,120.6 905,120.6 " />
<polyline fill="none" vector-effect="none" points="130,79.3 905,79.3 " />
<polyline fill="none" vector-effect="none" points="130,38 905,38 " />
</g>

<g fill="#212121" fill-opacity="1" stroke="#212121" stroke-opacity="1" stroke-width="0.666667" stroke-linecap="square" stroke-linejoin="round" transform="matrix(0.75,0,0,0.75,-40.5988,-22.875)"
font-family="MS Shell Dlg 2" font-size="8.25" font-weight="400" font-style="normal" 
>
<polyline fill="none" vector-effect="none" points="130,451 905,451 " />
<polyline fill="none" vector-effect="none" points="130,451 130,443.25 " />
<polyline fill="none" vector-effect="none" points="285,451 285,443.25 " />
<polyline fill="none" vector-effect="none" points="440,451 440,443.25 " />
<polyline fill="none" vector-effect="none" points="595,451 595,443.25 " />
<polyline fill="none" vector-effect="none" points="750,451 750,443.25 " />
<polyline fill="none" vector-effect="none" points="905,451 905,443.25 " />
</g>

<g fill="#212121" fill-opacity="1" stroke="#212121" stroke-opacity="1" stroke-width="1" stroke-linecap="square" stroke-linejoin="bevel" transform="matrix(0.75,0,0,0.75,43.4012,331.025)"
font-family="Arial" font-size="16" font-weight="400" font-style="normal" 
>
<text fill="#212121" fill-opacity="1" stroke="none" xml:space="preserve" x="0" y="0" font-family="Arial" font-size="16" font-weight="400" font-style="normal" 
 >2025</text>
</g>

<g fill="#212121" fill-opacity="1" stroke="#212121" stroke-opacity="1" stroke-width="1" stroke-linecap="square" stroke-linejoin="bevel" transform="matrix(0.75,0,0,0.75,159.651,331.025)"
font-family="Arial" font-size="16" font-weight="400" font-style="normal" 
>
<text fill="#212121" fill-opacity="1" stroke="none" xml:space="preserve" x="0" y="0" font-family="Arial" font-size="16" font-weight="400" font-style="normal" 
 >2030</text>
</g>

<g fill="#212121" fill-opacity="1" stroke="#212121" stroke-opacity="1" stroke-width="1" stroke-linecap="square" stroke-linejoin="bevel" transform="matrix(0.75,0,0,0.75,275.901,331.025)"
font-family="Arial" font-size="16" font-weight="400" font-style="normal" 
>
<text fill="#212121" fill-opacity="1" stroke="none" xml:space="preserve" x="0" y="0" font-family="Arial" font-size="16" font-weight="400" font-style="normal" 
 >2035</text>
</g>

<g fill="#212121" fill-opacity="1" stroke="#212121" stroke-opacity="1" stroke-width="1" stroke-linecap="square" stroke-linejoin="bevel" transform="matrix(0.75,0,0,0.75,392.151,331.025)"
font-family="Arial" font-size="16" font-weight="400" font-style="normal" 
>
<text fill="#212121" fill-opacity="1" stroke="none" xml:space="preserve" x="0" y="0" font-family="Arial" font-size="16" font-weight="400" font-style="normal" 
 >2040</text>
</g>

<g fill="#212121" fill-opacity="1" stroke="#212121" stroke-opacity="1" stroke-width="1" stroke-linecap="square" stroke-linejoin="bevel" transform="matrix(0.75,0,0,0.75,508.401,331.025)"
font-family="Arial" font-size="16" font-weight="400" font-style="normal" 
>
<text fill="#212121" fill-opacity="1" stroke="none" xml:space="preserve" x="0" y="0" font-family="Arial" font-size="16" font-weight="400" font-style="normal" 
 >2045</text>
</g>

<g fill="#212121" fill-opacity="1" stroke="#212121" stroke-opacity="1" stroke-width="1" stroke-linecap="square" stroke-linejoin="bevel" transform="matrix(0.75,0,0,0.75,624.651,331.025)"
font-family="Arial" font-size="16" font-weight="400" font-style="normal" 
>
<text fill="#212121" fill-opacity="1" stroke="none" xml:space="preserve" x="0" y="0" font-family="Arial" font-size="16" font-weight="400" font-style="normal" 
 >2050</text>
</g>

<g fill="#212121" fill-opacity="1" stroke="#212121" stroke-opacity="1" stroke-width="1" stroke-linecap="square" stroke-linejoin="bevel" transform="matrix(0,-0.75,0.75,0,10.5,297.375)"
font-family="Arial" font-size="17" font-weight="400" font-style="normal" 
>
<text fill="#212121" fill-opacity="1" stroke="none" xml:space="preserve" x="0" y="0" font-family="Arial" font-size="17" font-weight="400" font-style="normal" 
 >Housing Investment Share Deviation vs Baseline</text>
</g>

<g fill="#212121" fill-opacity="1" stroke="#212121" stroke-opacity="1" stroke-width="1" stroke-linecap="square" stroke-linejoin="bevel" transform="matrix(0,-0.75,0.75,0,25.5,189.75)"
font-family="Arial" font-size="17" font-weight="400" font-style="normal" 
>
<text fill="#212121" fill-opacity="1" stroke="none" xml:space="preserve" x="0" y="0" font-family="Arial" font-size="17" font-weight="400" font-style="normal" 
 >pp of GDP</text>
</g>

<g fill="#212121" fill-opacity="1" stroke="#212121" stroke-opacity="1" stroke-width="0.666667" stroke-linecap="square" stroke-linejoin="round" transform="matrix(0.75,0,0,0.75,-40.5988,-22.875)"
font-family="Arial" font-size="17" font-weight="400" font-style="normal" 
>
<polyline fill="none" vector-effect="none" points="130,451 130,38 " />
<polyline fill="none" vector-effect="none" points="130,451 137.75,451 " />
<polyline fill="none" vector-effect="none" points="130,409.7 137.75,409.7 " />
<polyline fill="none" vector-effect="none" points="130,368.4 137.75,368.4 " />
<polyline fill="none" vector-effect="none" points="130,327.1 137.75,327.1 " />
<polyline fill="none" vector-effect="none" points="130,285.8 137.75,285.8 " />
<polyline fill="none" vector-effect="none" points="130,244.5 137.75,244.5 " />
<polyline fill="none" vector-effect="none" points="130,203.2 137.75,203.2 " />
<polyline fill="none" vector-effect="none" points="130,161.9 137.75,161.9 " />
<polyline fill="none" vector-effect="none" points="130,120.6 137.75,120.6 " />
<polyline fill="none" vector-effect="none" points="130,79.3 137.75,79.3 " />
<polyline fill="none" vector-effect="none" points="130,38 137.75,38 " />
</g>

<g fill="#212121" fill-opacity="1" stroke="#212121" stroke-opacity="1" stroke-width="1" stroke-linecap="square" stroke-linejoin="bevel" transform="matrix(0.75,0,0,0.75,32.2521,319.5)"
font-family="Arial" font-size="16" font-weight="400" font-style="normal" 
>
<text fill="#212121" fill-opacity="1" stroke="none" xml:space="preserve" x="0" y="0" font-family="Arial" font-size="16" font-weight="400" font-style="normal" 
 >-1.2</text>
</g>

<g fill="#212121" fill-opacity="1" stroke="#212121" stroke-opacity="1" stroke-width="1" stroke-linecap="square" stroke-linejoin="bevel" transform="matrix(0.75,0,0,0.75,42.0021,288.525)"
font-family="Arial" font-size="16" font-weight="400" font-style="normal" 
>
<text fill="#212121" fill-opacity="1" stroke="none" xml:space="preserve" x="0" y="0" font-family="Arial" font-size="16" font-weight="400" font-style="normal" 
 >-1</text>
</g>

<g fill="#212121" fill-opacity="1" stroke="#212121" stroke-opacity="1" stroke-width="1" stroke-linecap="square" stroke-linejoin="bevel" transform="matrix(0.75,0,0,0.75,32.2521,257.55)"
font-family="Arial" font-size="16" font-weight="400" font-style="normal" 
>
<text fill="#212121" fill-opacity="1" stroke="none" xml:space="preserve" x="0" y="0" font-family="Arial" font-size="16" font-weight="400" font-style="normal" 
 >-0.8</text>
</g>

<g fill="#212121" fill-opacity="1" stroke="#212121" stroke-opacity="1" stroke-width="1" stroke-linecap="square" stroke-linejoin="bevel" transform="matrix(0.75,0,0,0.75,32.2521,226.575)"
font-family="Arial" font-size="16" font-weight="400" font-style="normal" 
>
<text fill="#212121" fill-opacity="1" stroke="none" xml:space="preserve" x="0" y="0" font-family="Arial" font-size="16" font-weight="400" font-style="normal" 
 >-0.6</text>
</g>

<g fill="#212121" fill-opacity="1" stroke="#212121" stroke-opacity="1" stroke-width="1" stroke-linecap="square" stroke-linejoin="bevel" transform="matrix(0.75,0,0,0.75,32.2521,195.6)"
font-family="Arial" font-size="16" font-weight="400" font-style="normal" 
>
<text fill="#212121" fill-opacity="1" stroke="none" xml:space="preserve" x="0" y="0" font-family="Arial" font-size="16" font-weight="400" font-style="normal" 
 >-0.4</text>
</g>

<g fill="#212121" fill-opacity="1" stroke="#212121" stroke-opacity="1" stroke-width="1" stroke-linecap="square" stroke-linejoin="bevel" transform="matrix(0.75,0,0,0.75,32.2521,164.625)"
font-family="Arial" font-size="16" font-weight="400" font-style="normal" 
>
<text fill="#212121" fill-opacity="1" stroke="none" xml:space="preserve" x="0" y="0" font-family="Arial" font-size="16" font-weight="400" font-style="normal" 
 >-0.2</text>
</g>

<g fill="#212121" fill-opacity="1" stroke="#212121" stroke-opacity="1" stroke-width="1" stroke-linecap="square" stroke-linejoin="bevel" transform="matrix(0.75,0,0,0.75,45.7521,133.65)"
font-family="Arial" font-size="16" font-weight="400" font-style="normal" 
>
<text fill="#212121" fill-opacity="1" stroke="none" xml:space="preserve" x="0" y="0" font-family="Arial" font-size="16" font-weight="400" font-style="normal" 
 >0</text>
</g>

<g fill="#212121" fill-opacity="1" stroke="#212121" stroke-opacity="1" stroke-width="1" stroke-linecap="square" stroke-linejoin="bevel" transform="matrix(0.75,0,0,0.75,36.0021,102.675)"
font-family="Arial" font-size="16" font-weight="400" font-style="normal" 
>
<text fill="#212121" fill-opacity="1" stroke="none" xml:space="preserve" x="0" y="0" font-family="Arial" font-size="16" font-weight="400" font-style="normal" 
 >0.2</text>
</g>

<g fill="#212121" fill-opacity="1" stroke="#212121" stroke-opacity="1" stroke-width="1" stroke-linecap="square" stroke-linejoin="bevel" transform="matrix(0.75,0,0,0.75,36.0021,71.7)"
font-family="Arial" font-size="16" font-weight="400" font-style="normal" 
>
<text fill="#212121" fill-opacity="1" stroke="none" xml:space="preserve" x="0" y="0" font-family="Arial" font-size="16" font-weight="400" font-style="normal" 
 >0.4</text>
</g>

<g fill="#212121" fill-opacity="1" stroke="#212121" stroke-opacity="1" stroke-width="1" stroke-linecap="square" stroke-linejoin="bevel" transform="matrix(0.75,0,0,0.75,36.0021,40.725)"
font-family="Arial" font-size="16" font-weight="400" font-style="normal" 
>
<text fill="#212121" fill-opacity="1" stroke="none" xml:space="preserve" x="0" y="0" font-family="Arial" font-size="16" font-weight="400" font-style="normal" 
 >0.6</text>
</g>

<g fill="#212121" fill-opacity="1" stroke="#212121" stroke-opacity="1" stroke-width="1" stroke-linecap="square" stroke-linejoin="bevel" transform="matrix(0.75,0,0,0.75,36.0021,9.75)"
font-family="Arial" font-size="16" font-weight="400" font-style="normal" 
>
<text fill="#212121" fill-opacity="1" stroke="none" xml:space="preserve" x="0" y="0" font-family="Arial" font-size="16" font-weight="400" font-style="normal" 
 >0.8</text>
</g>

<g fill="none" stroke="#5286d2" stroke-opacity="1" stroke-width="2.66667" stroke-linecap="butt" stroke-linejoin="round" transform="matrix(0.75,0,0,0.75,-40.5988,-22.875)"
font-family="Arial" font-size="16" font-weight="400" font-style="normal" 
>
<polyline fill="none" vector-effect="none" points="161,156.097 192,406.286 223,315.603 254,219.131 285,84.0012 316,174.584 347,322.857 378,388.533 409,402.912 440,383.287 471,350.623 502,313.754 533,279.221 564,243.914 595,187.678 626,193.436 657,201.188 688,204.503 719,203.675 750,196.632 781,178.071 812,193.557 843,215.346 874,233.348 905,219.973 " />
</g>

<g fill="none" stroke="#965a16" stroke-opacity="1" stroke-width="2.66667" stroke-linecap="butt" stroke-linejoin="round" transform="matrix(0.75,0,0,0.75,-40.5988,-22.875)"
font-family="Arial" font-size="16" font-weight="400" font-style="normal" 
>
<polyline fill="none" vector-effect="none" points="161,450.269 192,251.2 223,173.857 254,105.107 285,50.9399 316,411.85 347,393.928 378,375.378 409,343.389 440,310.977 471,261.91 502,224.294 533,199.395 564,183.556 595,159.619 626,170.628 657,182.507 688,189.073 719,192.063 750,192.155 781,189.724 812,204.079 843,218.839 874,231.393 905,217.254 " />
</g>

<g fill="none" stroke="#85961a" stroke-opacity="1" stroke-width="2.66667" stroke-linecap="butt" stroke-linejoin="round" transform="matrix(0.75,0,0,0.75,-40.5988,-22.875)"
font-family="Arial" font-size="16" font-weight="400" font-style="normal" 
>
<polyline fill="none" vector-effect="none" points="161,179.475 192,334.56 223,270.702 254,208.444 285,118.181 316,214.598 347,272.399 378,308.042 409,323.577 440,319.853 471,299.969 502,276.358 533,254.468 564,231.094 595,186.528 626,189.134 657,196.059 688,199.587 719,199.795 750,194.924 781,180.607 812,191.255 843,208.735 874,225.746 905,213.799 " />
</g>

<g fill="none" stroke="#a89212" stroke-opacity="1" stroke-width="2.66667" stroke-linecap="butt" stroke-linejoin="round" transform="matrix(0.75,0,0,0.75,-40.5988,-22.875)"
font-family="Arial" font-size="16" font-weight="400" font-style="normal" 
>
<polyline fill="none" vector-effect="none" points="161,239.314 192,231.685 223,164.857 254,114.342 285,117.699 316,441.067 347,395.919 378,366.228 409,328.615 440,292.612 471,246.774 502,211.798 533,188.971 564,175.577 595,158.319 626,169.193 657,179.964 688,186.126 719,189.225 750,189.826 781,188.249 812,204.168 843,222.728 874,243.818 905,249.985 " />
</g>

<g fill="none" stroke="#a89212" stroke-opacity="1" stroke-width="2.66667" stroke-linecap="butt" stroke-linejoin="miter" stroke-miterlimit="5" transform="matrix(0.75,0,0,0.75,-40.5988,-22.875)"
font-family="Arial" font-size="16" font-weight="400" font-style="normal" 
>
<path vector-effect="none" fill-rule="evenodd" d="M165,239.314 C165,237.104 163.209,235.314 161,235.314 C158.791,235.314 157,237.104 157,239.314 C157,241.523 158.791,243.314 161,243.314 C163.209,243.314 165,241.523 165,239.314 "/>
<path vector-effect="none" fill-rule="evenodd" d="M196,231.685 C196,229.476 194.209,227.685 192,227.685 C189.791,227.685 188,229.476 188,231.685 C188,233.894 189.791,235.685 192,235.685 C194.209,235.685 196,233.894 196,231.685 "/>
<path vector-effect="none" fill-rule="evenodd" d="M227,164.857 C227,162.648 225.209,160.857 223,160.857 C220.791,160.857 219,162.648 219,164.857 C219,167.066 220.791,168.857 223,168.857 C225.209,168.857 227,167.066 227,164.857 "/>
<path vector-effect="none" fill-rule="evenodd" d="M258,114.342 C258,112.133 256.209,110.342 254,110.342 C251.791,110.342 250,112.133 250,114.342 C250,116.551 251.791,118.342 254,118.342 C256.209,118.342 258,116.551 258,114.342 "/>
<path vector-effect="none" fill-rule="evenodd" d="M289,117.699 C289,115.49 287.209,113.699 285,113.699 C282.791,113.699 281,115.49 281,117.699 C281,119.908 282.791,121.699 285,121.699 C287.209,121.699 289,119.908 289,117.699 "/>
<path vector-effect="none" fill-rule="evenodd" d="M320,441.067 C320,438.857 318.209,437.067 316,437.067 C313.791,437.067 312,438.857 312,441.067 C312,443.276 313.791,445.067 316,445.067 C318.209,445.067 320,443.276 320,441.067 "/>
<path vector-effect="none" fill-rule="evenodd" d="M351,395.919 C351,393.71 349.209,391.919 347,391.919 C344.791,391.919 343,393.71 343,395.919 C343,398.128 344.791,399.919 347,399.919 C349.209,399.919 351,398.128 351,395.919 "/>
<path vector-effect="none" fill-rule="evenodd" d="M382,366.228 C382,364.018 380.209,362.228 378,362.228 C375.791,362.228 374,364.018 374,366.228 C374,368.437 375.791,370.228 378,370.228 C380.209,370.228 382,368.437 382,366.228 "/>
<path vector-effect="none" fill-rule="evenodd" d="M413,328.615 C413,326.406 411.209,324.615 409,324.615 C406.791,324.615 405,326.406 405,328.615 C405,330.824 406.791,332.615 409,332.615 C411.209,332.615 413,330.824 413,328.615 "/>
<path vector-effect="none" fill-rule="evenodd" d="M444,292.612 C444,290.403 442.209,288.612 440,288.612 C437.791,288.612 436,290.403 436,292.612 C436,294.821 437.791,296.612 440,296.612 C442.209,296.612 444,294.821 444,292.612 "/>
<path vector-effect="none" fill-rule="evenodd" d="M475,246.774 C475,244.565 473.209,242.774 471,242.774 C468.791,242.774 467,244.565 467,246.774 C467,248.983 468.791,250.774 471,250.774 C473.209,250.774 475,248.983 475,246.774 "/>
<path vector-effect="none" fill-rule="evenodd" d="M506,211.798 C506,209.589 504.209,207.798 502,207.798 C499.791,207.798 498,209.589 498,211.798 C498,214.008 499.791,215.798 502,215.798 C504.209,215.798 506,214.008 506,211.798 "/>
<path vector-effect="none" fill-rule="evenodd" d="M537,188.971 C537,186.762 535.209,184.971 533,184.971 C530.791,184.971 529,186.762 529,188.971 C529,191.181 530.791,192.971 533,192.971 C535.209,192.971 537,191.181 537,188.971 "/>
<path vector-effect="none" fill-rule="evenodd" d="M568,175.577 C568,173.368 566.209,171.577 564,171.577 C561.791,171.577 560,173.368 560,175.577 C560,177.787 561.791,179.577 564,179.577 C566.209,179.577 568,177.787 568,175.577 "/>
<path vector-effect="none" fill-rule="evenodd" d="M599,158.319 C599,156.11 597.209,154.319 595,154.319 C592.791,154.319 591,156.11 591,158.319 C591,160.528 592.791,162.319 595,162.319 C597.209,162.319 599,160.528 599,158.319 "/>
<path vector-effect="none" fill-rule="evenodd" d="M630,169.193 C630,166.984 628.209,165.193 626,165.193 C623.791,165.193 622,166.984 622,169.193 C622,171.402 623.791,173.193 626,173.193 C628.209,173.193 630,171.402 630,169.193 "/>
<path vector-effect="none" fill-rule="evenodd" d="M661,179.964 C661,177.755 659.209,175.964 657,175.964 C654.791,175.964 653,177.755 653,179.964 C653,182.173 654.791,183.964 657,183.964 C659.209,183.964 661,182.173 661,179.964 "/>
<path vector-effect="none" fill-rule="evenodd" d="M692,186.126 C692,183.917 690.209,182.126 688,182.126 C685.791,182.126 684,183.917 684,186.126 C684,188.335 685.791,190.126 688,190.126 C690.209,190.126 692,188.335 692,186.126 "/>
<path vector-effect="none" fill-rule="evenodd" d="M723,189.225 C723,187.016 721.209,185.225 719,185.225 C716.791,185.225 715,187.016 715,189.225 C715,191.435 716.791,193.225 719,193.225 C721.209,193.225 723,191.435 723,189.225 "/>
<path vector-effect="none" fill-rule="evenodd" d="M754,189.826 C754,187.617 752.209,185.826 750,185.826 C747.791,185.826 746,187.617 746,189.826 C746,192.035 747.791,193.826 750,193.826 C752.209,193.826 754,192.035 754,189.826 "/>
<path vector-effect="none" fill-rule="evenodd" d="M785,188.249 C785,186.04 783.209,184.249 781,184.249 C778.791,184.249 777,186.04 777,188.249 C777,190.458 778.791,192.249 781,192.249 C783.209,192.249 785,190.458 785,188.249 "/>
<path vector-effect="none" fill-rule="evenodd" d="M816,204.168 C816,201.959 814.209,200.168 812,200.168 C809.791,200.168 808,201.959 808,204.168 C808,206.377 809.791,208.168 812,208.168 C814.209,208.168 816,206.377 816,204.168 "/>
<path vector-effect="none" fill-rule="evenodd" d="M847,222.728 C847,220.518 845.209,218.728 843,218.728 C840.791,218.728 839,220.518 839,222.728 C839,224.937 840.791,226.728 843,226.728 C845.209,226.728 847,224.937 847,222.728 "/>
<path vector-effect="none" fill-rule="evenodd" d="M878,243.818 C878,241.609 876.209,239.818 874,239.818 C871.791,239.818 870,241.609 870,243.818 C870,246.027 871.791,247.818 874,247.818 C876.209,247.818 878,246.027 878,243.818 "/>
<path vector-effect="none" fill-rule="evenodd" d="M909,249.985 C909,247.776 907.209,245.985 905,245.985 C902.791,245.985 901,247.776 901,249.985 C901,252.195 902.791,253.985 905,253.985 C907.209,253.985 909,252.195 909,249.985 "/>
</g>

<g fill="#c0c7cd" fill-opacity="0.701961" stroke="#c0c7cd" stroke-opacity="0.701961" stroke-dasharray="1,3" stroke-dashoffset="0" stroke-width="1.33333" stroke-linecap="butt" stroke-linejoin="round" transform="matrix(0.75,0,0,0.75,-40.5988,-22.875)"
font-family="Arial" font-size="16" font-weight="400" font-style="normal" 
>
<polyline fill="none" vector-effect="none" points="130,203.2 905,203.2 " />
</g>

<g fill="#5286d2" fill-opacity="1" stroke="#5286d2" stroke-opacity="1" stroke-width="2.66667" stroke-linecap="butt" stroke-linejoin="round" transform="matrix(0.75,0,0,0.75,-40.5988,-22.875)"
font-family="Arial" font-size="16" font-weight="400" font-style="normal" 
>
<polyline fill="none" vector-effect="none" points="159,495 199,495 " />
</g>

<g fill="#965a16" fill-opacity="1" stroke="#965a16" stroke-opacity="1" stroke-width="2.66667" stroke-linecap="butt" stroke-linejoin="round" transform="matrix(0.75,0,0,0.75,-40.5988,-22.875)"
font-family="Arial" font-size="16" font-weight="400" font-style="normal" 
>
<polyline fill="none" vector-effect="none" points="267,495 307,495 " />
</g>

<g fill="#85961a" fill-opacity="1" stroke="#85961a" stroke-opacity="1" stroke-width="2.66667" stroke-linecap="butt" stroke-linejoin="round" transform="matrix(0.75,0,0,0.75,-40.5988,-22.875)"
font-family="Arial" font-size="16" font-weight="400" font-style="normal" 
>
<polyline fill="none" vector-effect="none" points="427,495 467,495 " />
</g>

<g fill="#a89212" fill-opacity="1" stroke="#a89212" stroke-opacity="1" stroke-width="2.66667" stroke-linecap="butt" stroke-linejoin="round" transform="matrix(0.75,0,0,0.75,-40.5988,-22.875)"
font-family="Arial" font-size="16" font-weight="400" font-style="normal" 
>
<polyline fill="none" vector-effect="none" points="627,495 667,495 " />
</g>

<g fill="none" stroke="#a89212" stroke-opacity="1" stroke-width="2.66667" stroke-linecap="butt" stroke-linejoin="miter" stroke-miterlimit="5" transform="matrix(0.75,0,0,0.75,-40.5988,-22.875)"
font-family="Arial" font-size="16" font-weight="400" font-style="normal" 
>
<path vector-effect="none" fill-rule="evenodd" d="M651,495 C651,492.791 649.209,491 647,491 C644.791,491 643,492.791 643,495 C643,497.209 644.791,499 647,499 C649.209,499 651,497.209 651,495 "/>
</g>

<g fill="#212121" fill-opacity="1" stroke="#212121" stroke-opacity="1" stroke-width="1" stroke-linecap="square" stroke-linejoin="bevel" transform="matrix(0.75,0,0,0.75,110.901,352.125)"
font-family="Arial" font-size="14" font-weight="400" font-style="normal" 
>
<text fill="#212121" fill-opacity="1" stroke="none" xml:space="preserve" x="0" y="0" font-family="Arial" font-size="14" font-weight="400" font-style="normal" 
 >Net Zero</text>
</g>

<g fill="#212121" fill-opacity="1" stroke="#212121" stroke-opacity="1" stroke-width="1" stroke-linecap="square" stroke-linejoin="bevel" transform="matrix(0.75,0,0,0.75,191.901,352.125)"
font-family="Arial" font-size="14" font-weight="400" font-style="normal" 
>
<text fill="#212121" fill-opacity="1" stroke="none" xml:space="preserve" x="0" y="0" font-family="Arial" font-size="14" font-weight="400" font-style="normal" 
 >Net Zero subsidy</text>
</g>

<g fill="#212121" fill-opacity="1" stroke="#212121" stroke-opacity="1" stroke-width="1" stroke-linecap="square" stroke-linejoin="bevel" transform="matrix(0.75,0,0,0.75,311.901,352.125)"
font-family="Arial" font-size="14" font-weight="400" font-style="normal" 
>
<text fill="#212121" fill-opacity="1" stroke="none" xml:space="preserve" x="0" y="0" font-family="Arial" font-size="14" font-weight="400" font-style="normal" 
 >Net Zero direct subsidy</text>
</g>

<g fill="#212121" fill-opacity="1" stroke="#212121" stroke-opacity="1" stroke-width="1" stroke-linecap="square" stroke-linejoin="bevel" transform="matrix(0.75,0,0,0.75,461.901,352.125)"
font-family="Arial" font-size="14" font-weight="400" font-style="normal" 
>
<text fill="#212121" fill-opacity="1" stroke="none" xml:space="preserve" x="0" y="0" font-family="Arial" font-size="14" font-weight="400" font-style="normal" 
 >Net Zero GF C + EE + subsidies</text>
</g>
</g>
</svg>
