<?xml version="1.0" encoding="UTF-8" standalone="no"?>
<svg width="225.778mm" height="125.942mm"
 viewBox="0 0 640 357"
 xmlns="http://www.w3.org/2000/svg" xmlns:xlink="http://www.w3.org/1999/xlink"  version="1.2" baseProfile="tiny">
<title>Qt SVG Document</title>
<desc>MATLAB, The MathWorks, Inc. Version 25.2.0.3123386 R2025b Update 3</desc>
<defs>
</defs>
<g fill="none" stroke="black" stroke-width="1" fill-rule="evenodd" stroke-linecap="square" stroke-linejoin="bevel" >

<g fill="#ffffff" fill-opacity="1" stroke="none" transform="matrix(0.75,0,0,0.75,-41,-22.125)"
font-family="MS Shell Dlg 2" font-size="8.25" font-weight="400" font-style="normal" 
>
<path vector-effect="none" fill-rule="evenodd" d="M53,28 L908,28 L908,505 L53,505 L53,28"/>
</g>

<g fill="#ffffff" fill-opacity="1" stroke="none" transform="matrix(7.5e-05,0,0,7.5e-05,-41,-22.125)"
font-family="MS Shell Dlg 2" font-size="8.25" font-weight="400" font-style="normal" 
>
<path vector-effect="none" fill-rule="evenodd" d="M1.3e+06,360000 L1.3e+06,4.28e+06 L9.05e+06,4.28e+06 L9.05e+06,360000 L1.3e+06,360000"/>
</g>

<g fill="#212121" fill-opacity="0.14902" stroke="#212121" stroke-opacity="0.14902" stroke-width="0.666667" stroke-linecap="butt" stroke-linejoin="round" transform="matrix(0.75,0,0,0.75,-41,-22.125)"
font-family="MS Shell Dlg 2" font-size="8.25" font-weight="400" font-style="normal" 
>
<polyline fill="none" vector-effect="none" points="206.116,36 206.116,428 " />
<polyline fill="none" vector-effect="none" points="361.808,36 361.808,428 " />
<polyline fill="none" vector-effect="none" points="517.5,36 517.5,428 " />
<polyline fill="none" vector-effect="none" points="673.192,36 673.192,428 " />
<polyline fill="none" vector-effect="none" points="828.884,36 828.884,428 " />
<polyline fill="none" vector-effect="none" points="130,428 905,428 " />
<polyline fill="none" vector-effect="none" points="130,349.6 905,349.6 " />
<polyline fill="none" vector-effect="none" points="130,271.2 905,271.2 " />
<polyline fill="none" vector-effect="none" points="130,192.8 905,192.8 " />
<polyline fill="none" vector-effect="none" points="130,114.4 905,114.4 " />
<polyline fill="none" vector-effect="none" points="130,36 905,36 " />
</g>

<g fill="#212121" fill-opacity="1" stroke="#212121" stroke-opacity="1" stroke-width="0.666667" stroke-linecap="butt" stroke-linejoin="round" transform="matrix(0.75,0,0,0.75,-41,-22.125)"
font-family="MS Shell Dlg 2" font-size="8.25" font-weight="400" font-style="normal" 
>
<polyline fill="none" vector-effect="none" points="130,428 905,428 " />
</g>

<g fill="#5286d2" fill-opacity="1" stroke="none" transform="matrix(7.5e-05,0,0,7.5e-05,-41,-22.125)"
font-family="MS Shell Dlg 2" font-size="8.25" font-weight="400" font-style="normal" 
>
<path vector-effect="none" fill-rule="evenodd" d="M1.57679e+06,1.05426e+06 L1.57679e+06,4.28e+06 L1.85357e+06,4.28e+06 L1.85357e+06,1.05426e+06 L1.57679e+06,1.05426e+06"/>
</g>

<g fill="#5286d2" fill-opacity="1" stroke="none" transform="matrix(7.5e-05,0,0,7.5e-05,-41,-22.125)"
font-family="MS Shell Dlg 2" font-size="8.25" font-weight="400" font-style="normal" 
>
<path vector-effect="none" fill-rule="evenodd" d="M3.13371e+06,1.68363e+06 L3.13371e+06,4.28e+06 L3.41049e+06,4.28e+06 L3.41049e+06,1.68363e+06 L3.13371e+06,1.68363e+06"/>
</g>

<g fill="#5286d2" fill-opacity="1" stroke="none" transform="matrix(7.5e-05,0,0,7.5e-05,-41,-22.125)"
font-family="MS Shell Dlg 2" font-size="8.25" font-weight="400" font-style="normal" 
>
<path vector-effect="none" fill-rule="evenodd" d="M4.69062e+06,2.78138e+06 L4.69062e+06,4.28e+06 L4.96741e+06,4.28e+06 L4.96741e+06,2.78138e+06 L4.69062e+06,2.78138e+06"/>
</g>

<g fill="#5286d2" fill-opacity="1" stroke="none" transform="matrix(7.5e-05,0,0,7.5e-05,-41,-22.125)"
font-family="MS Shell Dlg 2" font-size="8.25" font-weight="400" font-style="normal" 
>
<path vector-effect="none" fill-rule="evenodd" d="M6.24754e+06,3.56573e+06 L6.24754e+06,4.28e+06 L6.52433e+06,4.28e+06 L6.52433e+06,3.56573e+06 L6.24754e+06,3.56573e+06"/>
</g>

<g fill="#5286d2" fill-opacity="1" stroke="none" transform="matrix(7.5e-05,0,0,7.5e-05,-41,-22.125)"
font-family="MS Shell Dlg 2" font-size="8.25" font-weight="400" font-style="normal" 
>
<path vector-effect="none" fill-rule="evenodd" d="M7.80446e+06,3.98269e+06 L7.80446e+06,4.28e+06 L8.08125e+06,4.28e+06 L8.08125e+06,3.98269e+06 L7.80446e+06,3.98269e+06"/>
</g>

<g fill="none" stroke="#212121" stroke-opacity="1" stroke-width="0.666667" stroke-linecap="butt" stroke-linejoin="miter" stroke-miterlimit="5" transform="matrix(0.75,0,0,0.75,-41,-22.125)"
font-family="MS Shell Dlg 2" font-size="8.25" font-weight="400" font-style="normal" 
>
<path vector-effect="none" fill-rule="evenodd" d="M157.679,428 L157.679,105.426 L185.357,105.426 L185.357,428 L157.679,428"/>
<path vector-effect="none" fill-rule="evenodd" d="M313.371,428 L313.371,168.363 L341.049,168.363 L341.049,428 L313.371,428"/>
<path vector-effect="none" fill-rule="evenodd" d="M469.062,428 L469.062,278.138 L496.741,278.138 L496.741,428 L469.062,428"/>
<path vector-effect="none" fill-rule="evenodd" d="M624.754,428 L624.754,356.573 L652.433,356.573 L652.433,428 L624.754,428"/>
<path vector-effect="none" fill-rule="evenodd" d="M780.446,428 L780.446,398.269 L808.125,398.269 L808.125,428 L780.446,428"/>
</g>

<g fill="#d3934b" fill-opacity="1" stroke="none" transform="matrix(7.5e-05,0,0,7.5e-05,-41,-22.125)"
font-family="MS Shell Dlg 2" font-size="8.25" font-weight="400" font-style="normal" 
>
<path vector-effect="none" fill-rule="evenodd" d="M1.92277e+06,845317 L1.92277e+06,4.28e+06 L2.19955e+06,4.28e+06 L2.19955e+06,845317 L1.92277e+06,845317"/>
</g>

<g fill="#d3934b" fill-opacity="1" stroke="none" transform="matrix(7.5e-05,0,0,7.5e-05,-41,-22.125)"
font-family="MS Shell Dlg 2" font-size="8.25" font-weight="400" font-style="normal" 
>
<path vector-effect="none" fill-rule="evenodd" d="M3.47969e+06,1.35494e+06 L3.47969e+06,4.28e+06 L3.75647e+06,4.28e+06 L3.75647e+06,1.35494e+06 L3.47969e+06,1.35494e+06"/>
</g>

<g fill="#d3934b" fill-opacity="1" stroke="none" transform="matrix(7.5e-05,0,0,7.5e-05,-41,-22.125)"
font-family="MS Shell Dlg 2" font-size="8.25" font-weight="400" font-style="normal" 
>
<path vector-effect="none" fill-rule="evenodd" d="M5.03661e+06,2.50731e+06 L5.03661e+06,4.28e+06 L5.31339e+06,4.28e+06 L5.31339e+06,2.50731e+06 L5.03661e+06,2.50731e+06"/>
</g>

<g fill="#d3934b" fill-opacity="1" stroke="none" transform="matrix(7.5e-05,0,0,7.5e-05,-41,-22.125)"
font-family="MS Shell Dlg 2" font-size="8.25" font-weight="400" font-style="normal" 
>
<path vector-effect="none" fill-rule="evenodd" d="M6.59353e+06,3.41385e+06 L6.59353e+06,4.28e+06 L6.87031e+06,4.28e+06 L6.87031e+06,3.41385e+06 L6.59353e+06,3.41385e+06"/>
</g>

<g fill="#d3934b" fill-opacity="1" stroke="none" transform="matrix(7.5e-05,0,0,7.5e-05,-41,-22.125)"
font-family="MS Shell Dlg 2" font-size="8.25" font-weight="400" font-style="normal" 
>
<path vector-effect="none" fill-rule="evenodd" d="M8.15045e+06,3.79331e+06 L8.15045e+06,4.28e+06 L8.42723e+06,4.28e+06 L8.42723e+06,3.79331e+06 L8.15045e+06,3.79331e+06"/>
</g>

<g fill="none" stroke="#212121" stroke-opacity="1" stroke-width="0.666667" stroke-linecap="butt" stroke-linejoin="miter" stroke-miterlimit="5" transform="matrix(0.75,0,0,0.75,-41,-22.125)"
font-family="MS Shell Dlg 2" font-size="8.25" font-weight="400" font-style="normal" 
>
<path vector-effect="none" fill-rule="evenodd" d="M192.277,428 L192.277,84.5318 L219.955,84.5318 L219.955,428 L192.277,428"/>
<path vector-effect="none" fill-rule="evenodd" d="M347.969,428 L347.969,135.494 L375.647,135.494 L375.647,428 L347.969,428"/>
<path vector-effect="none" fill-rule="evenodd" d="M503.661,428 L503.661,250.731 L531.339,250.731 L531.339,428 L503.661,428"/>
<path vector-effect="none" fill-rule="evenodd" d="M659.353,428 L659.353,341.385 L687.031,341.385 L687.031,428 L659.353,428"/>
<path vector-effect="none" fill-rule="evenodd" d="M815.045,428 L815.045,379.331 L842.723,379.331 L842.723,428 L815.045,428"/>
</g>

<g fill="#c1d34f" fill-opacity="1" stroke="none" transform="matrix(7.5e-05,0,0,7.5e-05,-41,-22.125)"
font-family="MS Shell Dlg 2" font-size="8.25" font-weight="400" font-style="normal" 
>
<path vector-effect="none" fill-rule="evenodd" d="M2.26875e+06,1.14019e+06 L2.26875e+06,4.28e+06 L2.54554e+06,4.28e+06 L2.54554e+06,1.14019e+06 L2.26875e+06,1.14019e+06"/>
</g>

<g fill="#c1d34f" fill-opacity="1" stroke="none" transform="matrix(7.5e-05,0,0,7.5e-05,-41,-22.125)"
font-family="MS Shell Dlg 2" font-size="8.25" font-weight="400" font-style="normal" 
>
<path vector-effect="none" fill-rule="evenodd" d="M3.82567e+06,2.1321e+06 L3.82567e+06,4.28e+06 L4.10246e+06,4.28e+06 L4.10246e+06,2.1321e+06 L3.82567e+06,2.1321e+06"/>
</g>

<g fill="#c1d34f" fill-opacity="1" stroke="none" transform="matrix(7.5e-05,0,0,7.5e-05,-41,-22.125)"
font-family="MS Shell Dlg 2" font-size="8.25" font-weight="400" font-style="normal" 
>
<path vector-effect="none" fill-rule="evenodd" d="M5.38259e+06,3.18355e+06 L5.38259e+06,4.28e+06 L5.65938e+06,4.28e+06 L5.65938e+06,3.18355e+06 L5.38259e+06,3.18355e+06"/>
</g>

<g fill="#c1d34f" fill-opacity="1" stroke="none" transform="matrix(7.5e-05,0,0,7.5e-05,-41,-22.125)"
font-family="MS Shell Dlg 2" font-size="8.25" font-weight="400" font-style="normal" 
>
<path vector-effect="none" fill-rule="evenodd" d="M6.93951e+06,3.73209e+06 L6.93951e+06,4.28e+06 L7.21629e+06,4.28e+06 L7.21629e+06,3.73209e+06 L6.93951e+06,3.73209e+06"/>
</g>

<g fill="#c1d34f" fill-opacity="1" stroke="none" transform="matrix(7.5e-05,0,0,7.5e-05,-41,-22.125)"
font-family="MS Shell Dlg 2" font-size="8.25" font-weight="400" font-style="normal" 
>
<path vector-effect="none" fill-rule="evenodd" d="M8.49643e+06,3.95149e+06 L8.49643e+06,4.28e+06 L8.77321e+06,4.28e+06 L8.77321e+06,3.95149e+06 L8.49643e+06,3.95149e+06"/>
</g>

<g fill="none" stroke="#212121" stroke-opacity="1" stroke-width="0.666667" stroke-linecap="butt" stroke-linejoin="miter" stroke-miterlimit="5" transform="matrix(0.75,0,0,0.75,-41,-22.125)"
font-family="MS Shell Dlg 2" font-size="8.25" font-weight="400" font-style="normal" 
>
<path vector-effect="none" fill-rule="evenodd" d="M226.875,428 L226.875,114.019 L254.554,114.019 L254.554,428 L226.875,428"/>
<path vector-effect="none" fill-rule="evenodd" d="M382.567,428 L382.567,213.21 L410.246,213.21 L410.246,428 L382.567,428"/>
<path vector-effect="none" fill-rule="evenodd" d="M538.259,428 L538.259,318.355 L565.938,318.355 L565.938,428 L538.259,428"/>
<path vector-effect="none" fill-rule="evenodd" d="M693.951,428 L693.951,373.209 L721.629,373.209 L721.629,428 L693.951,428"/>
<path vector-effect="none" fill-rule="evenodd" d="M849.643,428 L849.643,395.149 L877.321,395.149 L877.321,428 L849.643,428"/>
</g>

<g fill="#212121" fill-opacity="1" stroke="#212121" stroke-opacity="1" stroke-width="0.666667" stroke-linecap="square" stroke-linejoin="round" transform="matrix(0.75,0,0,0.75,-41,-22.125)"
font-family="MS Shell Dlg 2" font-size="8.25" font-weight="400" font-style="normal" 
>
<polyline fill="none" vector-effect="none" points="130,428 905,428 " />
<polyline fill="none" vector-effect="none" points="206.116,428 206.116,420.25 " />
<polyline fill="none" vector-effect="none" points="361.808,428 361.808,420.25 " />
<polyline fill="none" vector-effect="none" points="517.5,428 517.5,420.25 " />
<polyline fill="none" vector-effect="none" points="673.192,428 673.192,420.25 " />
<polyline fill="none" vector-effect="none" points="828.884,428 828.884,420.25 " />
</g>

<g fill="#212121" fill-opacity="1" stroke="#212121" stroke-opacity="1" stroke-width="1" stroke-linecap="square" stroke-linejoin="bevel" transform="matrix(0.649519,-0.375,0.375,0.649519,79.1159,333.169)"
font-family="Helvetica" font-size="13" font-weight="400" font-style="normal" 
>
<text fill="#212121" fill-opacity="1" stroke="none" xml:space="preserve" x="0" y="0" font-family="Helvetica" font-size="13" font-weight="400" font-style="normal" 
 >2026-2030</text>
</g>

<g fill="#212121" fill-opacity="1" stroke="#212121" stroke-opacity="1" stroke-width="1" stroke-linecap="square" stroke-linejoin="bevel" transform="matrix(0.649519,-0.375,0.375,0.649519,195.885,333.169)"
font-family="Helvetica" font-size="13" font-weight="400" font-style="normal" 
>
<text fill="#212121" fill-opacity="1" stroke="none" xml:space="preserve" x="0" y="0" font-family="Helvetica" font-size="13" font-weight="400" font-style="normal" 
 >2031-2035</text>
</g>

<g fill="#212121" fill-opacity="1" stroke="#212121" stroke-opacity="1" stroke-width="1" stroke-linecap="square" stroke-linejoin="bevel" transform="matrix(0.649519,-0.375,0.375,0.649519,312.654,333.169)"
font-family="Helvetica" font-size="13" font-weight="400" font-style="normal" 
>
<text fill="#212121" fill-opacity="1" stroke="none" xml:space="preserve" x="0" y="0" font-family="Helvetica" font-size="13" font-weight="400" font-style="normal" 
 >2036-2040</text>
</g>

<g fill="#212121" fill-opacity="1" stroke="#212121" stroke-opacity="1" stroke-width="1" stroke-linecap="square" stroke-linejoin="bevel" transform="matrix(0.649519,-0.375,0.375,0.649519,429.423,333.169)"
font-family="Helvetica" font-size="13" font-weight="400" font-style="normal" 
>
<text fill="#212121" fill-opacity="1" stroke="none" xml:space="preserve" x="0" y="0" font-family="Helvetica" font-size="13" font-weight="400" font-style="normal" 
 >2041-2045</text>
</g>

<g fill="#212121" fill-opacity="1" stroke="#212121" stroke-opacity="1" stroke-width="1" stroke-linecap="square" stroke-linejoin="bevel" transform="matrix(0.649519,-0.375,0.375,0.649519,546.192,333.169)"
font-family="Helvetica" font-size="13" font-weight="400" font-style="normal" 
>
<text fill="#212121" fill-opacity="1" stroke="none" xml:space="preserve" x="0" y="0" font-family="Helvetica" font-size="13" font-weight="400" font-style="normal" 
 >2046-2050</text>
</g>

<g fill="#212121" fill-opacity="1" stroke="#212121" stroke-opacity="1" stroke-width="1" stroke-linecap="square" stroke-linejoin="bevel" transform="matrix(0,-0.75,0.75,0,9.00001,246)"
font-family="Helvetica" font-size="14" font-weight="400" font-style="normal" 
>
<text fill="#212121" fill-opacity="1" stroke="none" xml:space="preserve" x="0" y="0" font-family="Helvetica" font-size="14" font-weight="400" font-style="normal" 
 >Investment Share Deviation vs Baseline</text>
</g>

<g fill="#212121" fill-opacity="1" stroke="#212121" stroke-opacity="1" stroke-width="1" stroke-linecap="square" stroke-linejoin="bevel" transform="matrix(0,-0.75,0.75,0,21,211.125)"
font-family="Helvetica" font-size="14" font-weight="400" font-style="normal" 
>
<text fill="#212121" fill-opacity="1" stroke="none" xml:space="preserve" x="0" y="0" font-family="Helvetica" font-size="14" font-weight="400" font-style="normal" 
 >5-year average deviation</text>
</g>

<g fill="#212121" fill-opacity="1" stroke="#212121" stroke-opacity="1" stroke-width="1" stroke-linecap="square" stroke-linejoin="bevel" transform="matrix(0,-0.75,0.75,0,33,176.625)"
font-family="Helvetica" font-size="14" font-weight="400" font-style="normal" 
>
<text fill="#212121" fill-opacity="1" stroke="none" xml:space="preserve" x="0" y="0" font-family="Helvetica" font-size="14" font-weight="400" font-style="normal" 
 >pp of GDP</text>
</g>

<g fill="#212121" fill-opacity="1" stroke="#212121" stroke-opacity="1" stroke-width="0.666667" stroke-linecap="square" stroke-linejoin="round" transform="matrix(0.75,0,0,0.75,-41,-22.125)"
font-family="Helvetica" font-size="14" font-weight="400" font-style="normal" 
>
<polyline fill="none" vector-effect="none" points="130,428 130,36 " />
<polyline fill="none" vector-effect="none" points="130,428 137.75,428 " />
<polyline fill="none" vector-effect="none" points="130,349.6 137.75,349.6 " />
<polyline fill="none" vector-effect="none" points="130,271.2 137.75,271.2 " />
<polyline fill="none" vector-effect="none" points="130,192.8 137.75,192.8 " />
<polyline fill="none" vector-effect="none" points="130,114.4 137.75,114.4 " />
<polyline fill="none" vector-effect="none" points="130,36 137.75,36 " />
</g>

<g fill="#212121" fill-opacity="1" stroke="#212121" stroke-opacity="1" stroke-width="1" stroke-linecap="square" stroke-linejoin="bevel" transform="matrix(0.75,0,0,0.75,47.25,302.25)"
font-family="Helvetica" font-size="13" font-weight="400" font-style="normal" 
>
<text fill="#212121" fill-opacity="1" stroke="none" xml:space="preserve" x="0" y="0" font-family="Helvetica" font-size="13" font-weight="400" font-style="normal" 
 >0</text>
</g>

<g fill="#212121" fill-opacity="1" stroke="#212121" stroke-opacity="1" stroke-width="1" stroke-linecap="square" stroke-linejoin="bevel" transform="matrix(0.75,0,0,0.75,39,243.45)"
font-family="Helvetica" font-size="13" font-weight="400" font-style="normal" 
>
<text fill="#212121" fill-opacity="1" stroke="none" xml:space="preserve" x="0" y="0" font-family="Helvetica" font-size="13" font-weight="400" font-style="normal" 
 >0.5</text>
</g>

<g fill="#212121" fill-opacity="1" stroke="#212121" stroke-opacity="1" stroke-width="1" stroke-linecap="square" stroke-linejoin="bevel" transform="matrix(0.75,0,0,0.75,47.25,184.65)"
font-family="Helvetica" font-size="13" font-weight="400" font-style="normal" 
>
<text fill="#212121" fill-opacity="1" stroke="none" xml:space="preserve" x="0" y="0" font-family="Helvetica" font-size="13" font-weight="400" font-style="normal" 
 >1</text>
</g>

<g fill="#212121" fill-opacity="1" stroke="#212121" stroke-opacity="1" stroke-width="1" stroke-linecap="square" stroke-linejoin="bevel" transform="matrix(0.75,0,0,0.75,39,125.85)"
font-family="Helvetica" font-size="13" font-weight="400" font-style="normal" 
>
<text fill="#212121" fill-opacity="1" stroke="none" xml:space="preserve" x="0" y="0" font-family="Helvetica" font-size="13" font-weight="400" font-style="normal" 
 >1.5</text>
</g>

<g fill="#212121" fill-opacity="1" stroke="#212121" stroke-opacity="1" stroke-width="1" stroke-linecap="square" stroke-linejoin="bevel" transform="matrix(0.75,0,0,0.75,47.25,67.05)"
font-family="Helvetica" font-size="13" font-weight="400" font-style="normal" 
>
<text fill="#212121" fill-opacity="1" stroke="none" xml:space="preserve" x="0" y="0" font-family="Helvetica" font-size="13" font-weight="400" font-style="normal" 
 >2</text>
</g>

<g fill="#212121" fill-opacity="1" stroke="#212121" stroke-opacity="1" stroke-width="1" stroke-linecap="square" stroke-linejoin="bevel" transform="matrix(0.75,0,0,0.75,39,8.25)"
font-family="Helvetica" font-size="13" font-weight="400" font-style="normal" 
>
<text fill="#212121" fill-opacity="1" stroke="none" xml:space="preserve" x="0" y="0" font-family="Helvetica" font-size="13" font-weight="400" font-style="normal" 
 >2.5</text>
</g>

<g fill="#c0c7cd" fill-opacity="0.701961" stroke="#c0c7cd" stroke-opacity="0.701961" stroke-dasharray="1,3" stroke-dashoffset="0" stroke-width="1.33333" stroke-linecap="butt" stroke-linejoin="round" transform="matrix(0.75,0,0,0.75,-41,-22.125)"
font-family="Helvetica" font-size="13" font-weight="400" font-style="normal" 
>
<polyline fill="none" vector-effect="none" points="130,428 905,428 " />
</g>

<g fill="#5286d2" fill-opacity="1" stroke="none" transform="matrix(7.5e-05,0,0,7.5e-05,-41,-22.125)"
font-family="Helvetica" font-size="13" font-weight="400" font-style="normal" 
>
<path vector-effect="none" fill-rule="evenodd" d="M3.41e+06,4.9275e+06 L3.41e+06,5.0325e+06 L3.81e+06,5.0325e+06 L3.81e+06,4.9275e+06 L3.41e+06,4.9275e+06"/>
</g>

<g fill="none" stroke="#212121" stroke-opacity="1" stroke-width="0.666667" stroke-linecap="butt" stroke-linejoin="miter" stroke-miterlimit="5" transform="matrix(0.75,0,0,0.75,-41,-22.125)"
font-family="Helvetica" font-size="13" font-weight="400" font-style="normal" 
>
<path vector-effect="none" fill-rule="evenodd" d="M341,503.25 L341,492.75 L381,492.75 L381,503.25 L341,503.25"/>
</g>

<g fill="#d3934b" fill-opacity="1" stroke="none" transform="matrix(7.5e-05,0,0,7.5e-05,-41,-22.125)"
font-family="Helvetica" font-size="13" font-weight="400" font-style="normal" 
>
<path vector-effect="none" fill-rule="evenodd" d="M4.4e+06,4.9275e+06 L4.4e+06,5.0325e+06 L4.8e+06,5.0325e+06 L4.8e+06,4.9275e+06 L4.4e+06,4.9275e+06"/>
</g>

<g fill="none" stroke="#212121" stroke-opacity="1" stroke-width="0.666667" stroke-linecap="butt" stroke-linejoin="miter" stroke-miterlimit="5" transform="matrix(0.75,0,0,0.75,-41,-22.125)"
font-family="Helvetica" font-size="13" font-weight="400" font-style="normal" 
>
<path vector-effect="none" fill-rule="evenodd" d="M440,503.25 L440,492.75 L480,492.75 L480,503.25 L440,503.25"/>
</g>

<g fill="#c1d34f" fill-opacity="1" stroke="none" transform="matrix(7.5e-05,0,0,7.5e-05,-41,-22.125)"
font-family="Helvetica" font-size="13" font-weight="400" font-style="normal" 
>
<path vector-effect="none" fill-rule="evenodd" d="M5.7e+06,4.9275e+06 L5.7e+06,5.0325e+06 L6.1e+06,5.0325e+06 L6.1e+06,4.9275e+06 L5.7e+06,4.9275e+06"/>
</g>

<g fill="none" stroke="#212121" stroke-opacity="1" stroke-width="0.666667" stroke-linecap="butt" stroke-linejoin="miter" stroke-miterlimit="5" transform="matrix(0.75,0,0,0.75,-41,-22.125)"
font-family="Helvetica" font-size="13" font-weight="400" font-style="normal" 
>
<path vector-effect="none" fill-rule="evenodd" d="M570,503.25 L570,492.75 L610,492.75 L610,503.25 L570,503.25"/>
</g>

<g fill="#212121" fill-opacity="1" stroke="#212121" stroke-opacity="1" stroke-width="1" stroke-linecap="square" stroke-linejoin="bevel" transform="matrix(0.75,0,0,0.75,247,354.375)"
font-family="Helvetica" font-size="12" font-weight="400" font-style="normal" 
>
<text fill="#212121" fill-opacity="1" stroke="none" xml:space="preserve" x="0" y="0" font-family="Helvetica" font-size="12" font-weight="400" font-style="normal" 
 >Net Zero</text>
</g>

<g fill="#212121" fill-opacity="1" stroke="#212121" stroke-opacity="1" stroke-width="1" stroke-linecap="square" stroke-linejoin="bevel" transform="matrix(0.75,0,0,0.75,321.25,354.375)"
font-family="Helvetica" font-size="12" font-weight="400" font-style="normal" 
>
<text fill="#212121" fill-opacity="1" stroke="none" xml:space="preserve" x="0" y="0" font-family="Helvetica" font-size="12" font-weight="400" font-style="normal" 
 >Net Zero GF B</text>
</g>

<g fill="#212121" fill-opacity="1" stroke="#212121" stroke-opacity="1" stroke-width="1" stroke-linecap="square" stroke-linejoin="bevel" transform="matrix(0.75,0,0,0.75,418.75,354.375)"
font-family="Helvetica" font-size="12" font-weight="400" font-style="normal" 
>
<text fill="#212121" fill-opacity="1" stroke="none" xml:space="preserve" x="0" y="0" font-family="Helvetica" font-size="12" font-weight="400" font-style="normal" 
 >Net Zero GF C</text>
</g>
</g>
</svg>
