<?xml version="1.0" encoding="UTF-8" standalone="no"?>
<svg width="231.422mm" height="124.883mm"
 viewBox="0 0 656 354"
 xmlns="http://www.w3.org/2000/svg" xmlns:xlink="http://www.w3.org/1999/xlink"  version="1.2" baseProfile="tiny">
<title>Qt SVG Document</title>
<desc>MATLAB, The MathWorks, Inc. Version 25.2.0.3123386 R2025b Update 3</desc>
<defs>
</defs>
<g fill="none" stroke="black" stroke-width="1" fill-rule="evenodd" stroke-linecap="square" stroke-linejoin="bevel" >

<g fill="#ffffff" fill-opacity="1" stroke="none" transform="matrix(0.75,0,0,0.75,-25.6,-20.625)"
font-family="MS Shell Dlg 2" font-size="8.25" font-weight="400" font-style="normal" 
>
<path vector-effect="none" fill-rule="evenodd" d="M33,26 L908,26 L908,499 L33,499 L33,26"/>
</g>

<g fill="#ffffff" fill-opacity="1" stroke="none" transform="matrix(7.5e-05,0,0,7.5e-05,-25.6,-20.625)"
font-family="MS Shell Dlg 2" font-size="8.25" font-weight="400" font-style="normal" 
>
<path vector-effect="none" fill-rule="evenodd" d="M1.3e+06,350000 L1.3e+06,4.11e+06 L9.05e+06,4.11e+06 L9.05e+06,350000 L1.3e+06,350000"/>
</g>

<g fill="#212121" fill-opacity="0.14902" stroke="#212121" stroke-opacity="0.14902" stroke-width="0.666667" stroke-linecap="butt" stroke-linejoin="round" transform="matrix(0.75,0,0,0.75,-25.6,-20.625)"
font-family="MS Shell Dlg 2" font-size="8.25" font-weight="400" font-style="normal" 
>
<polyline fill="none" vector-effect="none" points="206.116,35 206.116,411 " />
<polyline fill="none" vector-effect="none" points="361.808,35 361.808,411 " />
<polyline fill="none" vector-effect="none" points="517.5,35 517.5,411 " />
<polyline fill="none" vector-effect="none" points="673.192,35 673.192,411 " />
<polyline fill="none" vector-effect="none" points="828.884,35 828.884,411 " />
<polyline fill="none" vector-effect="none" points="130,411 905,411 " />
<polyline fill="none" vector-effect="none" points="130,335.8 905,335.8 " />
<polyline fill="none" vector-effect="none" points="130,260.6 905,260.6 " />
<polyline fill="none" vector-effect="none" points="130,185.4 905,185.4 " />
<polyline fill="none" vector-effect="none" points="130,110.2 905,110.2 " />
<polyline fill="none" vector-effect="none" points="130,35 905,35 " />
</g>

<g fill="#212121" fill-opacity="1" stroke="#212121" stroke-opacity="1" stroke-width="0.666667" stroke-linecap="butt" stroke-linejoin="round" transform="matrix(0.75,0,0,0.75,-25.6,-20.625)"
font-family="MS Shell Dlg 2" font-size="8.25" font-weight="400" font-style="normal" 
>
<polyline fill="none" vector-effect="none" points="130,185.4 905,185.4 " />
</g>

<g fill="#5286d2" fill-opacity="1" stroke="none" transform="matrix(7.5e-05,0,0,7.5e-05,-25.6,-20.625)"
font-family="MS Shell Dlg 2" font-size="8.25" font-weight="400" font-style="normal" 
>
<path vector-effect="none" fill-rule="evenodd" d="M1.57679e+06,1.854e+06 L1.57679e+06,3.6958e+06 L1.85357e+06,3.6958e+06 L1.85357e+06,1.854e+06 L1.57679e+06,1.854e+06"/>
</g>

<g fill="#5286d2" fill-opacity="1" stroke="none" transform="matrix(7.5e-05,0,0,7.5e-05,-25.6,-20.625)"
font-family="MS Shell Dlg 2" font-size="8.25" font-weight="400" font-style="normal" 
>
<path vector-effect="none" fill-rule="evenodd" d="M3.13371e+06,1.854e+06 L3.13371e+06,2.45049e+06 L3.41049e+06,2.45049e+06 L3.41049e+06,1.854e+06 L3.13371e+06,1.854e+06"/>
</g>

<g fill="#5286d2" fill-opacity="1" stroke="none" transform="matrix(7.5e-05,0,0,7.5e-05,-25.6,-20.625)"
font-family="MS Shell Dlg 2" font-size="8.25" font-weight="400" font-style="normal" 
>
<path vector-effect="none" fill-rule="evenodd" d="M4.69062e+06,1.854e+06 L4.69062e+06,2.20153e+06 L4.96741e+06,2.20153e+06 L4.96741e+06,1.854e+06 L4.69062e+06,1.854e+06"/>
</g>

<g fill="#5286d2" fill-opacity="1" stroke="none" transform="matrix(7.5e-05,0,0,7.5e-05,-25.6,-20.625)"
font-family="MS Shell Dlg 2" font-size="8.25" font-weight="400" font-style="normal" 
>
<path vector-effect="none" fill-rule="evenodd" d="M6.24754e+06,1.67472e+06 L6.24754e+06,1.854e+06 L6.52433e+06,1.854e+06 L6.52433e+06,1.67472e+06 L6.24754e+06,1.67472e+06"/>
</g>

<g fill="#5286d2" fill-opacity="1" stroke="none" transform="matrix(7.5e-05,0,0,7.5e-05,-25.6,-20.625)"
font-family="MS Shell Dlg 2" font-size="8.25" font-weight="400" font-style="normal" 
>
<path vector-effect="none" fill-rule="evenodd" d="M7.80446e+06,1.39543e+06 L7.80446e+06,1.854e+06 L8.08125e+06,1.854e+06 L8.08125e+06,1.39543e+06 L7.80446e+06,1.39543e+06"/>
</g>

<g fill="none" stroke="#212121" stroke-opacity="1" stroke-width="0.666667" stroke-linecap="butt" stroke-linejoin="miter" stroke-miterlimit="5" transform="matrix(0.75,0,0,0.75,-25.6,-20.625)"
font-family="MS Shell Dlg 2" font-size="8.25" font-weight="400" font-style="normal" 
>
<path vector-effect="none" fill-rule="evenodd" d="M157.679,185.4 L157.679,369.58 L185.357,369.58 L185.357,185.4 L157.679,185.4"/>
<path vector-effect="none" fill-rule="evenodd" d="M313.371,185.4 L313.371,245.049 L341.049,245.049 L341.049,185.4 L313.371,185.4"/>
<path vector-effect="none" fill-rule="evenodd" d="M469.062,185.4 L469.062,220.153 L496.741,220.153 L496.741,185.4 L469.062,185.4"/>
<path vector-effect="none" fill-rule="evenodd" d="M624.754,185.4 L624.754,167.472 L652.433,167.472 L652.433,185.4 L624.754,185.4"/>
<path vector-effect="none" fill-rule="evenodd" d="M780.446,185.4 L780.446,139.543 L808.125,139.543 L808.125,185.4 L780.446,185.4"/>
</g>

<g fill="#d3934b" fill-opacity="1" stroke="none" transform="matrix(7.5e-05,0,0,7.5e-05,-25.6,-20.625)"
font-family="MS Shell Dlg 2" font-size="8.25" font-weight="400" font-style="normal" 
>
<path vector-effect="none" fill-rule="evenodd" d="M1.92277e+06,1.854e+06 L1.92277e+06,3.95827e+06 L2.19955e+06,3.95827e+06 L2.19955e+06,1.854e+06 L1.92277e+06,1.854e+06"/>
</g>

<g fill="#d3934b" fill-opacity="1" stroke="none" transform="matrix(7.5e-05,0,0,7.5e-05,-25.6,-20.625)"
font-family="MS Shell Dlg 2" font-size="8.25" font-weight="400" font-style="normal" 
>
<path vector-effect="none" fill-rule="evenodd" d="M3.47969e+06,1.854e+06 L3.47969e+06,2.91858e+06 L3.75647e+06,2.91858e+06 L3.75647e+06,1.854e+06 L3.47969e+06,1.854e+06"/>
</g>

<g fill="#d3934b" fill-opacity="1" stroke="none" transform="matrix(7.5e-05,0,0,7.5e-05,-25.6,-20.625)"
font-family="MS Shell Dlg 2" font-size="8.25" font-weight="400" font-style="normal" 
>
<path vector-effect="none" fill-rule="evenodd" d="M5.03661e+06,1.854e+06 L5.03661e+06,2.51223e+06 L5.31339e+06,2.51223e+06 L5.31339e+06,1.854e+06 L5.03661e+06,1.854e+06"/>
</g>

<g fill="#d3934b" fill-opacity="1" stroke="none" transform="matrix(7.5e-05,0,0,7.5e-05,-25.6,-20.625)"
font-family="MS Shell Dlg 2" font-size="8.25" font-weight="400" font-style="normal" 
>
<path vector-effect="none" fill-rule="evenodd" d="M6.59353e+06,1.854e+06 L6.59353e+06,1.87349e+06 L6.87031e+06,1.87349e+06 L6.87031e+06,1.854e+06 L6.59353e+06,1.854e+06"/>
</g>

<g fill="#d3934b" fill-opacity="1" stroke="none" transform="matrix(7.5e-05,0,0,7.5e-05,-25.6,-20.625)"
font-family="MS Shell Dlg 2" font-size="8.25" font-weight="400" font-style="normal" 
>
<path vector-effect="none" fill-rule="evenodd" d="M8.15045e+06,1.5113e+06 L8.15045e+06,1.854e+06 L8.42723e+06,1.854e+06 L8.42723e+06,1.5113e+06 L8.15045e+06,1.5113e+06"/>
</g>

<g fill="none" stroke="#212121" stroke-opacity="1" stroke-width="0.666667" stroke-linecap="butt" stroke-linejoin="miter" stroke-miterlimit="5" transform="matrix(0.75,0,0,0.75,-25.6,-20.625)"
font-family="MS Shell Dlg 2" font-size="8.25" font-weight="400" font-style="normal" 
>
<path vector-effect="none" fill-rule="evenodd" d="M192.277,185.4 L192.277,395.827 L219.955,395.827 L219.955,185.4 L192.277,185.4"/>
<path vector-effect="none" fill-rule="evenodd" d="M347.969,185.4 L347.969,291.858 L375.647,291.858 L375.647,185.4 L347.969,185.4"/>
<path vector-effect="none" fill-rule="evenodd" d="M503.661,185.4 L503.661,251.223 L531.339,251.223 L531.339,185.4 L503.661,185.4"/>
<path vector-effect="none" fill-rule="evenodd" d="M659.353,185.4 L659.353,187.349 L687.031,187.349 L687.031,185.4 L659.353,185.4"/>
<path vector-effect="none" fill-rule="evenodd" d="M815.045,185.4 L815.045,151.13 L842.723,151.13 L842.723,185.4 L815.045,185.4"/>
</g>

<g fill="#c1d34f" fill-opacity="1" stroke="none" transform="matrix(7.5e-05,0,0,7.5e-05,-25.6,-20.625)"
font-family="MS Shell Dlg 2" font-size="8.25" font-weight="400" font-style="normal" 
>
<path vector-effect="none" fill-rule="evenodd" d="M2.26875e+06,1.854e+06 L2.26875e+06,3.13666e+06 L2.54554e+06,3.13666e+06 L2.54554e+06,1.854e+06 L2.26875e+06,1.854e+06"/>
</g>

<g fill="#c1d34f" fill-opacity="1" stroke="none" transform="matrix(7.5e-05,0,0,7.5e-05,-25.6,-20.625)"
font-family="MS Shell Dlg 2" font-size="8.25" font-weight="400" font-style="normal" 
>
<path vector-effect="none" fill-rule="evenodd" d="M3.82567e+06,1.17387e+06 L3.82567e+06,1.854e+06 L4.10246e+06,1.854e+06 L4.10246e+06,1.17387e+06 L3.82567e+06,1.17387e+06"/>
</g>

<g fill="#c1d34f" fill-opacity="1" stroke="none" transform="matrix(7.5e-05,0,0,7.5e-05,-25.6,-20.625)"
font-family="MS Shell Dlg 2" font-size="8.25" font-weight="400" font-style="normal" 
>
<path vector-effect="none" fill-rule="evenodd" d="M5.38259e+06,1.19845e+06 L5.38259e+06,1.854e+06 L5.65938e+06,1.854e+06 L5.65938e+06,1.19845e+06 L5.38259e+06,1.19845e+06"/>
</g>

<g fill="#c1d34f" fill-opacity="1" stroke="none" transform="matrix(7.5e-05,0,0,7.5e-05,-25.6,-20.625)"
font-family="MS Shell Dlg 2" font-size="8.25" font-weight="400" font-style="normal" 
>
<path vector-effect="none" fill-rule="evenodd" d="M6.93951e+06,929099 L6.93951e+06,1.854e+06 L7.21629e+06,1.854e+06 L7.21629e+06,929099 L6.93951e+06,929099"/>
</g>

<g fill="#c1d34f" fill-opacity="1" stroke="none" transform="matrix(7.5e-05,0,0,7.5e-05,-25.6,-20.625)"
font-family="MS Shell Dlg 2" font-size="8.25" font-weight="400" font-style="normal" 
>
<path vector-effect="none" fill-rule="evenodd" d="M8.49643e+06,854633 L8.49643e+06,1.854e+06 L8.77321e+06,1.854e+06 L8.77321e+06,854633 L8.49643e+06,854633"/>
</g>

<g fill="none" stroke="#212121" stroke-opacity="1" stroke-width="0.666667" stroke-linecap="butt" stroke-linejoin="miter" stroke-miterlimit="5" transform="matrix(0.75,0,0,0.75,-25.6,-20.625)"
font-family="MS Shell Dlg 2" font-size="8.25" font-weight="400" font-style="normal" 
>
<path vector-effect="none" fill-rule="evenodd" d="M226.875,185.4 L226.875,313.666 L254.554,313.666 L254.554,185.4 L226.875,185.4"/>
<path vector-effect="none" fill-rule="evenodd" d="M382.567,185.4 L382.567,117.387 L410.246,117.387 L410.246,185.4 L382.567,185.4"/>
<path vector-effect="none" fill-rule="evenodd" d="M538.259,185.4 L538.259,119.845 L565.938,119.845 L565.938,185.4 L538.259,185.4"/>
<path vector-effect="none" fill-rule="evenodd" d="M693.951,185.4 L693.951,92.9099 L721.629,92.9099 L721.629,185.4 L693.951,185.4"/>
<path vector-effect="none" fill-rule="evenodd" d="M849.643,185.4 L849.643,85.4633 L877.321,85.4633 L877.321,185.4 L849.643,185.4"/>
</g>

<g fill="#212121" fill-opacity="1" stroke="#212121" stroke-opacity="1" stroke-width="0.666667" stroke-linecap="square" stroke-linejoin="round" transform="matrix(0.75,0,0,0.75,-25.6,-20.625)"
font-family="MS Shell Dlg 2" font-size="8.25" font-weight="400" font-style="normal" 
>
<polyline fill="none" vector-effect="none" points="130,411 905,411 " />
<polyline fill="none" vector-effect="none" points="206.116,411 206.116,403.25 " />
<polyline fill="none" vector-effect="none" points="361.808,411 361.808,403.25 " />
<polyline fill="none" vector-effect="none" points="517.5,411 517.5,403.25 " />
<polyline fill="none" vector-effect="none" points="673.192,411 673.192,403.25 " />
<polyline fill="none" vector-effect="none" points="828.884,411 828.884,403.25 " />
</g>

<g fill="#212121" fill-opacity="1" stroke="#212121" stroke-opacity="1" stroke-width="1" stroke-linecap="square" stroke-linejoin="bevel" transform="matrix(0.649519,-0.375,0.375,0.649519,84.5991,330.643)"
font-family="Arial" font-size="16" font-weight="400" font-style="normal" 
>
<text fill="#212121" fill-opacity="1" stroke="none" xml:space="preserve" x="0" y="0" font-family="Arial" font-size="16" font-weight="400" font-style="normal" 
 >2026-2030</text>
</g>

<g fill="#212121" fill-opacity="1" stroke="#212121" stroke-opacity="1" stroke-width="1" stroke-linecap="square" stroke-linejoin="bevel" transform="matrix(0.649519,-0.375,0.375,0.649519,201.368,330.643)"
font-family="Arial" font-size="16" font-weight="400" font-style="normal" 
>
<text fill="#212121" fill-opacity="1" stroke="none" xml:space="preserve" x="0" y="0" font-family="Arial" font-size="16" font-weight="400" font-style="normal" 
 >2031-2035</text>
</g>

<g fill="#212121" fill-opacity="1" stroke="#212121" stroke-opacity="1" stroke-width="1" stroke-linecap="square" stroke-linejoin="bevel" transform="matrix(0.649519,-0.375,0.375,0.649519,318.137,330.643)"
font-family="Arial" font-size="16" font-weight="400" font-style="normal" 
>
<text fill="#212121" fill-opacity="1" stroke="none" xml:space="preserve" x="0" y="0" font-family="Arial" font-size="16" font-weight="400" font-style="normal" 
 >2036-2040</text>
</g>

<g fill="#212121" fill-opacity="1" stroke="#212121" stroke-opacity="1" stroke-width="1" stroke-linecap="square" stroke-linejoin="bevel" transform="matrix(0.649519,-0.375,0.375,0.649519,434.906,330.643)"
font-family="Arial" font-size="16" font-weight="400" font-style="normal" 
>
<text fill="#212121" fill-opacity="1" stroke="none" xml:space="preserve" x="0" y="0" font-family="Arial" font-size="16" font-weight="400" font-style="normal" 
 >2041-2045</text>
</g>

<g fill="#212121" fill-opacity="1" stroke="#212121" stroke-opacity="1" stroke-width="1" stroke-linecap="square" stroke-linejoin="bevel" transform="matrix(0.649519,-0.375,0.375,0.649519,551.675,330.643)"
font-family="Arial" font-size="16" font-weight="400" font-style="normal" 
>
<text fill="#212121" fill-opacity="1" stroke="none" xml:space="preserve" x="0" y="0" font-family="Arial" font-size="16" font-weight="400" font-style="normal" 
 >2046-2050</text>
</g>

<g fill="#212121" fill-opacity="1" stroke="#212121" stroke-opacity="1" stroke-width="1" stroke-linecap="square" stroke-linejoin="bevel" transform="matrix(0,-0.75,0.75,0,10.5,261)"
font-family="Arial" font-size="17" font-weight="400" font-style="normal" 
>
<text fill="#212121" fill-opacity="1" stroke="none" xml:space="preserve" x="0" y="0" font-family="Arial" font-size="17" font-weight="400" font-style="normal" 
 >Net Exports Share Deviation vs Baseline</text>
</g>

<g fill="#212121" fill-opacity="1" stroke="#212121" stroke-opacity="1" stroke-width="1" stroke-linecap="square" stroke-linejoin="bevel" transform="matrix(0,-0.75,0.75,0,25.5,216)"
font-family="Arial" font-size="17" font-weight="400" font-style="normal" 
>
<text fill="#212121" fill-opacity="1" stroke="none" xml:space="preserve" x="0" y="0" font-family="Arial" font-size="17" font-weight="400" font-style="normal" 
 >5-year average deviation</text>
</g>

<g fill="#212121" fill-opacity="1" stroke="#212121" stroke-opacity="1" stroke-width="1" stroke-linecap="square" stroke-linejoin="bevel" transform="matrix(0,-0.75,0.75,0,40.5,175.875)"
font-family="Arial" font-size="17" font-weight="400" font-style="normal" 
>
<text fill="#212121" fill-opacity="1" stroke="none" xml:space="preserve" x="0" y="0" font-family="Arial" font-size="17" font-weight="400" font-style="normal" 
 >pp of GDP</text>
</g>

<g fill="#212121" fill-opacity="1" stroke="#212121" stroke-opacity="1" stroke-width="0.666667" stroke-linecap="square" stroke-linejoin="round" transform="matrix(0.75,0,0,0.75,-25.6,-20.625)"
font-family="Arial" font-size="17" font-weight="400" font-style="normal" 
>
<polyline fill="none" vector-effect="none" points="130,411 130,35 " />
<polyline fill="none" vector-effect="none" points="130,411 137.75,411 " />
<polyline fill="none" vector-effect="none" points="130,335.8 137.75,335.8 " />
<polyline fill="none" vector-effect="none" points="130,260.6 137.75,260.6 " />
<polyline fill="none" vector-effect="none" points="130,185.4 137.75,185.4 " />
<polyline fill="none" vector-effect="none" points="130,110.2 137.75,110.2 " />
<polyline fill="none" vector-effect="none" points="130,35 137.75,35 " />
</g>

<g fill="#212121" fill-opacity="1" stroke="#212121" stroke-opacity="1" stroke-width="1" stroke-linecap="square" stroke-linejoin="bevel" transform="matrix(0.75,0,0,0.75,47.25,291.75)"
font-family="Arial" font-size="16" font-weight="400" font-style="normal" 
>
<text fill="#212121" fill-opacity="1" stroke="none" xml:space="preserve" x="0" y="0" font-family="Arial" font-size="16" font-weight="400" font-style="normal" 
 >-1.5</text>
</g>

<g fill="#212121" fill-opacity="1" stroke="#212121" stroke-opacity="1" stroke-width="1" stroke-linecap="square" stroke-linejoin="bevel" transform="matrix(0.75,0,0,0.75,57,235.35)"
font-family="Arial" font-size="16" font-weight="400" font-style="normal" 
>
<text fill="#212121" fill-opacity="1" stroke="none" xml:space="preserve" x="0" y="0" font-family="Arial" font-size="16" font-weight="400" font-style="normal" 
 >-1</text>
</g>

<g fill="#212121" fill-opacity="1" stroke="#212121" stroke-opacity="1" stroke-width="1" stroke-linecap="square" stroke-linejoin="bevel" transform="matrix(0.75,0,0,0.75,47.25,178.95)"
font-family="Arial" font-size="16" font-weight="400" font-style="normal" 
>
<text fill="#212121" fill-opacity="1" stroke="none" xml:space="preserve" x="0" y="0" font-family="Arial" font-size="16" font-weight="400" font-style="normal" 
 >-0.5</text>
</g>

<g fill="#212121" fill-opacity="1" stroke="#212121" stroke-opacity="1" stroke-width="1" stroke-linecap="square" stroke-linejoin="bevel" transform="matrix(0.75,0,0,0.75,60.75,122.55)"
font-family="Arial" font-size="16" font-weight="400" font-style="normal" 
>
<text fill="#212121" fill-opacity="1" stroke="none" xml:space="preserve" x="0" y="0" font-family="Arial" font-size="16" font-weight="400" font-style="normal" 
 >0</text>
</g>

<g fill="#212121" fill-opacity="1" stroke="#212121" stroke-opacity="1" stroke-width="1" stroke-linecap="square" stroke-linejoin="bevel" transform="matrix(0.75,0,0,0.75,51,66.15)"
font-family="Arial" font-size="16" font-weight="400" font-style="normal" 
>
<text fill="#212121" fill-opacity="1" stroke="none" xml:space="preserve" x="0" y="0" font-family="Arial" font-size="16" font-weight="400" font-style="normal" 
 >0.5</text>
</g>

<g fill="#212121" fill-opacity="1" stroke="#212121" stroke-opacity="1" stroke-width="1" stroke-linecap="square" stroke-linejoin="bevel" transform="matrix(0.75,0,0,0.75,60.75,9.75)"
font-family="Arial" font-size="16" font-weight="400" font-style="normal" 
>
<text fill="#212121" fill-opacity="1" stroke="none" xml:space="preserve" x="0" y="0" font-family="Arial" font-size="16" font-weight="400" font-style="normal" 
 >1</text>
</g>

<g fill="#c0c7cd" fill-opacity="0.701961" stroke="#c0c7cd" stroke-opacity="0.701961" stroke-dasharray="1,3" stroke-dashoffset="0" stroke-width="1.33333" stroke-linecap="butt" stroke-linejoin="round" transform="matrix(0.75,0,0,0.75,-25.6,-20.625)"
font-family="Arial" font-size="16" font-weight="400" font-style="normal" 
>
<polyline fill="none" vector-effect="none" points="130,185.4 905,185.4 " />
</g>

<g fill="#5286d2" fill-opacity="1" stroke="none" transform="matrix(7.5e-05,0,0,7.5e-05,-25.6,-20.625)"
font-family="Arial" font-size="16" font-weight="400" font-style="normal" 
>
<path vector-effect="none" fill-rule="evenodd" d="M3.22e+06,4.85e+06 L3.22e+06,4.97e+06 L3.62e+06,4.97e+06 L3.62e+06,4.85e+06 L3.22e+06,4.85e+06"/>
</g>

<g fill="none" stroke="#212121" stroke-opacity="1" stroke-width="0.666667" stroke-linecap="butt" stroke-linejoin="miter" stroke-miterlimit="5" transform="matrix(0.75,0,0,0.75,-25.6,-20.625)"
font-family="Arial" font-size="16" font-weight="400" font-style="normal" 
>
<path vector-effect="none" fill-rule="evenodd" d="M322,497 L322,485 L362,485 L362,497 L322,497"/>
</g>

<g fill="#d3934b" fill-opacity="1" stroke="none" transform="matrix(7.5e-05,0,0,7.5e-05,-25.6,-20.625)"
font-family="Arial" font-size="16" font-weight="400" font-style="normal" 
>
<path vector-effect="none" fill-rule="evenodd" d="M4.3e+06,4.85e+06 L4.3e+06,4.97e+06 L4.7e+06,4.97e+06 L4.7e+06,4.85e+06 L4.3e+06,4.85e+06"/>
</g>

<g fill="none" stroke="#212121" stroke-opacity="1" stroke-width="0.666667" stroke-linecap="butt" stroke-linejoin="miter" stroke-miterlimit="5" transform="matrix(0.75,0,0,0.75,-25.6,-20.625)"
font-family="Arial" font-size="16" font-weight="400" font-style="normal" 
>
<path vector-effect="none" fill-rule="evenodd" d="M430,497 L430,485 L470,485 L470,497 L430,497"/>
</g>

<g fill="#c1d34f" fill-opacity="1" stroke="none" transform="matrix(7.5e-05,0,0,7.5e-05,-25.6,-20.625)"
font-family="Arial" font-size="16" font-weight="400" font-style="normal" 
>
<path vector-effect="none" fill-rule="evenodd" d="M5.75e+06,4.85e+06 L5.75e+06,4.97e+06 L6.15e+06,4.97e+06 L6.15e+06,4.85e+06 L5.75e+06,4.85e+06"/>
</g>

<g fill="none" stroke="#212121" stroke-opacity="1" stroke-width="0.666667" stroke-linecap="butt" stroke-linejoin="miter" stroke-miterlimit="5" transform="matrix(0.75,0,0,0.75,-25.6,-20.625)"
font-family="Arial" font-size="16" font-weight="400" font-style="normal" 
>
<path vector-effect="none" fill-rule="evenodd" d="M575,497 L575,485 L615,485 L615,497 L575,497"/>
</g>

<g fill="#212121" fill-opacity="1" stroke="#212121" stroke-opacity="1" stroke-width="1" stroke-linecap="square" stroke-linejoin="bevel" transform="matrix(0.75,0,0,0.75,248.15,351.375)"
font-family="Arial" font-size="14" font-weight="400" font-style="normal" 
>
<text fill="#212121" fill-opacity="1" stroke="none" xml:space="preserve" x="0" y="0" font-family="Arial" font-size="14" font-weight="400" font-style="normal" 
 >Net Zero</text>
</g>

<g fill="#212121" fill-opacity="1" stroke="#212121" stroke-opacity="1" stroke-width="1" stroke-linecap="square" stroke-linejoin="bevel" transform="matrix(0.75,0,0,0.75,329.15,351.375)"
font-family="Arial" font-size="14" font-weight="400" font-style="normal" 
>
<text fill="#212121" fill-opacity="1" stroke="none" xml:space="preserve" x="0" y="0" font-family="Arial" font-size="14" font-weight="400" font-style="normal" 
 >Net Zero GF B</text>
</g>

<g fill="#212121" fill-opacity="1" stroke="#212121" stroke-opacity="1" stroke-width="1" stroke-linecap="square" stroke-linejoin="bevel" transform="matrix(0.75,0,0,0.75,437.9,351.375)"
font-family="Arial" font-size="14" font-weight="400" font-style="normal" 
>
<text fill="#212121" fill-opacity="1" stroke="none" xml:space="preserve" x="0" y="0" font-family="Arial" font-size="14" font-weight="400" font-style="normal" 
 >Net Zero GF C</text>
</g>
</g>
</svg>
