<?xml version="1.0" encoding="UTF-8" standalone="no"?>
<svg width="233.539mm" height="124.883mm"
 viewBox="0 0 662 354"
 xmlns="http://www.w3.org/2000/svg" xmlns:xlink="http://www.w3.org/1999/xlink"  version="1.2" baseProfile="tiny">
<title>Qt SVG Document</title>
<desc>MATLAB, The MathWorks, Inc. Version 25.2.0.3123386 R2025b Update 3</desc>
<defs>
</defs>
<g fill="none" stroke="black" stroke-width="1" fill-rule="evenodd" stroke-linecap="square" stroke-linejoin="bevel" >

<g fill="#ffffff" fill-opacity="1" stroke="none" transform="matrix(0.75,0,0,0.75,-18.85,-20.625)"
font-family="MS Shell Dlg 2" font-size="8.25" font-weight="400" font-style="normal" 
>
<path vector-effect="none" fill-rule="evenodd" d="M24,26 L908,26 L908,499 L24,499 L24,26"/>
</g>

<g fill="#ffffff" fill-opacity="1" stroke="none" transform="matrix(7.5e-05,0,0,7.5e-05,-18.85,-20.625)"
font-family="MS Shell Dlg 2" font-size="8.25" font-weight="400" font-style="normal" 
>
<path vector-effect="none" fill-rule="evenodd" d="M1.3e+06,350000 L1.3e+06,4.11e+06 L9.05e+06,4.11e+06 L9.05e+06,350000 L1.3e+06,350000"/>
</g>

<g fill="#212121" fill-opacity="0.14902" stroke="#212121" stroke-opacity="0.14902" stroke-width="0.666667" stroke-linecap="butt" stroke-linejoin="round" transform="matrix(0.75,0,0,0.75,-18.85,-20.625)"
font-family="MS Shell Dlg 2" font-size="8.25" font-weight="400" font-style="normal" 
>
<polyline fill="none" vector-effect="none" points="206.116,35 206.116,411 " />
<polyline fill="none" vector-effect="none" points="361.808,35 361.808,411 " />
<polyline fill="none" vector-effect="none" points="517.5,35 517.5,411 " />
<polyline fill="none" vector-effect="none" points="673.192,35 673.192,411 " />
<polyline fill="none" vector-effect="none" points="828.884,35 828.884,411 " />
<polyline fill="none" vector-effect="none" points="130,411 905,411 " />
<polyline fill="none" vector-effect="none" points="130,348.333 905,348.333 " />
<polyline fill="none" vector-effect="none" points="130,285.667 905,285.667 " />
<polyline fill="none" vector-effect="none" points="130,223 905,223 " />
<polyline fill="none" vector-effect="none" points="130,160.333 905,160.333 " />
<polyline fill="none" vector-effect="none" points="130,97.6667 905,97.6667 " />
<polyline fill="none" vector-effect="none" points="130,35 905,35 " />
</g>

<g fill="#212121" fill-opacity="1" stroke="#212121" stroke-opacity="1" stroke-width="0.666667" stroke-linecap="butt" stroke-linejoin="round" transform="matrix(0.75,0,0,0.75,-18.85,-20.625)"
font-family="MS Shell Dlg 2" font-size="8.25" font-weight="400" font-style="normal" 
>
<polyline fill="none" vector-effect="none" points="130,223 905,223 " />
</g>

<g fill="#50559d" fill-opacity="1" stroke="none" transform="matrix(7.5e-05,0,0,7.5e-05,-18.85,-20.625)"
font-family="MS Shell Dlg 2" font-size="8.25" font-weight="400" font-style="normal" 
>
<path vector-effect="none" fill-rule="evenodd" d="M1.57679e+06,2.21327e+06 L1.57679e+06,2.23e+06 L1.85357e+06,2.23e+06 L1.85357e+06,2.21327e+06 L1.57679e+06,2.21327e+06"/>
</g>

<g fill="#50559d" fill-opacity="1" stroke="none" transform="matrix(7.5e-05,0,0,7.5e-05,-18.85,-20.625)"
font-family="MS Shell Dlg 2" font-size="8.25" font-weight="400" font-style="normal" 
>
<path vector-effect="none" fill-rule="evenodd" d="M3.13371e+06,2.19934e+06 L3.13371e+06,2.23e+06 L3.41049e+06,2.23e+06 L3.41049e+06,2.19934e+06 L3.13371e+06,2.19934e+06"/>
</g>

<g fill="#50559d" fill-opacity="1" stroke="none" transform="matrix(7.5e-05,0,0,7.5e-05,-18.85,-20.625)"
font-family="MS Shell Dlg 2" font-size="8.25" font-weight="400" font-style="normal" 
>
<path vector-effect="none" fill-rule="evenodd" d="M4.69062e+06,2.15857e+06 L4.69062e+06,2.23e+06 L4.96741e+06,2.23e+06 L4.96741e+06,2.15857e+06 L4.69062e+06,2.15857e+06"/>
</g>

<g fill="#50559d" fill-opacity="1" stroke="none" transform="matrix(7.5e-05,0,0,7.5e-05,-18.85,-20.625)"
font-family="MS Shell Dlg 2" font-size="8.25" font-weight="400" font-style="normal" 
>
<path vector-effect="none" fill-rule="evenodd" d="M6.24754e+06,2.06727e+06 L6.24754e+06,2.23e+06 L6.52433e+06,2.23e+06 L6.52433e+06,2.06727e+06 L6.24754e+06,2.06727e+06"/>
</g>

<g fill="#50559d" fill-opacity="1" stroke="none" transform="matrix(7.5e-05,0,0,7.5e-05,-18.85,-20.625)"
font-family="MS Shell Dlg 2" font-size="8.25" font-weight="400" font-style="normal" 
>
<path vector-effect="none" fill-rule="evenodd" d="M7.80446e+06,1.44103e+06 L7.80446e+06,2.23e+06 L8.08125e+06,2.23e+06 L8.08125e+06,1.44103e+06 L7.80446e+06,1.44103e+06"/>
</g>

<g fill="none" stroke="#212121" stroke-opacity="1" stroke-width="0.666667" stroke-linecap="butt" stroke-linejoin="miter" stroke-miterlimit="5" transform="matrix(0.75,0,0,0.75,-18.85,-20.625)"
font-family="MS Shell Dlg 2" font-size="8.25" font-weight="400" font-style="normal" 
>
<path vector-effect="none" fill-rule="evenodd" d="M157.679,223 L157.679,221.327 L185.357,221.327 L185.357,223 L157.679,223"/>
<path vector-effect="none" fill-rule="evenodd" d="M313.371,223 L313.371,219.934 L341.049,219.934 L341.049,223 L313.371,223"/>
<path vector-effect="none" fill-rule="evenodd" d="M469.062,223 L469.062,215.857 L496.741,215.857 L496.741,223 L469.062,223"/>
<path vector-effect="none" fill-rule="evenodd" d="M624.754,223 L624.754,206.727 L652.433,206.727 L652.433,223 L624.754,223"/>
<path vector-effect="none" fill-rule="evenodd" d="M780.446,223 L780.446,144.103 L808.125,144.103 L808.125,223 L780.446,223"/>
</g>

<g fill="#d3934b" fill-opacity="1" stroke="none" transform="matrix(7.5e-05,0,0,7.5e-05,-18.85,-20.625)"
font-family="MS Shell Dlg 2" font-size="8.25" font-weight="400" font-style="normal" 
>
<path vector-effect="none" fill-rule="evenodd" d="M1.92277e+06,1.50887e+06 L1.92277e+06,2.23e+06 L2.19955e+06,2.23e+06 L2.19955e+06,1.50887e+06 L1.92277e+06,1.50887e+06"/>
</g>

<g fill="#d3934b" fill-opacity="1" stroke="none" transform="matrix(7.5e-05,0,0,7.5e-05,-18.85,-20.625)"
font-family="MS Shell Dlg 2" font-size="8.25" font-weight="400" font-style="normal" 
>
<path vector-effect="none" fill-rule="evenodd" d="M3.47969e+06,897471 L3.47969e+06,2.23e+06 L3.75647e+06,2.23e+06 L3.75647e+06,897471 L3.47969e+06,897471"/>
</g>

<g fill="#d3934b" fill-opacity="1" stroke="none" transform="matrix(7.5e-05,0,0,7.5e-05,-18.85,-20.625)"
font-family="MS Shell Dlg 2" font-size="8.25" font-weight="400" font-style="normal" 
>
<path vector-effect="none" fill-rule="evenodd" d="M5.03661e+06,1.11335e+06 L5.03661e+06,2.23e+06 L5.31339e+06,2.23e+06 L5.31339e+06,1.11335e+06 L5.03661e+06,1.11335e+06"/>
</g>

<g fill="#d3934b" fill-opacity="1" stroke="none" transform="matrix(7.5e-05,0,0,7.5e-05,-18.85,-20.625)"
font-family="MS Shell Dlg 2" font-size="8.25" font-weight="400" font-style="normal" 
>
<path vector-effect="none" fill-rule="evenodd" d="M6.59353e+06,1.61703e+06 L6.59353e+06,2.23e+06 L6.87031e+06,2.23e+06 L6.87031e+06,1.61703e+06 L6.59353e+06,1.61703e+06"/>
</g>

<g fill="#d3934b" fill-opacity="1" stroke="none" transform="matrix(7.5e-05,0,0,7.5e-05,-18.85,-20.625)"
font-family="MS Shell Dlg 2" font-size="8.25" font-weight="400" font-style="normal" 
>
<path vector-effect="none" fill-rule="evenodd" d="M8.15045e+06,1.33302e+06 L8.15045e+06,2.23e+06 L8.42723e+06,2.23e+06 L8.42723e+06,1.33302e+06 L8.15045e+06,1.33302e+06"/>
</g>

<g fill="none" stroke="#212121" stroke-opacity="1" stroke-width="0.666667" stroke-linecap="butt" stroke-linejoin="miter" stroke-miterlimit="5" transform="matrix(0.75,0,0,0.75,-18.85,-20.625)"
font-family="MS Shell Dlg 2" font-size="8.25" font-weight="400" font-style="normal" 
>
<path vector-effect="none" fill-rule="evenodd" d="M192.277,223 L192.277,150.887 L219.955,150.887 L219.955,223 L192.277,223"/>
<path vector-effect="none" fill-rule="evenodd" d="M347.969,223 L347.969,89.7472 L375.647,89.7472 L375.647,223 L347.969,223"/>
<path vector-effect="none" fill-rule="evenodd" d="M503.661,223 L503.661,111.335 L531.339,111.335 L531.339,223 L503.661,223"/>
<path vector-effect="none" fill-rule="evenodd" d="M659.353,223 L659.353,161.703 L687.031,161.703 L687.031,223 L659.353,223"/>
<path vector-effect="none" fill-rule="evenodd" d="M815.045,223 L815.045,133.302 L842.723,133.302 L842.723,223 L815.045,223"/>
</g>

<g fill="#c1d34f" fill-opacity="1" stroke="none" transform="matrix(7.5e-05,0,0,7.5e-05,-18.85,-20.625)"
font-family="MS Shell Dlg 2" font-size="8.25" font-weight="400" font-style="normal" 
>
<path vector-effect="none" fill-rule="evenodd" d="M2.26875e+06,2.23e+06 L2.26875e+06,2.23091e+06 L2.54554e+06,2.23091e+06 L2.54554e+06,2.23e+06 L2.26875e+06,2.23e+06"/>
</g>

<g fill="#c1d34f" fill-opacity="1" stroke="none" transform="matrix(7.5e-05,0,0,7.5e-05,-18.85,-20.625)"
font-family="MS Shell Dlg 2" font-size="8.25" font-weight="400" font-style="normal" 
>
<path vector-effect="none" fill-rule="evenodd" d="M3.82567e+06,2.23e+06 L3.82567e+06,4.05687e+06 L4.10246e+06,4.05687e+06 L4.10246e+06,2.23e+06 L3.82567e+06,2.23e+06"/>
</g>

<g fill="#c1d34f" fill-opacity="1" stroke="none" transform="matrix(7.5e-05,0,0,7.5e-05,-18.85,-20.625)"
font-family="MS Shell Dlg 2" font-size="8.25" font-weight="400" font-style="normal" 
>
<path vector-effect="none" fill-rule="evenodd" d="M5.38259e+06,2.23e+06 L5.38259e+06,3.77018e+06 L5.65938e+06,3.77018e+06 L5.65938e+06,2.23e+06 L5.38259e+06,2.23e+06"/>
</g>

<g fill="#c1d34f" fill-opacity="1" stroke="none" transform="matrix(7.5e-05,0,0,7.5e-05,-18.85,-20.625)"
font-family="MS Shell Dlg 2" font-size="8.25" font-weight="400" font-style="normal" 
>
<path vector-effect="none" fill-rule="evenodd" d="M6.93951e+06,2.23e+06 L6.93951e+06,2.80433e+06 L7.21629e+06,2.80433e+06 L7.21629e+06,2.23e+06 L6.93951e+06,2.23e+06"/>
</g>

<g fill="#c1d34f" fill-opacity="1" stroke="none" transform="matrix(7.5e-05,0,0,7.5e-05,-18.85,-20.625)"
font-family="MS Shell Dlg 2" font-size="8.25" font-weight="400" font-style="normal" 
>
<path vector-effect="none" fill-rule="evenodd" d="M8.49643e+06,1.76958e+06 L8.49643e+06,2.23e+06 L8.77321e+06,2.23e+06 L8.77321e+06,1.76958e+06 L8.49643e+06,1.76958e+06"/>
</g>

<g fill="none" stroke="#212121" stroke-opacity="1" stroke-width="0.666667" stroke-linecap="butt" stroke-linejoin="miter" stroke-miterlimit="5" transform="matrix(0.75,0,0,0.75,-18.85,-20.625)"
font-family="MS Shell Dlg 2" font-size="8.25" font-weight="400" font-style="normal" 
>
<path vector-effect="none" fill-rule="evenodd" d="M226.875,223 L226.875,223.091 L254.554,223.091 L254.554,223 L226.875,223"/>
<path vector-effect="none" fill-rule="evenodd" d="M382.567,223 L382.567,405.687 L410.246,405.687 L410.246,223 L382.567,223"/>
<path vector-effect="none" fill-rule="evenodd" d="M538.259,223 L538.259,377.018 L565.938,377.018 L565.938,223 L538.259,223"/>
<path vector-effect="none" fill-rule="evenodd" d="M693.951,223 L693.951,280.433 L721.629,280.433 L721.629,223 L693.951,223"/>
<path vector-effect="none" fill-rule="evenodd" d="M849.643,223 L849.643,176.958 L877.321,176.958 L877.321,223 L849.643,223"/>
</g>

<g fill="#212121" fill-opacity="1" stroke="#212121" stroke-opacity="1" stroke-width="0.666667" stroke-linecap="square" stroke-linejoin="round" transform="matrix(0.75,0,0,0.75,-18.85,-20.625)"
font-family="MS Shell Dlg 2" font-size="8.25" font-weight="400" font-style="normal" 
>
<polyline fill="none" vector-effect="none" points="130,411 905,411 " />
<polyline fill="none" vector-effect="none" points="206.116,411 206.116,403.25 " />
<polyline fill="none" vector-effect="none" points="361.808,411 361.808,403.25 " />
<polyline fill="none" vector-effect="none" points="517.5,411 517.5,403.25 " />
<polyline fill="none" vector-effect="none" points="673.192,411 673.192,403.25 " />
<polyline fill="none" vector-effect="none" points="828.884,411 828.884,403.25 " />
</g>

<g fill="#212121" fill-opacity="1" stroke="#212121" stroke-opacity="1" stroke-width="1" stroke-linecap="square" stroke-linejoin="bevel" transform="matrix(0.649519,-0.375,0.375,0.649519,91.3491,330.643)"
font-family="Arial" font-size="16" font-weight="400" font-style="normal" 
>
<text fill="#212121" fill-opacity="1" stroke="none" xml:space="preserve" x="0" y="0" font-family="Arial" font-size="16" font-weight="400" font-style="normal" 
 >2026-2030</text>
</g>

<g fill="#212121" fill-opacity="1" stroke="#212121" stroke-opacity="1" stroke-width="1" stroke-linecap="square" stroke-linejoin="bevel" transform="matrix(0.649519,-0.375,0.375,0.649519,208.118,330.643)"
font-family="Arial" font-size="16" font-weight="400" font-style="normal" 
>
<text fill="#212121" fill-opacity="1" stroke="none" xml:space="preserve" x="0" y="0" font-family="Arial" font-size="16" font-weight="400" font-style="normal" 
 >2031-2035</text>
</g>

<g fill="#212121" fill-opacity="1" stroke="#212121" stroke-opacity="1" stroke-width="1" stroke-linecap="square" stroke-linejoin="bevel" transform="matrix(0.649519,-0.375,0.375,0.649519,324.887,330.643)"
font-family="Arial" font-size="16" font-weight="400" font-style="normal" 
>
<text fill="#212121" fill-opacity="1" stroke="none" xml:space="preserve" x="0" y="0" font-family="Arial" font-size="16" font-weight="400" font-style="normal" 
 >2036-2040</text>
</g>

<g fill="#212121" fill-opacity="1" stroke="#212121" stroke-opacity="1" stroke-width="1" stroke-linecap="square" stroke-linejoin="bevel" transform="matrix(0.649519,-0.375,0.375,0.649519,441.656,330.643)"
font-family="Arial" font-size="16" font-weight="400" font-style="normal" 
>
<text fill="#212121" fill-opacity="1" stroke="none" xml:space="preserve" x="0" y="0" font-family="Arial" font-size="16" font-weight="400" font-style="normal" 
 >2041-2045</text>
</g>

<g fill="#212121" fill-opacity="1" stroke="#212121" stroke-opacity="1" stroke-width="1" stroke-linecap="square" stroke-linejoin="bevel" transform="matrix(0.649519,-0.375,0.375,0.649519,558.425,330.643)"
font-family="Arial" font-size="16" font-weight="400" font-style="normal" 
>
<text fill="#212121" fill-opacity="1" stroke="none" xml:space="preserve" x="0" y="0" font-family="Arial" font-size="16" font-weight="400" font-style="normal" 
 >2046-2050</text>
</g>

<g fill="#212121" fill-opacity="1" stroke="#212121" stroke-opacity="1" stroke-width="1" stroke-linecap="square" stroke-linejoin="bevel" transform="matrix(0,-0.75,0.75,0,10.5,258.75)"
font-family="Arial" font-size="17" font-weight="400" font-style="normal" 
>
<text fill="#212121" fill-opacity="1" stroke="none" xml:space="preserve" x="0" y="0" font-family="Arial" font-size="17" font-weight="400" font-style="normal" 
 >Investment Share Deviation vs Baseline</text>
</g>

<g fill="#212121" fill-opacity="1" stroke="#212121" stroke-opacity="1" stroke-width="1" stroke-linecap="square" stroke-linejoin="bevel" transform="matrix(0,-0.75,0.75,0,25.5,216)"
font-family="Arial" font-size="17" font-weight="400" font-style="normal" 
>
<text fill="#212121" fill-opacity="1" stroke="none" xml:space="preserve" x="0" y="0" font-family="Arial" font-size="17" font-weight="400" font-style="normal" 
 >5-year average deviation</text>
</g>

<g fill="#212121" fill-opacity="1" stroke="#212121" stroke-opacity="1" stroke-width="1" stroke-linecap="square" stroke-linejoin="bevel" transform="matrix(0,-0.75,0.75,0,40.5,175.875)"
font-family="Arial" font-size="17" font-weight="400" font-style="normal" 
>
<text fill="#212121" fill-opacity="1" stroke="none" xml:space="preserve" x="0" y="0" font-family="Arial" font-size="17" font-weight="400" font-style="normal" 
 >pp of GDP</text>
</g>

<g fill="#212121" fill-opacity="1" stroke="#212121" stroke-opacity="1" stroke-width="0.666667" stroke-linecap="square" stroke-linejoin="round" transform="matrix(0.75,0,0,0.75,-18.85,-20.625)"
font-family="Arial" font-size="17" font-weight="400" font-style="normal" 
>
<polyline fill="none" vector-effect="none" points="130,411 130,35 " />
<polyline fill="none" vector-effect="none" points="130,411 137.75,411 " />
<polyline fill="none" vector-effect="none" points="130,348.333 137.75,348.333 " />
<polyline fill="none" vector-effect="none" points="130,285.667 137.75,285.667 " />
<polyline fill="none" vector-effect="none" points="130,223 137.75,223 " />
<polyline fill="none" vector-effect="none" points="130,160.333 137.75,160.333 " />
<polyline fill="none" vector-effect="none" points="130,97.6667 137.75,97.6667 " />
<polyline fill="none" vector-effect="none" points="130,35 137.75,35 " />
</g>

<g fill="#212121" fill-opacity="1" stroke="#212121" stroke-opacity="1" stroke-width="1" stroke-linecap="square" stroke-linejoin="bevel" transform="matrix(0.75,0,0,0.75,47.25,291.75)"
font-family="Arial" font-size="16" font-weight="400" font-style="normal" 
>
<text fill="#212121" fill-opacity="1" stroke="none" xml:space="preserve" x="0" y="0" font-family="Arial" font-size="16" font-weight="400" font-style="normal" 
 >-0.15</text>
</g>

<g fill="#212121" fill-opacity="1" stroke="#212121" stroke-opacity="1" stroke-width="1" stroke-linecap="square" stroke-linejoin="bevel" transform="matrix(0.75,0,0,0.75,54,244.75)"
font-family="Arial" font-size="16" font-weight="400" font-style="normal" 
>
<text fill="#212121" fill-opacity="1" stroke="none" xml:space="preserve" x="0" y="0" font-family="Arial" font-size="16" font-weight="400" font-style="normal" 
 >-0.1</text>
</g>

<g fill="#212121" fill-opacity="1" stroke="#212121" stroke-opacity="1" stroke-width="1" stroke-linecap="square" stroke-linejoin="bevel" transform="matrix(0.75,0,0,0.75,47.25,197.75)"
font-family="Arial" font-size="16" font-weight="400" font-style="normal" 
>
<text fill="#212121" fill-opacity="1" stroke="none" xml:space="preserve" x="0" y="0" font-family="Arial" font-size="16" font-weight="400" font-style="normal" 
 >-0.05</text>
</g>

<g fill="#212121" fill-opacity="1" stroke="#212121" stroke-opacity="1" stroke-width="1" stroke-linecap="square" stroke-linejoin="bevel" transform="matrix(0.75,0,0,0.75,67.5,150.75)"
font-family="Arial" font-size="16" font-weight="400" font-style="normal" 
>
<text fill="#212121" fill-opacity="1" stroke="none" xml:space="preserve" x="0" y="0" font-family="Arial" font-size="16" font-weight="400" font-style="normal" 
 >0</text>
</g>

<g fill="#212121" fill-opacity="1" stroke="#212121" stroke-opacity="1" stroke-width="1" stroke-linecap="square" stroke-linejoin="bevel" transform="matrix(0.75,0,0,0.75,51,103.75)"
font-family="Arial" font-size="16" font-weight="400" font-style="normal" 
>
<text fill="#212121" fill-opacity="1" stroke="none" xml:space="preserve" x="0" y="0" font-family="Arial" font-size="16" font-weight="400" font-style="normal" 
 >0.05</text>
</g>

<g fill="#212121" fill-opacity="1" stroke="#212121" stroke-opacity="1" stroke-width="1" stroke-linecap="square" stroke-linejoin="bevel" transform="matrix(0.75,0,0,0.75,57.75,56.75)"
font-family="Arial" font-size="16" font-weight="400" font-style="normal" 
>
<text fill="#212121" fill-opacity="1" stroke="none" xml:space="preserve" x="0" y="0" font-family="Arial" font-size="16" font-weight="400" font-style="normal" 
 >0.1</text>
</g>

<g fill="#212121" fill-opacity="1" stroke="#212121" stroke-opacity="1" stroke-width="1" stroke-linecap="square" stroke-linejoin="bevel" transform="matrix(0.75,0,0,0.75,51,9.75)"
font-family="Arial" font-size="16" font-weight="400" font-style="normal" 
>
<text fill="#212121" fill-opacity="1" stroke="none" xml:space="preserve" x="0" y="0" font-family="Arial" font-size="16" font-weight="400" font-style="normal" 
 >0.15</text>
</g>

<g fill="#c0c7cd" fill-opacity="0.701961" stroke="#c0c7cd" stroke-opacity="0.701961" stroke-dasharray="1,3" stroke-dashoffset="0" stroke-width="1.33333" stroke-linecap="butt" stroke-linejoin="round" transform="matrix(0.75,0,0,0.75,-18.85,-20.625)"
font-family="Arial" font-size="16" font-weight="400" font-style="normal" 
>
<polyline fill="none" vector-effect="none" points="130,223 905,223 " />
</g>

<g fill="#50559d" fill-opacity="1" stroke="none" transform="matrix(7.5e-05,0,0,7.5e-05,-18.85,-20.625)"
font-family="Arial" font-size="16" font-weight="400" font-style="normal" 
>
<path vector-effect="none" fill-rule="evenodd" d="M3.3e+06,4.85e+06 L3.3e+06,4.97e+06 L3.7e+06,4.97e+06 L3.7e+06,4.85e+06 L3.3e+06,4.85e+06"/>
</g>

<g fill="none" stroke="#212121" stroke-opacity="1" stroke-width="0.666667" stroke-linecap="butt" stroke-linejoin="miter" stroke-miterlimit="5" transform="matrix(0.75,0,0,0.75,-18.85,-20.625)"
font-family="Arial" font-size="16" font-weight="400" font-style="normal" 
>
<path vector-effect="none" fill-rule="evenodd" d="M330,497 L330,485 L370,485 L370,497 L330,497"/>
</g>

<g fill="#d3934b" fill-opacity="1" stroke="none" transform="matrix(7.5e-05,0,0,7.5e-05,-18.85,-20.625)"
font-family="Arial" font-size="16" font-weight="400" font-style="normal" 
>
<path vector-effect="none" fill-rule="evenodd" d="M4.57e+06,4.85e+06 L4.57e+06,4.97e+06 L4.97e+06,4.97e+06 L4.97e+06,4.85e+06 L4.57e+06,4.85e+06"/>
</g>

<g fill="none" stroke="#212121" stroke-opacity="1" stroke-width="0.666667" stroke-linecap="butt" stroke-linejoin="miter" stroke-miterlimit="5" transform="matrix(0.75,0,0,0.75,-18.85,-20.625)"
font-family="Arial" font-size="16" font-weight="400" font-style="normal" 
>
<path vector-effect="none" fill-rule="evenodd" d="M457,497 L457,485 L497,485 L497,497 L457,497"/>
</g>

<g fill="#c1d34f" fill-opacity="1" stroke="none" transform="matrix(7.5e-05,0,0,7.5e-05,-18.85,-20.625)"
font-family="Arial" font-size="16" font-weight="400" font-style="normal" 
>
<path vector-effect="none" fill-rule="evenodd" d="M5.84e+06,4.85e+06 L5.84e+06,4.97e+06 L6.24e+06,4.97e+06 L6.24e+06,4.85e+06 L5.84e+06,4.85e+06"/>
</g>

<g fill="none" stroke="#212121" stroke-opacity="1" stroke-width="0.666667" stroke-linecap="butt" stroke-linejoin="miter" stroke-miterlimit="5" transform="matrix(0.75,0,0,0.75,-18.85,-20.625)"
font-family="Arial" font-size="16" font-weight="400" font-style="normal" 
>
<path vector-effect="none" fill-rule="evenodd" d="M584,497 L584,485 L624,485 L624,497 L584,497"/>
</g>

<g fill="#212121" fill-opacity="1" stroke="#212121" stroke-opacity="1" stroke-width="1" stroke-linecap="square" stroke-linejoin="bevel" transform="matrix(0.75,0,0,0.75,260.9,351.375)"
font-family="Arial" font-size="14" font-weight="400" font-style="normal" 
>
<text fill="#212121" fill-opacity="1" stroke="none" xml:space="preserve" x="0" y="0" font-family="Arial" font-size="14" font-weight="400" font-style="normal" 
 >PDP8 GF A</text>
</g>

<g fill="#212121" fill-opacity="1" stroke="#212121" stroke-opacity="1" stroke-width="1" stroke-linecap="square" stroke-linejoin="bevel" transform="matrix(0.75,0,0,0.75,356.15,351.375)"
font-family="Arial" font-size="14" font-weight="400" font-style="normal" 
>
<text fill="#212121" fill-opacity="1" stroke="none" xml:space="preserve" x="0" y="0" font-family="Arial" font-size="14" font-weight="400" font-style="normal" 
 >PDP8 GF B</text>
</g>

<g fill="#212121" fill-opacity="1" stroke="#212121" stroke-opacity="1" stroke-width="1" stroke-linecap="square" stroke-linejoin="bevel" transform="matrix(0.75,0,0,0.75,451.4,351.375)"
font-family="Arial" font-size="14" font-weight="400" font-style="normal" 
>
<text fill="#212121" fill-opacity="1" stroke="none" xml:space="preserve" x="0" y="0" font-family="Arial" font-size="14" font-weight="400" font-style="normal" 
 >PDP8 GF C</text>
</g>
</g>
</svg>
