<?xml version="1.0" encoding="UTF-8" standalone="no"?>
<svg width="226.836mm" height="126.647mm"
 viewBox="0 0 643 359"
 xmlns="http://www.w3.org/2000/svg" xmlns:xlink="http://www.w3.org/1999/xlink"  version="1.2" baseProfile="tiny">
<title>Qt SVG Document</title>
<desc>MATLAB, The MathWorks, Inc. Version 25.2.0.3123386 R2025b Update 3</desc>
<defs>
</defs>
<g fill="none" stroke="black" stroke-width="1" fill-rule="evenodd" stroke-linecap="square" stroke-linejoin="bevel" >

<g fill="#ffffff" fill-opacity="1" stroke="none" transform="matrix(0.75,0,0,0.75,-38,-22.125)"
font-family="MS Shell Dlg 2" font-size="8.25" font-weight="400" font-style="normal" 
>
<path vector-effect="none" fill-rule="evenodd" d="M49,28 L907,28 L907,507 L49,507 L49,28"/>
</g>

<g fill="#ffffff" fill-opacity="1" stroke="none" transform="matrix(7.5e-05,0,0,7.5e-05,-38,-22.125)"
font-family="MS Shell Dlg 2" font-size="8.25" font-weight="400" font-style="normal" 
>
<path vector-effect="none" fill-rule="evenodd" d="M1.3e+06,360000 L1.3e+06,4.28e+06 L9.05e+06,4.28e+06 L9.05e+06,360000 L1.3e+06,360000"/>
</g>

<g fill="#212121" fill-opacity="0.14902" stroke="#212121" stroke-opacity="0.14902" stroke-width="0.666667" stroke-linecap="butt" stroke-linejoin="round" transform="matrix(0.75,0,0,0.75,-38,-22.125)"
font-family="MS Shell Dlg 2" font-size="8.25" font-weight="400" font-style="normal" 
>
<polyline fill="none" vector-effect="none" points="206.116,36 206.116,428 " />
<polyline fill="none" vector-effect="none" points="361.808,36 361.808,428 " />
<polyline fill="none" vector-effect="none" points="517.5,36 517.5,428 " />
<polyline fill="none" vector-effect="none" points="673.192,36 673.192,428 " />
<polyline fill="none" vector-effect="none" points="828.884,36 828.884,428 " />
<polyline fill="none" vector-effect="none" points="130,428 905,428 " />
<polyline fill="none" vector-effect="none" points="130,388.8 905,388.8 " />
<polyline fill="none" vector-effect="none" points="130,349.6 905,349.6 " />
<polyline fill="none" vector-effect="none" points="130,310.4 905,310.4 " />
<polyline fill="none" vector-effect="none" points="130,271.2 905,271.2 " />
<polyline fill="none" vector-effect="none" points="130,232 905,232 " />
<polyline fill="none" vector-effect="none" points="130,192.8 905,192.8 " />
<polyline fill="none" vector-effect="none" points="130,153.6 905,153.6 " />
<polyline fill="none" vector-effect="none" points="130,114.4 905,114.4 " />
<polyline fill="none" vector-effect="none" points="130,75.2 905,75.2 " />
<polyline fill="none" vector-effect="none" points="130,36 905,36 " />
</g>

<g fill="#212121" fill-opacity="1" stroke="#212121" stroke-opacity="1" stroke-width="0.666667" stroke-linecap="butt" stroke-linejoin="round" transform="matrix(0.75,0,0,0.75,-38,-22.125)"
font-family="MS Shell Dlg 2" font-size="8.25" font-weight="400" font-style="normal" 
>
<polyline fill="none" vector-effect="none" points="130,232 905,232 " />
</g>

<g fill="#242b84" fill-opacity="1" stroke="none" transform="matrix(7.5e-05,0,0,7.5e-05,-38,-22.125)"
font-family="MS Shell Dlg 2" font-size="8.25" font-weight="400" font-style="normal" 
>
<path vector-effect="none" fill-rule="evenodd" d="M1.57679e+06,769654 L1.57679e+06,2.32e+06 L1.85357e+06,2.32e+06 L1.85357e+06,769654 L1.57679e+06,769654"/>
</g>

<g fill="#242b84" fill-opacity="1" stroke="none" transform="matrix(7.5e-05,0,0,7.5e-05,-38,-22.125)"
font-family="MS Shell Dlg 2" font-size="8.25" font-weight="400" font-style="normal" 
>
<path vector-effect="none" fill-rule="evenodd" d="M3.13371e+06,397395 L3.13371e+06,2.32e+06 L3.41049e+06,2.32e+06 L3.41049e+06,397395 L3.13371e+06,397395"/>
</g>

<g fill="#242b84" fill-opacity="1" stroke="none" transform="matrix(7.5e-05,0,0,7.5e-05,-38,-22.125)"
font-family="MS Shell Dlg 2" font-size="8.25" font-weight="400" font-style="normal" 
>
<path vector-effect="none" fill-rule="evenodd" d="M4.69062e+06,832041 L4.69062e+06,2.32e+06 L4.96741e+06,2.32e+06 L4.96741e+06,832041 L4.69062e+06,832041"/>
</g>

<g fill="#242b84" fill-opacity="1" stroke="none" transform="matrix(7.5e-05,0,0,7.5e-05,-38,-22.125)"
font-family="MS Shell Dlg 2" font-size="8.25" font-weight="400" font-style="normal" 
>
<path vector-effect="none" fill-rule="evenodd" d="M6.24754e+06,922884 L6.24754e+06,2.32e+06 L6.52433e+06,2.32e+06 L6.52433e+06,922884 L6.24754e+06,922884"/>
</g>

<g fill="#242b84" fill-opacity="1" stroke="none" transform="matrix(7.5e-05,0,0,7.5e-05,-38,-22.125)"
font-family="MS Shell Dlg 2" font-size="8.25" font-weight="400" font-style="normal" 
>
<path vector-effect="none" fill-rule="evenodd" d="M7.80446e+06,835072 L7.80446e+06,2.32e+06 L8.08125e+06,2.32e+06 L8.08125e+06,835072 L7.80446e+06,835072"/>
</g>

<g fill="none" stroke="#212121" stroke-opacity="1" stroke-width="0.666667" stroke-linecap="butt" stroke-linejoin="miter" stroke-miterlimit="5" transform="matrix(0.75,0,0,0.75,-38,-22.125)"
font-family="MS Shell Dlg 2" font-size="8.25" font-weight="400" font-style="normal" 
>
<path vector-effect="none" fill-rule="evenodd" d="M157.679,232 L157.679,76.9654 L185.357,76.9654 L185.357,232 L157.679,232"/>
<path vector-effect="none" fill-rule="evenodd" d="M313.371,232 L313.371,39.7395 L341.049,39.7395 L341.049,232 L313.371,232"/>
<path vector-effect="none" fill-rule="evenodd" d="M469.062,232 L469.062,83.2042 L496.741,83.2042 L496.741,232 L469.062,232"/>
<path vector-effect="none" fill-rule="evenodd" d="M624.754,232 L624.754,92.2884 L652.433,92.2884 L652.433,232 L624.754,232"/>
<path vector-effect="none" fill-rule="evenodd" d="M780.446,232 L780.446,83.5072 L808.125,83.5072 L808.125,232 L780.446,232"/>
</g>

<g fill="#c8781e" fill-opacity="1" stroke="none" transform="matrix(7.5e-05,0,0,7.5e-05,-38,-22.125)"
font-family="MS Shell Dlg 2" font-size="8.25" font-weight="400" font-style="normal" 
>
<path vector-effect="none" fill-rule="evenodd" d="M1.92277e+06,762338 L1.92277e+06,2.32e+06 L2.19955e+06,2.32e+06 L2.19955e+06,762338 L1.92277e+06,762338"/>
</g>

<g fill="#c8781e" fill-opacity="1" stroke="none" transform="matrix(7.5e-05,0,0,7.5e-05,-38,-22.125)"
font-family="MS Shell Dlg 2" font-size="8.25" font-weight="400" font-style="normal" 
>
<path vector-effect="none" fill-rule="evenodd" d="M3.47969e+06,381103 L3.47969e+06,2.32e+06 L3.75647e+06,2.32e+06 L3.75647e+06,381103 L3.47969e+06,381103"/>
</g>

<g fill="#c8781e" fill-opacity="1" stroke="none" transform="matrix(7.5e-05,0,0,7.5e-05,-38,-22.125)"
font-family="MS Shell Dlg 2" font-size="8.25" font-weight="400" font-style="normal" 
>
<path vector-effect="none" fill-rule="evenodd" d="M5.03661e+06,807292 L5.03661e+06,2.32e+06 L5.31339e+06,2.32e+06 L5.31339e+06,807292 L5.03661e+06,807292"/>
</g>

<g fill="#c8781e" fill-opacity="1" stroke="none" transform="matrix(7.5e-05,0,0,7.5e-05,-38,-22.125)"
font-family="MS Shell Dlg 2" font-size="8.25" font-weight="400" font-style="normal" 
>
<path vector-effect="none" fill-rule="evenodd" d="M6.59353e+06,898883 L6.59353e+06,2.32e+06 L6.87031e+06,2.32e+06 L6.87031e+06,898883 L6.59353e+06,898883"/>
</g>

<g fill="#c8781e" fill-opacity="1" stroke="none" transform="matrix(7.5e-05,0,0,7.5e-05,-38,-22.125)"
font-family="MS Shell Dlg 2" font-size="8.25" font-weight="400" font-style="normal" 
>
<path vector-effect="none" fill-rule="evenodd" d="M8.15045e+06,827469 L8.15045e+06,2.32e+06 L8.42723e+06,2.32e+06 L8.42723e+06,827469 L8.15045e+06,827469"/>
</g>

<g fill="none" stroke="#212121" stroke-opacity="1" stroke-width="0.666667" stroke-linecap="butt" stroke-linejoin="miter" stroke-miterlimit="5" transform="matrix(0.75,0,0,0.75,-38,-22.125)"
font-family="MS Shell Dlg 2" font-size="8.25" font-weight="400" font-style="normal" 
>
<path vector-effect="none" fill-rule="evenodd" d="M192.277,232 L192.277,76.2338 L219.955,76.2338 L219.955,232 L192.277,232"/>
<path vector-effect="none" fill-rule="evenodd" d="M347.969,232 L347.969,38.1103 L375.647,38.1103 L375.647,232 L347.969,232"/>
<path vector-effect="none" fill-rule="evenodd" d="M503.661,232 L503.661,80.7293 L531.339,80.7293 L531.339,232 L503.661,232"/>
<path vector-effect="none" fill-rule="evenodd" d="M659.353,232 L659.353,89.8884 L687.031,89.8884 L687.031,232 L659.353,232"/>
<path vector-effect="none" fill-rule="evenodd" d="M815.045,232 L815.045,82.747 L842.723,82.747 L842.723,232 L815.045,232"/>
</g>

<g fill="#b2c823" fill-opacity="1" stroke="none" transform="matrix(7.5e-05,0,0,7.5e-05,-38,-22.125)"
font-family="MS Shell Dlg 2" font-size="8.25" font-weight="400" font-style="normal" 
>
<path vector-effect="none" fill-rule="evenodd" d="M2.26875e+06,2.32e+06 L2.26875e+06,2.42093e+06 L2.54554e+06,2.42093e+06 L2.54554e+06,2.32e+06 L2.26875e+06,2.32e+06"/>
</g>

<g fill="#b2c823" fill-opacity="1" stroke="none" transform="matrix(7.5e-05,0,0,7.5e-05,-38,-22.125)"
font-family="MS Shell Dlg 2" font-size="8.25" font-weight="400" font-style="normal" 
>
<path vector-effect="none" fill-rule="evenodd" d="M3.82567e+06,2.32e+06 L3.82567e+06,3.54216e+06 L4.10246e+06,3.54216e+06 L4.10246e+06,2.32e+06 L3.82567e+06,2.32e+06"/>
</g>

<g fill="#b2c823" fill-opacity="1" stroke="none" transform="matrix(7.5e-05,0,0,7.5e-05,-38,-22.125)"
font-family="MS Shell Dlg 2" font-size="8.25" font-weight="400" font-style="normal" 
>
<path vector-effect="none" fill-rule="evenodd" d="M5.38259e+06,2.32e+06 L5.38259e+06,3.58091e+06 L5.65938e+06,3.58091e+06 L5.65938e+06,2.32e+06 L5.38259e+06,2.32e+06"/>
</g>

<g fill="#b2c823" fill-opacity="1" stroke="none" transform="matrix(7.5e-05,0,0,7.5e-05,-38,-22.125)"
font-family="MS Shell Dlg 2" font-size="8.25" font-weight="400" font-style="normal" 
>
<path vector-effect="none" fill-rule="evenodd" d="M6.93951e+06,2.32e+06 L6.93951e+06,4.27046e+06 L7.21629e+06,4.27046e+06 L7.21629e+06,2.32e+06 L6.93951e+06,2.32e+06"/>
</g>

<g fill="#b2c823" fill-opacity="1" stroke="none" transform="matrix(7.5e-05,0,0,7.5e-05,-38,-22.125)"
font-family="MS Shell Dlg 2" font-size="8.25" font-weight="400" font-style="normal" 
>
<path vector-effect="none" fill-rule="evenodd" d="M8.49643e+06,2.32e+06 L8.49643e+06,4.09127e+06 L8.77321e+06,4.09127e+06 L8.77321e+06,2.32e+06 L8.49643e+06,2.32e+06"/>
</g>

<g fill="none" stroke="#212121" stroke-opacity="1" stroke-width="0.666667" stroke-linecap="butt" stroke-linejoin="miter" stroke-miterlimit="5" transform="matrix(0.75,0,0,0.75,-38,-22.125)"
font-family="MS Shell Dlg 2" font-size="8.25" font-weight="400" font-style="normal" 
>
<path vector-effect="none" fill-rule="evenodd" d="M226.875,232 L226.875,242.093 L254.554,242.093 L254.554,232 L226.875,232"/>
<path vector-effect="none" fill-rule="evenodd" d="M382.567,232 L382.567,354.216 L410.246,354.216 L410.246,232 L382.567,232"/>
<path vector-effect="none" fill-rule="evenodd" d="M538.259,232 L538.259,358.091 L565.938,358.091 L565.938,232 L538.259,232"/>
<path vector-effect="none" fill-rule="evenodd" d="M693.951,232 L693.951,427.046 L721.629,427.046 L721.629,232 L693.951,232"/>
<path vector-effect="none" fill-rule="evenodd" d="M849.643,232 L849.643,409.127 L877.321,409.127 L877.321,232 L849.643,232"/>
</g>

<g fill="#212121" fill-opacity="1" stroke="#212121" stroke-opacity="1" stroke-width="0.666667" stroke-linecap="square" stroke-linejoin="round" transform="matrix(0.75,0,0,0.75,-38,-22.125)"
font-family="MS Shell Dlg 2" font-size="8.25" font-weight="400" font-style="normal" 
>
<polyline fill="none" vector-effect="none" points="130,428 905,428 " />
<polyline fill="none" vector-effect="none" points="206.116,428 206.116,420.25 " />
<polyline fill="none" vector-effect="none" points="361.808,428 361.808,420.25 " />
<polyline fill="none" vector-effect="none" points="517.5,428 517.5,420.25 " />
<polyline fill="none" vector-effect="none" points="673.192,428 673.192,420.25 " />
<polyline fill="none" vector-effect="none" points="828.884,428 828.884,420.25 " />
</g>

<g fill="#212121" fill-opacity="1" stroke="#212121" stroke-opacity="1" stroke-width="1" stroke-linecap="square" stroke-linejoin="bevel" transform="matrix(0.649519,-0.375,0.375,0.649519,82.1159,333.169)"
font-family="Helvetica" font-size="13" font-weight="400" font-style="normal" 
>
<text fill="#212121" fill-opacity="1" stroke="none" xml:space="preserve" x="0" y="0" font-family="Helvetica" font-size="13" font-weight="400" font-style="normal" 
 >2026-2030</text>
</g>

<g fill="#212121" fill-opacity="1" stroke="#212121" stroke-opacity="1" stroke-width="1" stroke-linecap="square" stroke-linejoin="bevel" transform="matrix(0.649519,-0.375,0.375,0.649519,198.885,333.169)"
font-family="Helvetica" font-size="13" font-weight="400" font-style="normal" 
>
<text fill="#212121" fill-opacity="1" stroke="none" xml:space="preserve" x="0" y="0" font-family="Helvetica" font-size="13" font-weight="400" font-style="normal" 
 >2031-2035</text>
</g>

<g fill="#212121" fill-opacity="1" stroke="#212121" stroke-opacity="1" stroke-width="1" stroke-linecap="square" stroke-linejoin="bevel" transform="matrix(0.649519,-0.375,0.375,0.649519,315.654,333.169)"
font-family="Helvetica" font-size="13" font-weight="400" font-style="normal" 
>
<text fill="#212121" fill-opacity="1" stroke="none" xml:space="preserve" x="0" y="0" font-family="Helvetica" font-size="13" font-weight="400" font-style="normal" 
 >2036-2040</text>
</g>

<g fill="#212121" fill-opacity="1" stroke="#212121" stroke-opacity="1" stroke-width="1" stroke-linecap="square" stroke-linejoin="bevel" transform="matrix(0.649519,-0.375,0.375,0.649519,432.423,333.169)"
font-family="Helvetica" font-size="13" font-weight="400" font-style="normal" 
>
<text fill="#212121" fill-opacity="1" stroke="none" xml:space="preserve" x="0" y="0" font-family="Helvetica" font-size="13" font-weight="400" font-style="normal" 
 >2041-2045</text>
</g>

<g fill="#212121" fill-opacity="1" stroke="#212121" stroke-opacity="1" stroke-width="1" stroke-linecap="square" stroke-linejoin="bevel" transform="matrix(0.649519,-0.375,0.375,0.649519,549.192,333.169)"
font-family="Helvetica" font-size="13" font-weight="400" font-style="normal" 
>
<text fill="#212121" fill-opacity="1" stroke="none" xml:space="preserve" x="0" y="0" font-family="Helvetica" font-size="13" font-weight="400" font-style="normal" 
 >2046-2050</text>
</g>

<g fill="#212121" fill-opacity="1" stroke="#212121" stroke-opacity="1" stroke-width="1" stroke-linecap="square" stroke-linejoin="bevel" transform="matrix(0,-0.75,0.75,0,9.00001,229.5)"
font-family="Helvetica" font-size="14" font-weight="400" font-style="normal" 
>
<text fill="#212121" fill-opacity="1" stroke="none" xml:space="preserve" x="0" y="0" font-family="Helvetica" font-size="14" font-weight="400" font-style="normal" 
 >GDP Level Deviation vs Baseline</text>
</g>

<g fill="#212121" fill-opacity="1" stroke="#212121" stroke-opacity="1" stroke-width="1" stroke-linecap="square" stroke-linejoin="bevel" transform="matrix(0,-0.75,0.75,0,21,211.125)"
font-family="Helvetica" font-size="14" font-weight="400" font-style="normal" 
>
<text fill="#212121" fill-opacity="1" stroke="none" xml:space="preserve" x="0" y="0" font-family="Helvetica" font-size="14" font-weight="400" font-style="normal" 
 >5-year average deviation</text>
</g>

<g fill="#212121" fill-opacity="1" stroke="#212121" stroke-opacity="1" stroke-width="1" stroke-linecap="square" stroke-linejoin="bevel" transform="matrix(0,-0.75,0.75,0,33,179.25)"
font-family="Helvetica" font-size="14" font-weight="400" font-style="normal" 
>
<text fill="#212121" fill-opacity="1" stroke="none" xml:space="preserve" x="0" y="0" font-family="Helvetica" font-size="14" font-weight="400" font-style="normal" 
 >% deviation</text>
</g>

<g fill="#212121" fill-opacity="1" stroke="#212121" stroke-opacity="1" stroke-width="0.666667" stroke-linecap="square" stroke-linejoin="round" transform="matrix(0.75,0,0,0.75,-38,-22.125)"
font-family="Helvetica" font-size="14" font-weight="400" font-style="normal" 
>
<polyline fill="none" vector-effect="none" points="130,428 130,36 " />
<polyline fill="none" vector-effect="none" points="130,428 137.75,428 " />
<polyline fill="none" vector-effect="none" points="130,388.8 137.75,388.8 " />
<polyline fill="none" vector-effect="none" points="130,349.6 137.75,349.6 " />
<polyline fill="none" vector-effect="none" points="130,310.4 137.75,310.4 " />
<polyline fill="none" vector-effect="none" points="130,271.2 137.75,271.2 " />
<polyline fill="none" vector-effect="none" points="130,232 137.75,232 " />
<polyline fill="none" vector-effect="none" points="130,192.8 137.75,192.8 " />
<polyline fill="none" vector-effect="none" points="130,153.6 137.75,153.6 " />
<polyline fill="none" vector-effect="none" points="130,114.4 137.75,114.4 " />
<polyline fill="none" vector-effect="none" points="130,75.2 137.75,75.2 " />
<polyline fill="none" vector-effect="none" points="130,36 137.75,36 " />
</g>

<g fill="#212121" fill-opacity="1" stroke="#212121" stroke-opacity="1" stroke-width="1" stroke-linecap="square" stroke-linejoin="bevel" transform="matrix(0.75,0,0,0.75,47.25,302.25)"
font-family="Helvetica" font-size="13" font-weight="400" font-style="normal" 
>
<text fill="#212121" fill-opacity="1" stroke="none" xml:space="preserve" x="0" y="0" font-family="Helvetica" font-size="13" font-weight="400" font-style="normal" 
 >-1</text>
</g>

<g fill="#212121" fill-opacity="1" stroke="#212121" stroke-opacity="1" stroke-width="1" stroke-linecap="square" stroke-linejoin="bevel" transform="matrix(0.75,0,0,0.75,39,272.85)"
font-family="Helvetica" font-size="13" font-weight="400" font-style="normal" 
>
<text fill="#212121" fill-opacity="1" stroke="none" xml:space="preserve" x="0" y="0" font-family="Helvetica" font-size="13" font-weight="400" font-style="normal" 
 >-0.8</text>
</g>

<g fill="#212121" fill-opacity="1" stroke="#212121" stroke-opacity="1" stroke-width="1" stroke-linecap="square" stroke-linejoin="bevel" transform="matrix(0.75,0,0,0.75,39,243.45)"
font-family="Helvetica" font-size="13" font-weight="400" font-style="normal" 
>
<text fill="#212121" fill-opacity="1" stroke="none" xml:space="preserve" x="0" y="0" font-family="Helvetica" font-size="13" font-weight="400" font-style="normal" 
 >-0.6</text>
</g>

<g fill="#212121" fill-opacity="1" stroke="#212121" stroke-opacity="1" stroke-width="1" stroke-linecap="square" stroke-linejoin="bevel" transform="matrix(0.75,0,0,0.75,39,214.05)"
font-family="Helvetica" font-size="13" font-weight="400" font-style="normal" 
>
<text fill="#212121" fill-opacity="1" stroke="none" xml:space="preserve" x="0" y="0" font-family="Helvetica" font-size="13" font-weight="400" font-style="normal" 
 >-0.4</text>
</g>

<g fill="#212121" fill-opacity="1" stroke="#212121" stroke-opacity="1" stroke-width="1" stroke-linecap="square" stroke-linejoin="bevel" transform="matrix(0.75,0,0,0.75,39,184.65)"
font-family="Helvetica" font-size="13" font-weight="400" font-style="normal" 
>
<text fill="#212121" fill-opacity="1" stroke="none" xml:space="preserve" x="0" y="0" font-family="Helvetica" font-size="13" font-weight="400" font-style="normal" 
 >-0.2</text>
</g>

<g fill="#212121" fill-opacity="1" stroke="#212121" stroke-opacity="1" stroke-width="1" stroke-linecap="square" stroke-linejoin="bevel" transform="matrix(0.75,0,0,0.75,50.25,155.25)"
font-family="Helvetica" font-size="13" font-weight="400" font-style="normal" 
>
<text fill="#212121" fill-opacity="1" stroke="none" xml:space="preserve" x="0" y="0" font-family="Helvetica" font-size="13" font-weight="400" font-style="normal" 
 >0</text>
</g>

<g fill="#212121" fill-opacity="1" stroke="#212121" stroke-opacity="1" stroke-width="1" stroke-linecap="square" stroke-linejoin="bevel" transform="matrix(0.75,0,0,0.75,42,125.85)"
font-family="Helvetica" font-size="13" font-weight="400" font-style="normal" 
>
<text fill="#212121" fill-opacity="1" stroke="none" xml:space="preserve" x="0" y="0" font-family="Helvetica" font-size="13" font-weight="400" font-style="normal" 
 >0.2</text>
</g>

<g fill="#212121" fill-opacity="1" stroke="#212121" stroke-opacity="1" stroke-width="1" stroke-linecap="square" stroke-linejoin="bevel" transform="matrix(0.75,0,0,0.75,42,96.45)"
font-family="Helvetica" font-size="13" font-weight="400" font-style="normal" 
>
<text fill="#212121" fill-opacity="1" stroke="none" xml:space="preserve" x="0" y="0" font-family="Helvetica" font-size="13" font-weight="400" font-style="normal" 
 >0.4</text>
</g>

<g fill="#212121" fill-opacity="1" stroke="#212121" stroke-opacity="1" stroke-width="1" stroke-linecap="square" stroke-linejoin="bevel" transform="matrix(0.75,0,0,0.75,42,67.05)"
font-family="Helvetica" font-size="13" font-weight="400" font-style="normal" 
>
<text fill="#212121" fill-opacity="1" stroke="none" xml:space="preserve" x="0" y="0" font-family="Helvetica" font-size="13" font-weight="400" font-style="normal" 
 >0.6</text>
</g>

<g fill="#212121" fill-opacity="1" stroke="#212121" stroke-opacity="1" stroke-width="1" stroke-linecap="square" stroke-linejoin="bevel" transform="matrix(0.75,0,0,0.75,42,37.65)"
font-family="Helvetica" font-size="13" font-weight="400" font-style="normal" 
>
<text fill="#212121" fill-opacity="1" stroke="none" xml:space="preserve" x="0" y="0" font-family="Helvetica" font-size="13" font-weight="400" font-style="normal" 
 >0.8</text>
</g>

<g fill="#212121" fill-opacity="1" stroke="#212121" stroke-opacity="1" stroke-width="1" stroke-linecap="square" stroke-linejoin="bevel" transform="matrix(0.75,0,0,0.75,50.25,8.25)"
font-family="Helvetica" font-size="13" font-weight="400" font-style="normal" 
>
<text fill="#212121" fill-opacity="1" stroke="none" xml:space="preserve" x="0" y="0" font-family="Helvetica" font-size="13" font-weight="400" font-style="normal" 
 >1</text>
</g>

<g fill="#c0c7cd" fill-opacity="0.701961" stroke="#c0c7cd" stroke-opacity="0.701961" stroke-dasharray="1,3" stroke-dashoffset="0" stroke-width="1.33333" stroke-linecap="butt" stroke-linejoin="round" transform="matrix(0.75,0,0,0.75,-38,-22.125)"
font-family="Helvetica" font-size="13" font-weight="400" font-style="normal" 
>
<polyline fill="none" vector-effect="none" points="130,232 905,232 " />
</g>

<g fill="#242b84" fill-opacity="1" stroke="none" transform="matrix(7.5e-05,0,0,7.5e-05,-38,-22.125)"
font-family="Helvetica" font-size="13" font-weight="400" font-style="normal" 
>
<path vector-effect="none" fill-rule="evenodd" d="M2.69e+06,4.9275e+06 L2.69e+06,5.0325e+06 L3.09e+06,5.0325e+06 L3.09e+06,4.9275e+06 L2.69e+06,4.9275e+06"/>
</g>

<g fill="none" stroke="#212121" stroke-opacity="1" stroke-width="0.666667" stroke-linecap="butt" stroke-linejoin="miter" stroke-miterlimit="5" transform="matrix(0.75,0,0,0.75,-38,-22.125)"
font-family="Helvetica" font-size="13" font-weight="400" font-style="normal" 
>
<path vector-effect="none" fill-rule="evenodd" d="M269,503.25 L269,492.75 L309,492.75 L309,503.25 L269,503.25"/>
</g>

<g fill="#c8781e" fill-opacity="1" stroke="none" transform="matrix(7.5e-05,0,0,7.5e-05,-38,-22.125)"
font-family="Helvetica" font-size="13" font-weight="400" font-style="normal" 
>
<path vector-effect="none" fill-rule="evenodd" d="M4.11e+06,4.9275e+06 L4.11e+06,5.0325e+06 L4.51e+06,5.0325e+06 L4.51e+06,4.9275e+06 L4.11e+06,4.9275e+06"/>
</g>

<g fill="none" stroke="#212121" stroke-opacity="1" stroke-width="0.666667" stroke-linecap="butt" stroke-linejoin="miter" stroke-miterlimit="5" transform="matrix(0.75,0,0,0.75,-38,-22.125)"
font-family="Helvetica" font-size="13" font-weight="400" font-style="normal" 
>
<path vector-effect="none" fill-rule="evenodd" d="M411,503.25 L411,492.75 L451,492.75 L451,503.25 L411,503.25"/>
</g>

<g fill="#b2c823" fill-opacity="1" stroke="none" transform="matrix(7.5e-05,0,0,7.5e-05,-38,-22.125)"
font-family="Helvetica" font-size="13" font-weight="400" font-style="normal" 
>
<path vector-effect="none" fill-rule="evenodd" d="M5.78e+06,4.9275e+06 L5.78e+06,5.0325e+06 L6.18e+06,5.0325e+06 L6.18e+06,4.9275e+06 L5.78e+06,4.9275e+06"/>
</g>

<g fill="none" stroke="#212121" stroke-opacity="1" stroke-width="0.666667" stroke-linecap="butt" stroke-linejoin="miter" stroke-miterlimit="5" transform="matrix(0.75,0,0,0.75,-38,-22.125)"
font-family="Helvetica" font-size="13" font-weight="400" font-style="normal" 
>
<path vector-effect="none" fill-rule="evenodd" d="M578,503.25 L578,492.75 L618,492.75 L618,503.25 L578,503.25"/>
</g>

<g fill="#212121" fill-opacity="1" stroke="#212121" stroke-opacity="1" stroke-width="1" stroke-linecap="square" stroke-linejoin="bevel" transform="matrix(0.75,0,0,0.75,196,354.375)"
font-family="Helvetica" font-size="12" font-weight="400" font-style="normal" 
>
<text fill="#212121" fill-opacity="1" stroke="none" xml:space="preserve" x="0" y="0" font-family="Helvetica" font-size="12" font-weight="400" font-style="normal" 
 >Directive 10 (full)</text>
</g>

<g fill="#212121" fill-opacity="1" stroke="#212121" stroke-opacity="1" stroke-width="1" stroke-linecap="square" stroke-linejoin="bevel" transform="matrix(0.75,0,0,0.75,302.5,354.375)"
font-family="Helvetica" font-size="12" font-weight="400" font-style="normal" 
>
<text fill="#212121" fill-opacity="1" stroke="none" xml:space="preserve" x="0" y="0" font-family="Helvetica" font-size="12" font-weight="400" font-style="normal" 
 >Directive 10 no BESS</text>
</g>

<g fill="#212121" fill-opacity="1" stroke="#212121" stroke-opacity="1" stroke-width="1" stroke-linecap="square" stroke-linejoin="bevel" transform="matrix(0.75,0,0,0.75,427.75,354.375)"
font-family="Helvetica" font-size="12" font-weight="400" font-style="normal" 
>
<text fill="#212121" fill-opacity="1" stroke="none" xml:space="preserve" x="0" y="0" font-family="Helvetica" font-size="12" font-weight="400" font-style="normal" 
 >RTS at pre-revision 95 GW</text>
</g>
</g>
</svg>
