<?xml version="1.0" encoding="UTF-8" standalone="no"?>
<svg width="226.836mm" height="126.647mm"
 viewBox="0 0 643 359"
 xmlns="http://www.w3.org/2000/svg" xmlns:xlink="http://www.w3.org/1999/xlink"  version="1.2" baseProfile="tiny">
<title>Qt SVG Document</title>
<desc>MATLAB, The MathWorks, Inc. Version 25.2.0.3123386 R2025b Update 3</desc>
<defs>
</defs>
<g fill="none" stroke="black" stroke-width="1" fill-rule="evenodd" stroke-linecap="square" stroke-linejoin="bevel" >

<g fill="#ffffff" fill-opacity="1" stroke="none" transform="matrix(0.75,0,0,0.75,-38,-22.125)"
font-family="MS Shell Dlg 2" font-size="8.25" font-weight="400" font-style="normal" 
>
<path vector-effect="none" fill-rule="evenodd" d="M49,28 L908,28 L908,507 L49,507 L49,28"/>
</g>

<g fill="#ffffff" fill-opacity="1" stroke="none" transform="matrix(7.5e-05,0,0,7.5e-05,-38,-22.125)"
font-family="MS Shell Dlg 2" font-size="8.25" font-weight="400" font-style="normal" 
>
<path vector-effect="none" fill-rule="evenodd" d="M1.3e+06,360000 L1.3e+06,4.28e+06 L9.05e+06,4.28e+06 L9.05e+06,360000 L1.3e+06,360000"/>
</g>

<g fill="#212121" fill-opacity="0.14902" stroke="#212121" stroke-opacity="0.14902" stroke-width="0.666667" stroke-linecap="butt" stroke-linejoin="round" transform="matrix(0.75,0,0,0.75,-38,-22.125)"
font-family="MS Shell Dlg 2" font-size="8.25" font-weight="400" font-style="normal" 
>
<polyline fill="none" vector-effect="none" points="206.116,36 206.116,428 " />
<polyline fill="none" vector-effect="none" points="361.808,36 361.808,428 " />
<polyline fill="none" vector-effect="none" points="517.5,36 517.5,428 " />
<polyline fill="none" vector-effect="none" points="673.192,36 673.192,428 " />
<polyline fill="none" vector-effect="none" points="828.884,36 828.884,428 " />
<polyline fill="none" vector-effect="none" points="130,428 905,428 " />
<polyline fill="none" vector-effect="none" points="130,379 905,379 " />
<polyline fill="none" vector-effect="none" points="130,330 905,330 " />
<polyline fill="none" vector-effect="none" points="130,281 905,281 " />
<polyline fill="none" vector-effect="none" points="130,232 905,232 " />
<polyline fill="none" vector-effect="none" points="130,183 905,183 " />
<polyline fill="none" vector-effect="none" points="130,134 905,134 " />
<polyline fill="none" vector-effect="none" points="130,85 905,85 " />
<polyline fill="none" vector-effect="none" points="130,36 905,36 " />
</g>

<g fill="#212121" fill-opacity="1" stroke="#212121" stroke-opacity="1" stroke-width="0.666667" stroke-linecap="butt" stroke-linejoin="round" transform="matrix(0.75,0,0,0.75,-38,-22.125)"
font-family="MS Shell Dlg 2" font-size="8.25" font-weight="400" font-style="normal" 
>
<polyline fill="none" vector-effect="none" points="130,232 905,232 " />
</g>

<g fill="#242b84" fill-opacity="1" stroke="none" transform="matrix(7.5e-05,0,0,7.5e-05,-38,-22.125)"
font-family="MS Shell Dlg 2" font-size="8.25" font-weight="400" font-style="normal" 
>
<path vector-effect="none" fill-rule="evenodd" d="M1.57679e+06,2.32e+06 L1.57679e+06,4.16343e+06 L1.85357e+06,4.16343e+06 L1.85357e+06,2.32e+06 L1.57679e+06,2.32e+06"/>
</g>

<g fill="#242b84" fill-opacity="1" stroke="none" transform="matrix(7.5e-05,0,0,7.5e-05,-38,-22.125)"
font-family="MS Shell Dlg 2" font-size="8.25" font-weight="400" font-style="normal" 
>
<path vector-effect="none" fill-rule="evenodd" d="M3.13371e+06,2.32e+06 L3.13371e+06,4.27523e+06 L3.41049e+06,4.27523e+06 L3.41049e+06,2.32e+06 L3.13371e+06,2.32e+06"/>
</g>

<g fill="#242b84" fill-opacity="1" stroke="none" transform="matrix(7.5e-05,0,0,7.5e-05,-38,-22.125)"
font-family="MS Shell Dlg 2" font-size="8.25" font-weight="400" font-style="normal" 
>
<path vector-effect="none" fill-rule="evenodd" d="M4.69062e+06,2.32e+06 L4.69062e+06,3.47409e+06 L4.96741e+06,3.47409e+06 L4.96741e+06,2.32e+06 L4.69062e+06,2.32e+06"/>
</g>

<g fill="#242b84" fill-opacity="1" stroke="none" transform="matrix(7.5e-05,0,0,7.5e-05,-38,-22.125)"
font-family="MS Shell Dlg 2" font-size="8.25" font-weight="400" font-style="normal" 
>
<path vector-effect="none" fill-rule="evenodd" d="M6.24754e+06,2.32e+06 L6.24754e+06,2.94092e+06 L6.52433e+06,2.94092e+06 L6.52433e+06,2.32e+06 L6.24754e+06,2.32e+06"/>
</g>

<g fill="#242b84" fill-opacity="1" stroke="none" transform="matrix(7.5e-05,0,0,7.5e-05,-38,-22.125)"
font-family="MS Shell Dlg 2" font-size="8.25" font-weight="400" font-style="normal" 
>
<path vector-effect="none" fill-rule="evenodd" d="M7.80446e+06,2.32e+06 L7.80446e+06,2.46834e+06 L8.08125e+06,2.46834e+06 L8.08125e+06,2.32e+06 L7.80446e+06,2.32e+06"/>
</g>

<g fill="none" stroke="#212121" stroke-opacity="1" stroke-width="0.666667" stroke-linecap="butt" stroke-linejoin="miter" stroke-miterlimit="5" transform="matrix(0.75,0,0,0.75,-38,-22.125)"
font-family="MS Shell Dlg 2" font-size="8.25" font-weight="400" font-style="normal" 
>
<path vector-effect="none" fill-rule="evenodd" d="M157.679,232 L157.679,416.343 L185.357,416.343 L185.357,232 L157.679,232"/>
<path vector-effect="none" fill-rule="evenodd" d="M313.371,232 L313.371,427.523 L341.049,427.523 L341.049,232 L313.371,232"/>
<path vector-effect="none" fill-rule="evenodd" d="M469.062,232 L469.062,347.409 L496.741,347.409 L496.741,232 L469.062,232"/>
<path vector-effect="none" fill-rule="evenodd" d="M624.754,232 L624.754,294.092 L652.433,294.092 L652.433,232 L624.754,232"/>
<path vector-effect="none" fill-rule="evenodd" d="M780.446,232 L780.446,246.834 L808.125,246.834 L808.125,232 L780.446,232"/>
</g>

<g fill="#c8781e" fill-opacity="1" stroke="none" transform="matrix(7.5e-05,0,0,7.5e-05,-38,-22.125)"
font-family="MS Shell Dlg 2" font-size="8.25" font-weight="400" font-style="normal" 
>
<path vector-effect="none" fill-rule="evenodd" d="M1.92277e+06,2.32e+06 L1.92277e+06,4.11491e+06 L2.19955e+06,4.11491e+06 L2.19955e+06,2.32e+06 L1.92277e+06,2.32e+06"/>
</g>

<g fill="#c8781e" fill-opacity="1" stroke="none" transform="matrix(7.5e-05,0,0,7.5e-05,-38,-22.125)"
font-family="MS Shell Dlg 2" font-size="8.25" font-weight="400" font-style="normal" 
>
<path vector-effect="none" fill-rule="evenodd" d="M3.47969e+06,2.32e+06 L3.47969e+06,4.21845e+06 L3.75647e+06,4.21845e+06 L3.75647e+06,2.32e+06 L3.47969e+06,2.32e+06"/>
</g>

<g fill="#c8781e" fill-opacity="1" stroke="none" transform="matrix(7.5e-05,0,0,7.5e-05,-38,-22.125)"
font-family="MS Shell Dlg 2" font-size="8.25" font-weight="400" font-style="normal" 
>
<path vector-effect="none" fill-rule="evenodd" d="M5.03661e+06,2.32e+06 L5.03661e+06,3.39987e+06 L5.31339e+06,3.39987e+06 L5.31339e+06,2.32e+06 L5.03661e+06,2.32e+06"/>
</g>

<g fill="#c8781e" fill-opacity="1" stroke="none" transform="matrix(7.5e-05,0,0,7.5e-05,-38,-22.125)"
font-family="MS Shell Dlg 2" font-size="8.25" font-weight="400" font-style="normal" 
>
<path vector-effect="none" fill-rule="evenodd" d="M6.59353e+06,2.32e+06 L6.59353e+06,2.87598e+06 L6.87031e+06,2.87598e+06 L6.87031e+06,2.32e+06 L6.59353e+06,2.32e+06"/>
</g>

<g fill="#c8781e" fill-opacity="1" stroke="none" transform="matrix(7.5e-05,0,0,7.5e-05,-38,-22.125)"
font-family="MS Shell Dlg 2" font-size="8.25" font-weight="400" font-style="normal" 
>
<path vector-effect="none" fill-rule="evenodd" d="M8.15045e+06,2.32e+06 L8.15045e+06,2.44438e+06 L8.42723e+06,2.44438e+06 L8.42723e+06,2.32e+06 L8.15045e+06,2.32e+06"/>
</g>

<g fill="none" stroke="#212121" stroke-opacity="1" stroke-width="0.666667" stroke-linecap="butt" stroke-linejoin="miter" stroke-miterlimit="5" transform="matrix(0.75,0,0,0.75,-38,-22.125)"
font-family="MS Shell Dlg 2" font-size="8.25" font-weight="400" font-style="normal" 
>
<path vector-effect="none" fill-rule="evenodd" d="M192.277,232 L192.277,411.491 L219.955,411.491 L219.955,232 L192.277,232"/>
<path vector-effect="none" fill-rule="evenodd" d="M347.969,232 L347.969,421.845 L375.647,421.845 L375.647,232 L347.969,232"/>
<path vector-effect="none" fill-rule="evenodd" d="M503.661,232 L503.661,339.987 L531.339,339.987 L531.339,232 L503.661,232"/>
<path vector-effect="none" fill-rule="evenodd" d="M659.353,232 L659.353,287.598 L687.031,287.598 L687.031,232 L659.353,232"/>
<path vector-effect="none" fill-rule="evenodd" d="M815.045,232 L815.045,244.438 L842.723,244.438 L842.723,232 L815.045,232"/>
</g>

<g fill="#b2c823" fill-opacity="1" stroke="none" transform="matrix(7.5e-05,0,0,7.5e-05,-38,-22.125)"
font-family="MS Shell Dlg 2" font-size="8.25" font-weight="400" font-style="normal" 
>
<path vector-effect="none" fill-rule="evenodd" d="M2.26875e+06,1.48214e+06 L2.26875e+06,2.32e+06 L2.54554e+06,2.32e+06 L2.54554e+06,1.48214e+06 L2.26875e+06,1.48214e+06"/>
</g>

<g fill="#b2c823" fill-opacity="1" stroke="none" transform="matrix(7.5e-05,0,0,7.5e-05,-38,-22.125)"
font-family="MS Shell Dlg 2" font-size="8.25" font-weight="400" font-style="normal" 
>
<path vector-effect="none" fill-rule="evenodd" d="M3.82567e+06,552497 L3.82567e+06,2.32e+06 L4.10246e+06,2.32e+06 L4.10246e+06,552497 L3.82567e+06,552497"/>
</g>

<g fill="#b2c823" fill-opacity="1" stroke="none" transform="matrix(7.5e-05,0,0,7.5e-05,-38,-22.125)"
font-family="MS Shell Dlg 2" font-size="8.25" font-weight="400" font-style="normal" 
>
<path vector-effect="none" fill-rule="evenodd" d="M5.38259e+06,993154 L5.38259e+06,2.32e+06 L5.65938e+06,2.32e+06 L5.65938e+06,993154 L5.38259e+06,993154"/>
</g>

<g fill="#b2c823" fill-opacity="1" stroke="none" transform="matrix(7.5e-05,0,0,7.5e-05,-38,-22.125)"
font-family="MS Shell Dlg 2" font-size="8.25" font-weight="400" font-style="normal" 
>
<path vector-effect="none" fill-rule="evenodd" d="M6.93951e+06,1.357e+06 L6.93951e+06,2.32e+06 L7.21629e+06,2.32e+06 L7.21629e+06,1.357e+06 L6.93951e+06,1.357e+06"/>
</g>

<g fill="#b2c823" fill-opacity="1" stroke="none" transform="matrix(7.5e-05,0,0,7.5e-05,-38,-22.125)"
font-family="MS Shell Dlg 2" font-size="8.25" font-weight="400" font-style="normal" 
>
<path vector-effect="none" fill-rule="evenodd" d="M8.49643e+06,1.81065e+06 L8.49643e+06,2.32e+06 L8.77321e+06,2.32e+06 L8.77321e+06,1.81065e+06 L8.49643e+06,1.81065e+06"/>
</g>

<g fill="none" stroke="#212121" stroke-opacity="1" stroke-width="0.666667" stroke-linecap="butt" stroke-linejoin="miter" stroke-miterlimit="5" transform="matrix(0.75,0,0,0.75,-38,-22.125)"
font-family="MS Shell Dlg 2" font-size="8.25" font-weight="400" font-style="normal" 
>
<path vector-effect="none" fill-rule="evenodd" d="M226.875,232 L226.875,148.214 L254.554,148.214 L254.554,232 L226.875,232"/>
<path vector-effect="none" fill-rule="evenodd" d="M382.567,232 L382.567,55.2498 L410.246,55.2498 L410.246,232 L382.567,232"/>
<path vector-effect="none" fill-rule="evenodd" d="M538.259,232 L538.259,99.3154 L565.938,99.3154 L565.938,232 L538.259,232"/>
<path vector-effect="none" fill-rule="evenodd" d="M693.951,232 L693.951,135.7 L721.629,135.7 L721.629,232 L693.951,232"/>
<path vector-effect="none" fill-rule="evenodd" d="M849.643,232 L849.643,181.065 L877.321,181.065 L877.321,232 L849.643,232"/>
</g>

<g fill="#212121" fill-opacity="1" stroke="#212121" stroke-opacity="1" stroke-width="0.666667" stroke-linecap="square" stroke-linejoin="round" transform="matrix(0.75,0,0,0.75,-38,-22.125)"
font-family="MS Shell Dlg 2" font-size="8.25" font-weight="400" font-style="normal" 
>
<polyline fill="none" vector-effect="none" points="130,428 905,428 " />
<polyline fill="none" vector-effect="none" points="206.116,428 206.116,420.25 " />
<polyline fill="none" vector-effect="none" points="361.808,428 361.808,420.25 " />
<polyline fill="none" vector-effect="none" points="517.5,428 517.5,420.25 " />
<polyline fill="none" vector-effect="none" points="673.192,428 673.192,420.25 " />
<polyline fill="none" vector-effect="none" points="828.884,428 828.884,420.25 " />
</g>

<g fill="#212121" fill-opacity="1" stroke="#212121" stroke-opacity="1" stroke-width="1" stroke-linecap="square" stroke-linejoin="bevel" transform="matrix(0.649519,-0.375,0.375,0.649519,82.1159,333.169)"
font-family="Helvetica" font-size="13" font-weight="400" font-style="normal" 
>
<text fill="#212121" fill-opacity="1" stroke="none" xml:space="preserve" x="0" y="0" font-family="Helvetica" font-size="13" font-weight="400" font-style="normal" 
 >2026-2030</text>
</g>

<g fill="#212121" fill-opacity="1" stroke="#212121" stroke-opacity="1" stroke-width="1" stroke-linecap="square" stroke-linejoin="bevel" transform="matrix(0.649519,-0.375,0.375,0.649519,198.885,333.169)"
font-family="Helvetica" font-size="13" font-weight="400" font-style="normal" 
>
<text fill="#212121" fill-opacity="1" stroke="none" xml:space="preserve" x="0" y="0" font-family="Helvetica" font-size="13" font-weight="400" font-style="normal" 
 >2031-2035</text>
</g>

<g fill="#212121" fill-opacity="1" stroke="#212121" stroke-opacity="1" stroke-width="1" stroke-linecap="square" stroke-linejoin="bevel" transform="matrix(0.649519,-0.375,0.375,0.649519,315.654,333.169)"
font-family="Helvetica" font-size="13" font-weight="400" font-style="normal" 
>
<text fill="#212121" fill-opacity="1" stroke="none" xml:space="preserve" x="0" y="0" font-family="Helvetica" font-size="13" font-weight="400" font-style="normal" 
 >2036-2040</text>
</g>

<g fill="#212121" fill-opacity="1" stroke="#212121" stroke-opacity="1" stroke-width="1" stroke-linecap="square" stroke-linejoin="bevel" transform="matrix(0.649519,-0.375,0.375,0.649519,432.423,333.169)"
font-family="Helvetica" font-size="13" font-weight="400" font-style="normal" 
>
<text fill="#212121" fill-opacity="1" stroke="none" xml:space="preserve" x="0" y="0" font-family="Helvetica" font-size="13" font-weight="400" font-style="normal" 
 >2041-2045</text>
</g>

<g fill="#212121" fill-opacity="1" stroke="#212121" stroke-opacity="1" stroke-width="1" stroke-linecap="square" stroke-linejoin="bevel" transform="matrix(0.649519,-0.375,0.375,0.649519,549.192,333.169)"
font-family="Helvetica" font-size="13" font-weight="400" font-style="normal" 
>
<text fill="#212121" fill-opacity="1" stroke="none" xml:space="preserve" x="0" y="0" font-family="Helvetica" font-size="13" font-weight="400" font-style="normal" 
 >2046-2050</text>
</g>

<g fill="#212121" fill-opacity="1" stroke="#212121" stroke-opacity="1" stroke-width="1" stroke-linecap="square" stroke-linejoin="bevel" transform="matrix(0,-0.75,0.75,0,9.00001,246)"
font-family="Helvetica" font-size="14" font-weight="400" font-style="normal" 
>
<text fill="#212121" fill-opacity="1" stroke="none" xml:space="preserve" x="0" y="0" font-family="Helvetica" font-size="14" font-weight="400" font-style="normal" 
 >Investment Share Deviation vs Baseline</text>
</g>

<g fill="#212121" fill-opacity="1" stroke="#212121" stroke-opacity="1" stroke-width="1" stroke-linecap="square" stroke-linejoin="bevel" transform="matrix(0,-0.75,0.75,0,21,211.125)"
font-family="Helvetica" font-size="14" font-weight="400" font-style="normal" 
>
<text fill="#212121" fill-opacity="1" stroke="none" xml:space="preserve" x="0" y="0" font-family="Helvetica" font-size="14" font-weight="400" font-style="normal" 
 >5-year average deviation</text>
</g>

<g fill="#212121" fill-opacity="1" stroke="#212121" stroke-opacity="1" stroke-width="1" stroke-linecap="square" stroke-linejoin="bevel" transform="matrix(0,-0.75,0.75,0,33,176.625)"
font-family="Helvetica" font-size="14" font-weight="400" font-style="normal" 
>
<text fill="#212121" fill-opacity="1" stroke="none" xml:space="preserve" x="0" y="0" font-family="Helvetica" font-size="14" font-weight="400" font-style="normal" 
 >pp of GDP</text>
</g>

<g fill="#212121" fill-opacity="1" stroke="#212121" stroke-opacity="1" stroke-width="0.666667" stroke-linecap="square" stroke-linejoin="round" transform="matrix(0.75,0,0,0.75,-38,-22.125)"
font-family="Helvetica" font-size="14" font-weight="400" font-style="normal" 
>
<polyline fill="none" vector-effect="none" points="130,428 130,36 " />
<polyline fill="none" vector-effect="none" points="130,428 137.75,428 " />
<polyline fill="none" vector-effect="none" points="130,379 137.75,379 " />
<polyline fill="none" vector-effect="none" points="130,330 137.75,330 " />
<polyline fill="none" vector-effect="none" points="130,281 137.75,281 " />
<polyline fill="none" vector-effect="none" points="130,232 137.75,232 " />
<polyline fill="none" vector-effect="none" points="130,183 137.75,183 " />
<polyline fill="none" vector-effect="none" points="130,134 137.75,134 " />
<polyline fill="none" vector-effect="none" points="130,85 137.75,85 " />
<polyline fill="none" vector-effect="none" points="130,36 137.75,36 " />
</g>

<g fill="#212121" fill-opacity="1" stroke="#212121" stroke-opacity="1" stroke-width="1" stroke-linecap="square" stroke-linejoin="bevel" transform="matrix(0.75,0,0,0.75,39,302.25)"
font-family="Helvetica" font-size="13" font-weight="400" font-style="normal" 
>
<text fill="#212121" fill-opacity="1" stroke="none" xml:space="preserve" x="0" y="0" font-family="Helvetica" font-size="13" font-weight="400" font-style="normal" 
 >-0.4</text>
</g>

<g fill="#212121" fill-opacity="1" stroke="#212121" stroke-opacity="1" stroke-width="1" stroke-linecap="square" stroke-linejoin="bevel" transform="matrix(0.75,0,0,0.75,39,265.5)"
font-family="Helvetica" font-size="13" font-weight="400" font-style="normal" 
>
<text fill="#212121" fill-opacity="1" stroke="none" xml:space="preserve" x="0" y="0" font-family="Helvetica" font-size="13" font-weight="400" font-style="normal" 
 >-0.3</text>
</g>

<g fill="#212121" fill-opacity="1" stroke="#212121" stroke-opacity="1" stroke-width="1" stroke-linecap="square" stroke-linejoin="bevel" transform="matrix(0.75,0,0,0.75,39,228.75)"
font-family="Helvetica" font-size="13" font-weight="400" font-style="normal" 
>
<text fill="#212121" fill-opacity="1" stroke="none" xml:space="preserve" x="0" y="0" font-family="Helvetica" font-size="13" font-weight="400" font-style="normal" 
 >-0.2</text>
</g>

<g fill="#212121" fill-opacity="1" stroke="#212121" stroke-opacity="1" stroke-width="1" stroke-linecap="square" stroke-linejoin="bevel" transform="matrix(0.75,0,0,0.75,39,192)"
font-family="Helvetica" font-size="13" font-weight="400" font-style="normal" 
>
<text fill="#212121" fill-opacity="1" stroke="none" xml:space="preserve" x="0" y="0" font-family="Helvetica" font-size="13" font-weight="400" font-style="normal" 
 >-0.1</text>
</g>

<g fill="#212121" fill-opacity="1" stroke="#212121" stroke-opacity="1" stroke-width="1" stroke-linecap="square" stroke-linejoin="bevel" transform="matrix(0.75,0,0,0.75,50.25,155.25)"
font-family="Helvetica" font-size="13" font-weight="400" font-style="normal" 
>
<text fill="#212121" fill-opacity="1" stroke="none" xml:space="preserve" x="0" y="0" font-family="Helvetica" font-size="13" font-weight="400" font-style="normal" 
 >0</text>
</g>

<g fill="#212121" fill-opacity="1" stroke="#212121" stroke-opacity="1" stroke-width="1" stroke-linecap="square" stroke-linejoin="bevel" transform="matrix(0.75,0,0,0.75,42,118.5)"
font-family="Helvetica" font-size="13" font-weight="400" font-style="normal" 
>
<text fill="#212121" fill-opacity="1" stroke="none" xml:space="preserve" x="0" y="0" font-family="Helvetica" font-size="13" font-weight="400" font-style="normal" 
 >0.1</text>
</g>

<g fill="#212121" fill-opacity="1" stroke="#212121" stroke-opacity="1" stroke-width="1" stroke-linecap="square" stroke-linejoin="bevel" transform="matrix(0.75,0,0,0.75,42,81.75)"
font-family="Helvetica" font-size="13" font-weight="400" font-style="normal" 
>
<text fill="#212121" fill-opacity="1" stroke="none" xml:space="preserve" x="0" y="0" font-family="Helvetica" font-size="13" font-weight="400" font-style="normal" 
 >0.2</text>
</g>

<g fill="#212121" fill-opacity="1" stroke="#212121" stroke-opacity="1" stroke-width="1" stroke-linecap="square" stroke-linejoin="bevel" transform="matrix(0.75,0,0,0.75,42,45)"
font-family="Helvetica" font-size="13" font-weight="400" font-style="normal" 
>
<text fill="#212121" fill-opacity="1" stroke="none" xml:space="preserve" x="0" y="0" font-family="Helvetica" font-size="13" font-weight="400" font-style="normal" 
 >0.3</text>
</g>

<g fill="#212121" fill-opacity="1" stroke="#212121" stroke-opacity="1" stroke-width="1" stroke-linecap="square" stroke-linejoin="bevel" transform="matrix(0.75,0,0,0.75,42,8.25)"
font-family="Helvetica" font-size="13" font-weight="400" font-style="normal" 
>
<text fill="#212121" fill-opacity="1" stroke="none" xml:space="preserve" x="0" y="0" font-family="Helvetica" font-size="13" font-weight="400" font-style="normal" 
 >0.4</text>
</g>

<g fill="#c0c7cd" fill-opacity="0.701961" stroke="#c0c7cd" stroke-opacity="0.701961" stroke-dasharray="1,3" stroke-dashoffset="0" stroke-width="1.33333" stroke-linecap="butt" stroke-linejoin="round" transform="matrix(0.75,0,0,0.75,-38,-22.125)"
font-family="Helvetica" font-size="13" font-weight="400" font-style="normal" 
>
<polyline fill="none" vector-effect="none" points="130,232 905,232 " />
</g>

<g fill="#242b84" fill-opacity="1" stroke="none" transform="matrix(7.5e-05,0,0,7.5e-05,-38,-22.125)"
font-family="Helvetica" font-size="13" font-weight="400" font-style="normal" 
>
<path vector-effect="none" fill-rule="evenodd" d="M2.69e+06,4.9275e+06 L2.69e+06,5.0325e+06 L3.09e+06,5.0325e+06 L3.09e+06,4.9275e+06 L2.69e+06,4.9275e+06"/>
</g>

<g fill="none" stroke="#212121" stroke-opacity="1" stroke-width="0.666667" stroke-linecap="butt" stroke-linejoin="miter" stroke-miterlimit="5" transform="matrix(0.75,0,0,0.75,-38,-22.125)"
font-family="Helvetica" font-size="13" font-weight="400" font-style="normal" 
>
<path vector-effect="none" fill-rule="evenodd" d="M269,503.25 L269,492.75 L309,492.75 L309,503.25 L269,503.25"/>
</g>

<g fill="#c8781e" fill-opacity="1" stroke="none" transform="matrix(7.5e-05,0,0,7.5e-05,-38,-22.125)"
font-family="Helvetica" font-size="13" font-weight="400" font-style="normal" 
>
<path vector-effect="none" fill-rule="evenodd" d="M4.11e+06,4.9275e+06 L4.11e+06,5.0325e+06 L4.51e+06,5.0325e+06 L4.51e+06,4.9275e+06 L4.11e+06,4.9275e+06"/>
</g>

<g fill="none" stroke="#212121" stroke-opacity="1" stroke-width="0.666667" stroke-linecap="butt" stroke-linejoin="miter" stroke-miterlimit="5" transform="matrix(0.75,0,0,0.75,-38,-22.125)"
font-family="Helvetica" font-size="13" font-weight="400" font-style="normal" 
>
<path vector-effect="none" fill-rule="evenodd" d="M411,503.25 L411,492.75 L451,492.75 L451,503.25 L411,503.25"/>
</g>

<g fill="#b2c823" fill-opacity="1" stroke="none" transform="matrix(7.5e-05,0,0,7.5e-05,-38,-22.125)"
font-family="Helvetica" font-size="13" font-weight="400" font-style="normal" 
>
<path vector-effect="none" fill-rule="evenodd" d="M5.78e+06,4.9275e+06 L5.78e+06,5.0325e+06 L6.18e+06,5.0325e+06 L6.18e+06,4.9275e+06 L5.78e+06,4.9275e+06"/>
</g>

<g fill="none" stroke="#212121" stroke-opacity="1" stroke-width="0.666667" stroke-linecap="butt" stroke-linejoin="miter" stroke-miterlimit="5" transform="matrix(0.75,0,0,0.75,-38,-22.125)"
font-family="Helvetica" font-size="13" font-weight="400" font-style="normal" 
>
<path vector-effect="none" fill-rule="evenodd" d="M578,503.25 L578,492.75 L618,492.75 L618,503.25 L578,503.25"/>
</g>

<g fill="#212121" fill-opacity="1" stroke="#212121" stroke-opacity="1" stroke-width="1" stroke-linecap="square" stroke-linejoin="bevel" transform="matrix(0.75,0,0,0.75,196,354.375)"
font-family="Helvetica" font-size="12" font-weight="400" font-style="normal" 
>
<text fill="#212121" fill-opacity="1" stroke="none" xml:space="preserve" x="0" y="0" font-family="Helvetica" font-size="12" font-weight="400" font-style="normal" 
 >Directive 10 (full)</text>
</g>

<g fill="#212121" fill-opacity="1" stroke="#212121" stroke-opacity="1" stroke-width="1" stroke-linecap="square" stroke-linejoin="bevel" transform="matrix(0.75,0,0,0.75,302.5,354.375)"
font-family="Helvetica" font-size="12" font-weight="400" font-style="normal" 
>
<text fill="#212121" fill-opacity="1" stroke="none" xml:space="preserve" x="0" y="0" font-family="Helvetica" font-size="12" font-weight="400" font-style="normal" 
 >Directive 10 no BESS</text>
</g>

<g fill="#212121" fill-opacity="1" stroke="#212121" stroke-opacity="1" stroke-width="1" stroke-linecap="square" stroke-linejoin="bevel" transform="matrix(0.75,0,0,0.75,427.75,354.375)"
font-family="Helvetica" font-size="12" font-weight="400" font-style="normal" 
>
<text fill="#212121" fill-opacity="1" stroke="none" xml:space="preserve" x="0" y="0" font-family="Helvetica" font-size="12" font-weight="400" font-style="normal" 
 >RTS at pre-revision 95 GW</text>
</g>
</g>
</svg>
